<svg xmlns="http://www.w3.org/2000/svg" width="624" height="360">
<style>text{font-family:Arial,sans-serif;font-size:11px}.label{font-size:10px}</style>
<text x="20" y="18" font-size="14">Per-service latency (avg ms): HTTP/2 vs HTTP/3</text>
<line x1="80" y1="30" x2="80" y2="290" stroke="#444"/>
<line x1="80" y1="290" x2="604" y2="290" stroke="#444"/>
<line x1="80" y1="290" x2="604" y2="290" stroke="#eee"/>
<text x="10" y="294" class="label">0ms</text>
<line x1="80" y1="229" x2="604" y2="229" stroke="#eee"/>
<text x="10" y="233" class="label">24ms</text>
<line x1="80" y1="167" x2="604" y2="167" stroke="#eee"/>
<text x="10" y="171" class="label">48ms</text>
<line x1="80" y1="105" x2="604" y2="105" stroke="#eee"/>
<text x="10" y="109" class="label">72ms</text>
<line x1="80" y1="40" x2="604" y2="40" stroke="#eee"/>
<text x="10" y="44" class="label">97ms</text>
<rect x="90" y="218" width="18" height="72" fill="#4e79a7"/>
<rect x="112" y="221" width="18" height="69" fill="#f28e2b"/>
<text x="90" y="304" class="label">analyti</text>
<rect x="146" y="193" width="18" height="97" fill="#4e79a7"/>
<rect x="168" y="218" width="18" height="72" fill="#f28e2b"/>
<text x="146" y="304" class="label">auth</text>
<rect x="202" y="223" width="18" height="67" fill="#4e79a7"/>
<rect x="224" y="223" width="18" height="67" fill="#f28e2b"/>
<text x="202" y="304" class="label">booking</text>
<rect x="258" y="270" width="18" height="20" fill="#4e79a7"/>
<rect x="280" y="262" width="18" height="28" fill="#f28e2b"/>
<text x="258" y="304" class="label">gateway</text>
<rect x="314" y="236" width="18" height="54" fill="#4e79a7"/>
<rect x="336" y="247" width="18" height="43" fill="#f28e2b"/>
<text x="314" y="304" class="label">listing</text>
<rect x="370" y="231" width="18" height="59" fill="#4e79a7"/>
<rect x="392" y="242" width="18" height="48" fill="#f28e2b"/>
<text x="370" y="304" class="label">media</text>
<rect x="426" y="236" width="18" height="54" fill="#4e79a7"/>
<rect x="448" y="146" width="18" height="144" fill="#f28e2b"/>
<text x="426" y="304" class="label">messagi</text>
<rect x="482" y="40" width="18" height="250" fill="#4e79a7"/>
<rect x="504" y="211" width="18" height="79" fill="#f28e2b"/>
<text x="482" y="304" class="label">notific</text>
<rect x="538" y="187" width="18" height="103" fill="#4e79a7"/>
<rect x="560" y="226" width="18" height="64" fill="#f28e2b"/>
<text x="538" y="304" class="label">trust</text>
<rect x="80" y="320" width="12" height="12" fill="#4e79a7"/><text x="98" y="330" class="label">HTTP/2</text>
<rect x="170" y="320" width="12" height="12" fill="#f28e2b"/><text x="188" y="330" class="label">HTTP/3</text>
</svg>