<?xml version="1.0" encoding="UTF-8" standalone="no"?>
<!DOCTYPE svg PUBLIC "-//W3C//DTD SVG 1.1//EN"
 "http://www.w3.org/Graphics/SVG/1.1/DTD/svg11.dtd">
<!-- Generated by graphviz version 12.2.1 (20241206.2353)
 -->
<!-- Title: domain Pages: 1 -->
<svg width="952pt" height="384pt"
 viewBox="0.00 0.00 952.25 383.59" xmlns="http://www.w3.org/2000/svg" xmlns:xlink="http://www.w3.org/1999/xlink">
<g id="graph0" class="graph" transform="scale(1 1) rotate(0) translate(4 379.59)">
<title>domain</title>
<polygon fill="white" stroke="none" points="-4,4 -4,-379.59 948.25,-379.59 948.25,4 -4,4"/>
<text text-anchor="middle" x="472.12" y="-361.14" font-family="Times,serif" font-size="11.00">Off&#45;Campus Housing &#45; domain model (cross&#45;service, logical)</text>
<!-- User -->
<g id="node1" class="node">
<title>User</title>
<path fill="none" stroke="black" d="M42,-175.09C42,-175.09 12,-175.09 12,-175.09 6,-175.09 0,-169.09 0,-163.09 0,-163.09 0,-151.09 0,-151.09 0,-145.09 6,-139.09 12,-139.09 12,-139.09 42,-139.09 42,-139.09 48,-139.09 54,-145.09 54,-151.09 54,-151.09 54,-163.09 54,-163.09 54,-169.09 48,-175.09 42,-175.09"/>
<text text-anchor="middle" x="27" y="-152.04" font-family="Helvetica Neue" font-size="14.00">User</text>
</g>
<!-- Listing -->
<g id="node2" class="node">
<title>Listing</title>
<path fill="none" stroke="black" d="M213.12,-175.09C213.12,-175.09 180.62,-175.09 180.62,-175.09 174.62,-175.09 168.62,-169.09 168.62,-163.09 168.62,-163.09 168.62,-151.09 168.62,-151.09 168.62,-145.09 174.62,-139.09 180.62,-139.09 180.62,-139.09 213.12,-139.09 213.12,-139.09 219.12,-139.09 225.12,-145.09 225.12,-151.09 225.12,-151.09 225.12,-163.09 225.12,-163.09 225.12,-169.09 219.12,-175.09 213.12,-175.09"/>
<text text-anchor="middle" x="196.88" y="-152.04" font-family="Helvetica Neue" font-size="14.00">Listing</text>
</g>
<!-- User&#45;&gt;Listing -->
<g id="edge1" class="edge">
<title>User&#45;&gt;Listing</title>
<path fill="none" stroke="black" d="M54.23,-157.09C81.71,-157.09 125.17,-157.09 156.71,-157.09"/>
<polygon fill="black" stroke="black" points="156.64,-160.59 166.64,-157.09 156.64,-153.59 156.64,-160.59"/>
<text text-anchor="middle" x="104.25" y="-159.79" font-family="Helvetica Neue" font-size="9.00">creates (user_id)</text>
</g>
<!-- Booking -->
<g id="node3" class="node">
<title>Booking</title>
<path fill="none" stroke="black" d="M474.25,-320.09C474.25,-320.09 429.75,-320.09 429.75,-320.09 423.75,-320.09 417.75,-314.09 417.75,-308.09 417.75,-308.09 417.75,-296.09 417.75,-296.09 417.75,-290.09 423.75,-284.09 429.75,-284.09 429.75,-284.09 474.25,-284.09 474.25,-284.09 480.25,-284.09 486.25,-290.09 486.25,-296.09 486.25,-296.09 486.25,-308.09 486.25,-308.09 486.25,-314.09 480.25,-320.09 474.25,-320.09"/>
<text text-anchor="middle" x="452" y="-297.04" font-family="Helvetica Neue" font-size="14.00">Booking</text>
</g>
<!-- User&#45;&gt;Booking -->
<g id="edge3" class="edge">
<title>User&#45;&gt;Booking</title>
<path fill="none" stroke="black" d="M54.31,-171.96C96.06,-194.96 180.62,-239.1 257.25,-264.09 307.08,-280.34 366.51,-290.73 406.29,-296.47"/>
<polygon fill="black" stroke="black" points="405.58,-299.9 415.97,-297.82 406.55,-292.97 405.58,-299.9"/>
<text text-anchor="middle" x="196.88" y="-259.35" font-family="Helvetica Neue" font-size="9.00">tenant (tenant_id)</text>
</g>
<!-- User&#45;&gt;Booking -->
<g id="edge4" class="edge">
<title>User&#45;&gt;Booking</title>
<path fill="none" stroke="black" d="M41.22,-175.57C49.46,-186.48 60.63,-200.24 72,-211.09 104.99,-242.57 112.67,-253.92 154.5,-272.09 237.7,-308.22 345.99,-308.94 406,-305.8"/>
<polygon fill="black" stroke="black" points="406.05,-309.3 415.82,-305.21 405.63,-302.31 406.05,-309.3"/>
<text text-anchor="middle" x="196.88" y="-299.03" font-family="Helvetica Neue" font-size="9.00">landlord (landlord_id)</text>
</g>
<!-- AbuseReport -->
<g id="node5" class="node">
<title>AbuseReport</title>
<path fill="none" stroke="black" d="M488.88,-50.09C488.88,-50.09 415.12,-50.09 415.12,-50.09 409.12,-50.09 403.12,-44.09 403.12,-38.09 403.12,-38.09 403.12,-26.09 403.12,-26.09 403.12,-20.09 409.12,-14.09 415.12,-14.09 415.12,-14.09 488.88,-14.09 488.88,-14.09 494.88,-14.09 500.88,-20.09 500.88,-26.09 500.88,-26.09 500.88,-38.09 500.88,-38.09 500.88,-44.09 494.88,-50.09 488.88,-50.09"/>
<text text-anchor="middle" x="452" y="-27.04" font-family="Helvetica Neue" font-size="14.00">AbuseReport</text>
</g>
<!-- User&#45;&gt;AbuseReport -->
<g id="edge7" class="edge">
<title>User&#45;&gt;AbuseReport</title>
<path fill="none" stroke="black" d="M54.26,-140.47C95.61,-115.25 179.23,-68.04 257.25,-47.09 301.29,-35.26 352.83,-31.74 391.68,-31.05"/>
<polygon fill="black" stroke="black" points="391.32,-34.56 401.28,-30.95 391.24,-27.56 391.32,-34.56"/>
<text text-anchor="middle" x="196.88" y="-88.08" font-family="Helvetica Neue" font-size="9.00">reporter</text>
</g>
<!-- Message -->
<g id="node9" class="node">
<title>Message</title>
<path fill="none" stroke="black" d="M735.5,-38.09C735.5,-38.09 687.25,-38.09 687.25,-38.09 681.25,-38.09 675.25,-32.09 675.25,-26.09 675.25,-26.09 675.25,-14.09 675.25,-14.09 675.25,-8.09 681.25,-2.09 687.25,-2.09 687.25,-2.09 735.5,-2.09 735.5,-2.09 741.5,-2.09 747.5,-8.09 747.5,-14.09 747.5,-14.09 747.5,-26.09 747.5,-26.09 747.5,-32.09 741.5,-38.09 735.5,-38.09"/>
<text text-anchor="middle" x="711.38" y="-15.04" font-family="Helvetica Neue" font-size="14.00">Message</text>
</g>
<!-- User&#45;&gt;Message -->
<g id="edge12" class="edge">
<title>User&#45;&gt;Message</title>
<path fill="none" stroke="black" d="M36.95,-138.74C44.66,-124.37 56.94,-104.61 72,-91.09 138,-31.83 170.21,-33.9 257.25,-16.84 403.27,11.79 580.89,-3.66 663.69,-13.68"/>
<polygon fill="black" stroke="black" points="663.11,-17.14 673.47,-14.9 663.97,-10.19 663.11,-17.14"/>
<text text-anchor="middle" x="312" y="-19.54" font-family="Helvetica Neue" font-size="9.00">sender</text>
</g>
<!-- Listing&#45;&gt;Booking -->
<g id="edge2" class="edge">
<title>Listing&#45;&gt;Booking</title>
<path fill="none" stroke="black" d="M207.81,-175.42C217.97,-192.32 235.34,-216.76 257.25,-230.09 299.72,-255.92 324.32,-226.95 366.75,-252.84 377.61,-259.46 374.54,-267.5 384.75,-275.09 391.4,-280.03 399.08,-284.22 406.8,-287.73"/>
<polygon fill="black" stroke="black" points="405.3,-290.89 415.87,-291.51 407.99,-284.43 405.3,-290.89"/>
<text text-anchor="middle" x="312" y="-255.54" font-family="Helvetica Neue" font-size="9.00">booked as (listing_id)</text>
</g>
<!-- Listing&#45;&gt;AbuseReport -->
<g id="edge6" class="edge">
<title>Listing&#45;&gt;AbuseReport</title>
<path fill="none" stroke="black" d="M208.44,-138.61C218.81,-122.11 236.12,-98.51 257.25,-84.84 279.45,-70.47 343.36,-54.61 391.76,-44.07"/>
<polygon fill="black" stroke="black" points="392.24,-47.55 401.28,-42.03 390.77,-40.7 392.24,-47.55"/>
<text text-anchor="middle" x="312" y="-87.54" font-family="Helvetica Neue" font-size="9.00">flag target</text>
</g>
<!-- AnalyticsProjection -->
<g id="node7" class="node">
<title>AnalyticsProjection</title>
<path fill="none" stroke="black" d="M507.25,-266.09C507.25,-266.09 396.75,-266.09 396.75,-266.09 390.75,-266.09 384.75,-260.09 384.75,-254.09 384.75,-254.09 384.75,-242.09 384.75,-242.09 384.75,-236.09 390.75,-230.09 396.75,-230.09 396.75,-230.09 507.25,-230.09 507.25,-230.09 513.25,-230.09 519.25,-236.09 519.25,-242.09 519.25,-242.09 519.25,-254.09 519.25,-254.09 519.25,-260.09 513.25,-266.09 507.25,-266.09"/>
<text text-anchor="middle" x="452" y="-243.04" font-family="Helvetica Neue" font-size="14.00">AnalyticsProjection</text>
</g>
<!-- Listing&#45;&gt;AnalyticsProjection -->
<g id="edge9" class="edge">
<title>Listing&#45;&gt;AnalyticsProjection</title>
<path fill="none" stroke="black" d="M221.27,-175.4C231.76,-182.82 244.6,-190.85 257.25,-196.09 303.17,-215.12 318.84,-205.6 366.75,-218.84 374.55,-220.99 382.67,-223.48 390.67,-226.09"/>
<polygon fill="black" stroke="black" points="389.41,-229.36 400,-229.21 391.63,-222.72 389.41,-229.36"/>
<text text-anchor="middle" x="312" y="-221.54" font-family="Helvetica Neue" font-size="9.00">listing events</text>
</g>
<!-- Conversation -->
<g id="node8" class="node">
<title>Conversation</title>
<path fill="none" stroke="black" d="M488.88,-104.09C488.88,-104.09 415.12,-104.09 415.12,-104.09 409.12,-104.09 403.12,-98.09 403.12,-92.09 403.12,-92.09 403.12,-80.09 403.12,-80.09 403.12,-74.09 409.12,-68.09 415.12,-68.09 415.12,-68.09 488.88,-68.09 488.88,-68.09 494.88,-68.09 500.88,-74.09 500.88,-80.09 500.88,-80.09 500.88,-92.09 500.88,-92.09 500.88,-98.09 494.88,-104.09 488.88,-104.09"/>
<text text-anchor="middle" x="452" y="-81.04" font-family="Helvetica Neue" font-size="14.00">Conversation</text>
</g>
<!-- Listing&#45;&gt;Conversation -->
<g id="edge10" class="edge">
<title>Listing&#45;&gt;Conversation</title>
<path fill="none" stroke="black" d="M225.42,-142.38C235.26,-137.56 246.56,-132.51 257.25,-128.84 301.29,-113.72 352.83,-102.65 391.68,-95.57"/>
<polygon fill="black" stroke="black" points="392.07,-99.05 401.3,-93.85 390.84,-92.16 392.07,-99.05"/>
<text text-anchor="middle" x="312" y="-131.54" font-family="Helvetica Neue" font-size="9.00">optional listing_id scope</text>
</g>
<!-- Media -->
<g id="node10" class="node">
<title>Media</title>
<path fill="none" stroke="black" d="M467.12,-212.09C467.12,-212.09 436.88,-212.09 436.88,-212.09 430.88,-212.09 424.88,-206.09 424.88,-200.09 424.88,-200.09 424.88,-188.09 424.88,-188.09 424.88,-182.09 430.88,-176.09 436.88,-176.09 436.88,-176.09 467.12,-176.09 467.12,-176.09 473.12,-176.09 479.12,-182.09 479.12,-188.09 479.12,-188.09 479.12,-200.09 479.12,-200.09 479.12,-206.09 473.12,-212.09 467.12,-212.09"/>
<text text-anchor="middle" x="452" y="-189.04" font-family="Helvetica Neue" font-size="14.00">Media</text>
</g>
<!-- Listing&#45;&gt;Media -->
<g id="edge13" class="edge">
<title>Listing&#45;&gt;Media</title>
<path fill="none" stroke="black" d="M225.45,-161.12C270.97,-167.77 361.94,-181.07 413.35,-188.58"/>
<polygon fill="black" stroke="black" points="412.71,-192.03 423.11,-190.01 413.72,-185.1 412.71,-192.03"/>
<text text-anchor="middle" x="312" y="-183.76" font-family="Helvetica Neue" font-size="9.00">attachments metadata</text>
</g>
<!-- Trust -->
<g id="node11" class="node">
<title>Trust</title>
<path fill="none" stroke="black" d="M467,-158.09C467,-158.09 437,-158.09 437,-158.09 431,-158.09 425,-152.09 425,-146.09 425,-146.09 425,-134.09 425,-134.09 425,-128.09 431,-122.09 437,-122.09 437,-122.09 467,-122.09 467,-122.09 473,-122.09 479,-128.09 479,-134.09 479,-134.09 479,-146.09 479,-146.09 479,-152.09 473,-158.09 467,-158.09"/>
<text text-anchor="middle" x="452" y="-135.04" font-family="Helvetica Neue" font-size="14.00">Trust</text>
</g>
<!-- Listing&#45;&gt;Trust -->
<g id="edge14" class="edge">
<title>Listing&#45;&gt;Trust</title>
<path fill="none" stroke="#555555" stroke-dasharray="5,2" d="M225.34,-153.91C235.37,-152.83 246.81,-151.68 257.25,-150.84 311.42,-146.49 374.25,-143.35 413.32,-141.63"/>
<polygon fill="#555555" stroke="#555555" points="413.3,-145.13 423.14,-141.2 412.99,-138.14 413.3,-145.13"/>
<text text-anchor="middle" x="312" y="-153.54" font-family="Helvetica Neue" font-size="9.00">Kafka: flagged / moderation</text>
</g>
<!-- Review -->
<g id="node4" class="node">
<title>Review</title>
<path fill="none" stroke="black" d="M729.88,-354.09C729.88,-354.09 692.88,-354.09 692.88,-354.09 686.88,-354.09 680.88,-348.09 680.88,-342.09 680.88,-342.09 680.88,-330.09 680.88,-330.09 680.88,-324.09 686.88,-318.09 692.88,-318.09 692.88,-318.09 729.88,-318.09 729.88,-318.09 735.88,-318.09 741.88,-324.09 741.88,-330.09 741.88,-330.09 741.88,-342.09 741.88,-342.09 741.88,-348.09 735.88,-354.09 729.88,-354.09"/>
<text text-anchor="middle" x="711.38" y="-331.04" font-family="Helvetica Neue" font-size="14.00">Review</text>
</g>
<!-- Booking&#45;&gt;Review -->
<g id="edge5" class="edge">
<title>Booking&#45;&gt;Review</title>
<path fill="none" stroke="black" d="M486.65,-306.53C533.67,-312.74 618.95,-324.01 669.55,-330.69"/>
<polygon fill="black" stroke="black" points="668.84,-334.13 679.21,-331.97 669.75,-327.19 668.84,-334.13"/>
<text text-anchor="middle" x="593.5" y="-330.57" font-family="Helvetica Neue" font-size="9.00">may yield reputation change</text>
</g>
<!-- Notification -->
<g id="node6" class="node">
<title>Notification</title>
<path fill="none" stroke="black" d="M743,-293.09C743,-293.09 679.75,-293.09 679.75,-293.09 673.75,-293.09 667.75,-287.09 667.75,-281.09 667.75,-281.09 667.75,-269.09 667.75,-269.09 667.75,-263.09 673.75,-257.09 679.75,-257.09 679.75,-257.09 743,-257.09 743,-257.09 749,-257.09 755,-263.09 755,-269.09 755,-269.09 755,-281.09 755,-281.09 755,-287.09 749,-293.09 743,-293.09"/>
<text text-anchor="middle" x="711.38" y="-270.04" font-family="Helvetica Neue" font-size="14.00">Notification</text>
</g>
<!-- Booking&#45;&gt;Notification -->
<g id="edge8" class="edge">
<title>Booking&#45;&gt;Notification</title>
<path fill="none" stroke="black" d="M486.65,-298.56C529.72,-294.04 604.88,-286.15 656.09,-280.78"/>
<polygon fill="black" stroke="black" points="656.19,-284.29 665.77,-279.77 655.46,-277.33 656.19,-284.29"/>
<text text-anchor="middle" x="593.5" y="-295.28" font-family="Helvetica Neue" font-size="9.00">events → notify</text>
</g>
<!-- Booking&#45;&gt;Notification -->
<g id="edge16" class="edge">
<title>Booking&#45;&gt;Notification</title>
<path fill="none" stroke="#555555" stroke-dasharray="5,2" d="M486.48,-288.77C497.01,-284.49 508.65,-279.67 519.25,-275.09 527.33,-271.59 528.65,-268.71 537.25,-266.84 576.47,-258.28 621.84,-260.88 656.28,-265.34"/>
<polygon fill="#555555" stroke="#555555" points="655.64,-268.78 666.03,-266.7 656.61,-261.85 655.64,-268.78"/>
<text text-anchor="middle" x="593.5" y="-269.54" font-family="Helvetica Neue" font-size="9.00">Kafka: outbox</text>
</g>
<!-- Conversation&#45;&gt;Message -->
<g id="edge11" class="edge">
<title>Conversation&#45;&gt;Message</title>
<path fill="none" stroke="black" d="M501.11,-73.75C547.75,-61.79 618.02,-43.77 664.05,-31.97"/>
<polygon fill="black" stroke="black" points="664.63,-35.43 673.45,-29.56 662.89,-28.65 664.63,-35.43"/>
<text text-anchor="middle" x="593.5" y="-65.56" font-family="Helvetica Neue" font-size="9.00">contains</text>
</g>
<!-- Analytics -->
<g id="node12" class="node">
<title>Analytics</title>
<path fill="none" stroke="black" d="M932.25,-38.09C932.25,-38.09 884.75,-38.09 884.75,-38.09 878.75,-38.09 872.75,-32.09 872.75,-26.09 872.75,-26.09 872.75,-14.09 872.75,-14.09 872.75,-8.09 878.75,-2.09 884.75,-2.09 884.75,-2.09 932.25,-2.09 932.25,-2.09 938.25,-2.09 944.25,-8.09 944.25,-14.09 944.25,-14.09 944.25,-26.09 944.25,-26.09 944.25,-32.09 938.25,-38.09 932.25,-38.09"/>
<text text-anchor="middle" x="908.5" y="-15.04" font-family="Helvetica Neue" font-size="14.00">Analytics</text>
</g>
<!-- Message&#45;&gt;Analytics -->
<g id="edge15" class="edge">
<title>Message&#45;&gt;Analytics</title>
<path fill="none" stroke="#555555" stroke-dasharray="5,2" d="M747.71,-20.09C779.48,-20.09 826.36,-20.09 861.14,-20.09"/>
<polygon fill="#555555" stroke="#555555" points="860.91,-23.59 870.91,-20.09 860.91,-16.59 860.91,-23.59"/>
<text text-anchor="middle" x="813.88" y="-22.79" font-family="Helvetica Neue" font-size="9.00">Kafka: message.sent</text>
</g>
</g>
</svg>
