<svg xmlns="http://www.w3.org/2000/svg" width="624" height="360">
<style>text{font-family:Arial,sans-serif;font-size:11px}.label{font-size:10px}</style>
<text x="20" y="18" font-size="14">Per-service latency (avg ms): HTTP/2 vs HTTP/3</text>
<line x1="80" y1="30" x2="80" y2="290" stroke="#444"/>
<line x1="80" y1="290" x2="604" y2="290" stroke="#444"/>
<line x1="80" y1="290" x2="604" y2="290" stroke="#eee"/>
<text x="10" y="294" class="label">0ms</text>
<line x1="80" y1="230" x2="604" y2="230" stroke="#eee"/>
<text x="10" y="234" class="label">18ms</text>
<line x1="80" y1="167" x2="604" y2="167" stroke="#eee"/>
<text x="10" y="171" class="label">37ms</text>
<line x1="80" y1="104" x2="604" y2="104" stroke="#eee"/>
<text x="10" y="108" class="label">56ms</text>
<line x1="80" y1="40" x2="604" y2="40" stroke="#eee"/>
<text x="10" y="44" class="label">75ms</text>
<rect x="90" y="144" width="18" height="146" fill="#4e79a7"/>
<rect x="112" y="200" width="18" height="90" fill="#f28e2b"/>
<text x="90" y="304" class="label">analyti</text>
<rect x="146" y="40" width="18" height="250" fill="#4e79a7"/>
<rect x="168" y="190" width="18" height="100" fill="#f28e2b"/>
<text x="146" y="304" class="label">auth</text>
<rect x="202" y="107" width="18" height="183" fill="#4e79a7"/>
<rect x="224" y="217" width="18" height="73" fill="#f28e2b"/>
<text x="202" y="304" class="label">booking</text>
<rect x="258" y="264" width="18" height="26" fill="#4e79a7"/>
<rect x="280" y="254" width="18" height="36" fill="#f28e2b"/>
<text x="258" y="304" class="label">gateway</text>
<rect x="314" y="164" width="18" height="126" fill="#4e79a7"/>
<rect x="336" y="180" width="18" height="110" fill="#f28e2b"/>
<text x="314" y="304" class="label">listing</text>
<rect x="370" y="137" width="18" height="153" fill="#4e79a7"/>
<rect x="392" y="187" width="18" height="103" fill="#f28e2b"/>
<text x="370" y="304" class="label">media</text>
<rect x="426" y="200" width="18" height="90" fill="#4e79a7"/>
<rect x="448" y="234" width="18" height="56" fill="#f28e2b"/>
<text x="426" y="304" class="label">messagi</text>
<rect x="482" y="160" width="18" height="130" fill="#4e79a7"/>
<rect x="504" y="190" width="18" height="100" fill="#f28e2b"/>
<text x="482" y="304" class="label">notific</text>
<rect x="538" y="210" width="18" height="80" fill="#4e79a7"/>
<rect x="560" y="154" width="18" height="136" fill="#f28e2b"/>
<text x="538" y="304" class="label">trust</text>
<rect x="80" y="320" width="12" height="12" fill="#4e79a7"/><text x="98" y="330" class="label">HTTP/2</text>
<rect x="170" y="320" width="12" height="12" fill="#f28e2b"/><text x="188" y="330" class="label">HTTP/3</text>
</svg>