<?xml version="1.0" encoding="UTF-8" standalone="no"?>
<!DOCTYPE svg PUBLIC "-//W3C//DTD SVG 1.1//EN"
 "http://www.w3.org/Graphics/SVG/1.1/DTD/svg11.dtd">
<!-- Generated by graphviz version 14.1.4 (20260321.0153)
 -->
<!-- Title: domain Pages: 1 -->
<svg width="958pt" height="383pt"
 viewBox="0.00 0.00 958.00 383.00" xmlns="http://www.w3.org/2000/svg" xmlns:xlink="http://www.w3.org/1999/xlink">
<g id="graph0" class="graph" transform="scale(1 1) rotate(0) translate(4 378.79)">
<title>domain</title>
<polygon fill="white" stroke="none" points="-4,4 -4,-378.79 954.25,-378.79 954.25,4 -4,4"/>
<text xml:space="preserve" text-anchor="middle" x="475.12" y="-360.34" font-family="Helvetica,sans-Serif" font-size="11.00">Off&#45;Campus Housing &#45; domain model (cross&#45;service, logical)</text>
<!-- User -->
<g id="node1" class="node">
<title>User</title>
<path fill="none" stroke="black" d="M42,-179.79C42,-179.79 12,-179.79 12,-179.79 6,-179.79 0,-173.79 0,-167.79 0,-167.79 0,-155.79 0,-155.79 0,-149.79 6,-143.79 12,-143.79 12,-143.79 42,-143.79 42,-143.79 48,-143.79 54,-149.79 54,-155.79 54,-155.79 54,-167.79 54,-167.79 54,-173.79 48,-179.79 42,-179.79"/>
<text xml:space="preserve" text-anchor="middle" x="27" y="-155.99" font-family="Helvetica,sans-Serif" font-size="14.00">User</text>
</g>
<!-- Listing -->
<g id="node2" class="node">
<title>Listing</title>
<path fill="none" stroke="black" d="M218.75,-179.79C218.75,-179.79 187.75,-179.79 187.75,-179.79 181.75,-179.79 175.75,-173.79 175.75,-167.79 175.75,-167.79 175.75,-155.79 175.75,-155.79 175.75,-149.79 181.75,-143.79 187.75,-143.79 187.75,-143.79 218.75,-143.79 218.75,-143.79 224.75,-143.79 230.75,-149.79 230.75,-155.79 230.75,-155.79 230.75,-167.79 230.75,-167.79 230.75,-173.79 224.75,-179.79 218.75,-179.79"/>
<text xml:space="preserve" text-anchor="middle" x="203.25" y="-155.99" font-family="Helvetica,sans-Serif" font-size="14.00">Listing</text>
</g>
<!-- User&#45;&gt;Listing -->
<g id="edge1" class="edge">
<title>User&#45;&gt;Listing</title>
<path fill="none" stroke="black" d="M54.46,-161.79C83.76,-161.79 131.23,-161.79 164.44,-161.79"/>
<polygon fill="black" stroke="black" points="164.02,-165.29 174.02,-161.79 164.02,-158.29 164.02,-165.29"/>
<text xml:space="preserve" text-anchor="middle" x="106.5" y="-162.99" font-family="Helvetica,sans-Serif" font-size="9.00">creates (user_id)</text>
</g>
<!-- Booking -->
<g id="node3" class="node">
<title>Booking</title>
<path fill="none" stroke="black" d="M480.62,-320.79C480.62,-320.79 439.88,-320.79 439.88,-320.79 433.88,-320.79 427.88,-314.79 427.88,-308.79 427.88,-308.79 427.88,-296.79 427.88,-296.79 427.88,-290.79 433.88,-284.79 439.88,-284.79 439.88,-284.79 480.62,-284.79 480.62,-284.79 486.62,-284.79 492.62,-290.79 492.62,-296.79 492.62,-296.79 492.62,-308.79 492.62,-308.79 492.62,-314.79 486.62,-320.79 480.62,-320.79"/>
<text xml:space="preserve" text-anchor="middle" x="460.25" y="-296.99" font-family="Helvetica,sans-Serif" font-size="14.00">Booking</text>
</g>
<!-- User&#45;&gt;Booking -->
<g id="edge3" class="edge">
<title>User&#45;&gt;Booking</title>
<path fill="none" stroke="black" d="M54.48,-174.69C97.73,-195.35 186.65,-236.03 265.5,-260.79 316.46,-276.78 376.83,-288.82 416.48,-295.82"/>
<polygon fill="black" stroke="black" points="415.64,-299.23 426.09,-297.48 416.84,-292.33 415.64,-299.23"/>
<text xml:space="preserve" text-anchor="middle" x="203.25" y="-256.01" font-family="Helvetica,sans-Serif" font-size="9.00">tenant (tenant_id)</text>
</g>
<!-- User&#45;&gt;Booking -->
<g id="edge4" class="edge">
<title>User&#45;&gt;Booking</title>
<path fill="none" stroke="black" d="M42,-179.99C50.16,-189.98 60.99,-202.24 72,-211.79 106.92,-242.08 116.12,-251.52 159,-268.79 245.45,-303.6 356.51,-306.47 416.39,-304.96"/>
<polygon fill="black" stroke="black" points="416.26,-308.47 426.15,-304.66 416.05,-301.47 416.26,-308.47"/>
<text xml:space="preserve" text-anchor="middle" x="203.25" y="-294.51" font-family="Helvetica,sans-Serif" font-size="9.00">landlord (landlord_id)</text>
</g>
<!-- AbuseReport -->
<g id="node5" class="node">
<title>AbuseReport</title>
<path fill="none" stroke="black" d="M495.62,-50.79C495.62,-50.79 424.88,-50.79 424.88,-50.79 418.88,-50.79 412.88,-44.79 412.88,-38.79 412.88,-38.79 412.88,-26.79 412.88,-26.79 412.88,-20.79 418.88,-14.79 424.88,-14.79 424.88,-14.79 495.62,-14.79 495.62,-14.79 501.62,-14.79 507.62,-20.79 507.62,-26.79 507.62,-26.79 507.62,-38.79 507.62,-38.79 507.62,-44.79 501.62,-50.79 495.62,-50.79"/>
<text xml:space="preserve" text-anchor="middle" x="460.25" y="-26.99" font-family="Helvetica,sans-Serif" font-size="14.00">AbuseReport</text>
</g>
<!-- User&#45;&gt;AbuseReport -->
<g id="edge7" class="edge">
<title>User&#45;&gt;AbuseReport</title>
<path fill="none" stroke="black" d="M54.16,-145.2C96.62,-119.23 184,-69.67 265.5,-47.79 310.04,-35.82 362.25,-32.36 401.24,-31.73"/>
<polygon fill="black" stroke="black" points="401.16,-35.23 411.13,-31.63 401.09,-28.23 401.16,-35.23"/>
<text xml:space="preserve" text-anchor="middle" x="203.25" y="-88.67" font-family="Helvetica,sans-Serif" font-size="9.00">reporter</text>
</g>
<!-- Message -->
<g id="node9" class="node">
<title>Message</title>
<path fill="none" stroke="black" d="M741.88,-38.79C741.88,-38.79 694.38,-38.79 694.38,-38.79 688.38,-38.79 682.38,-32.79 682.38,-26.79 682.38,-26.79 682.38,-14.79 682.38,-14.79 682.38,-8.79 688.38,-2.79 694.38,-2.79 694.38,-2.79 741.88,-2.79 741.88,-2.79 747.88,-2.79 753.88,-8.79 753.88,-14.79 753.88,-14.79 753.88,-26.79 753.88,-26.79 753.88,-32.79 747.88,-38.79 741.88,-38.79"/>
<text xml:space="preserve" text-anchor="middle" x="718.12" y="-14.99" font-family="Helvetica,sans-Serif" font-size="14.00">Message</text>
</g>
<!-- User&#45;&gt;Message -->
<g id="edge12" class="edge">
<title>User&#45;&gt;Message</title>
<path fill="none" stroke="black" d="M36.47,-143.42C44.07,-128.53 56.42,-107.79 72,-93.79 104.22,-64.81 118.68,-65.64 159,-49.79 337.31,20.33 572.63,-0.47 670.91,-13.64"/>
<polygon fill="black" stroke="black" points="670.32,-17.1 680.7,-15 671.27,-10.16 670.32,-17.1"/>
<text xml:space="preserve" text-anchor="middle" x="321.38" y="-19.1" font-family="Helvetica,sans-Serif" font-size="9.00">sender</text>
</g>
<!-- Listing&#45;&gt;Booking -->
<g id="edge2" class="edge">
<title>Listing&#45;&gt;Booking</title>
<path fill="none" stroke="black" d="M216.34,-180.13C227.33,-195.3 244.94,-216.18 265.5,-227.79 309.68,-252.72 334.64,-223.51 377.25,-251.04 388.67,-258.42 384.59,-267.33 395.25,-275.79 401.75,-280.94 409.37,-285.27 417.04,-288.85"/>
<polygon fill="black" stroke="black" points="415.48,-291.99 426.05,-292.68 418.22,-285.55 415.48,-291.99"/>
<text xml:space="preserve" text-anchor="middle" x="321.38" y="-252.24" font-family="Helvetica,sans-Serif" font-size="9.00">booked as (listing_id)</text>
</g>
<!-- Listing&#45;&gt;AbuseReport -->
<g id="edge6" class="edge">
<title>Listing&#45;&gt;AbuseReport</title>
<path fill="none" stroke="black" d="M214.75,-143.36C225.41,-126.29 243.45,-101.44 265.5,-87.04 287.95,-72.37 353.17,-55.78 401.77,-44.85"/>
<polygon fill="black" stroke="black" points="402.32,-48.32 411.32,-42.73 400.8,-41.48 402.32,-48.32"/>
<text xml:space="preserve" text-anchor="middle" x="321.38" y="-88.24" font-family="Helvetica,sans-Serif" font-size="9.00">flag target</text>
</g>
<!-- AnalyticsProjection -->
<g id="node7" class="node">
<title>AnalyticsProjection</title>
<path fill="none" stroke="black" d="M513.25,-266.79C513.25,-266.79 407.25,-266.79 407.25,-266.79 401.25,-266.79 395.25,-260.79 395.25,-254.79 395.25,-254.79 395.25,-242.79 395.25,-242.79 395.25,-236.79 401.25,-230.79 407.25,-230.79 407.25,-230.79 513.25,-230.79 513.25,-230.79 519.25,-230.79 525.25,-236.79 525.25,-242.79 525.25,-242.79 525.25,-254.79 525.25,-254.79 525.25,-260.79 519.25,-266.79 513.25,-266.79"/>
<text xml:space="preserve" text-anchor="middle" x="460.25" y="-242.99" font-family="Helvetica,sans-Serif" font-size="14.00">AnalyticsProjection</text>
</g>
<!-- Listing&#45;&gt;AnalyticsProjection -->
<g id="edge9" class="edge">
<title>Listing&#45;&gt;AnalyticsProjection</title>
<path fill="none" stroke="black" d="M231.21,-178.49C241.61,-184.35 253.81,-190.52 265.5,-194.79 313.16,-212.16 328.52,-203.92 377.25,-218.04 385.67,-220.47 394.46,-223.37 403.02,-226.4"/>
<polygon fill="black" stroke="black" points="401.68,-229.64 412.27,-229.77 404.07,-223.06 401.68,-229.64"/>
<text xml:space="preserve" text-anchor="middle" x="321.38" y="-219.24" font-family="Helvetica,sans-Serif" font-size="9.00">listing events</text>
</g>
<!-- Conversation -->
<g id="node8" class="node">
<title>Conversation</title>
<path fill="none" stroke="black" d="M496,-104.79C496,-104.79 424.5,-104.79 424.5,-104.79 418.5,-104.79 412.5,-98.79 412.5,-92.79 412.5,-92.79 412.5,-80.79 412.5,-80.79 412.5,-74.79 418.5,-68.79 424.5,-68.79 424.5,-68.79 496,-68.79 496,-68.79 502,-68.79 508,-74.79 508,-80.79 508,-80.79 508,-92.79 508,-92.79 508,-98.79 502,-104.79 496,-104.79"/>
<text xml:space="preserve" text-anchor="middle" x="460.25" y="-80.99" font-family="Helvetica,sans-Serif" font-size="14.00">Conversation</text>
</g>
<!-- Listing&#45;&gt;Conversation -->
<g id="edge10" class="edge">
<title>Listing&#45;&gt;Conversation</title>
<path fill="none" stroke="black" d="M231.01,-146C241.49,-140.33 253.79,-134.29 265.5,-130.04 309.72,-113.95 361.88,-102.72 400.93,-95.74"/>
<polygon fill="black" stroke="black" points="401.35,-99.22 410.6,-94.06 400.15,-92.32 401.35,-99.22"/>
<text xml:space="preserve" text-anchor="middle" x="321.38" y="-131.24" font-family="Helvetica,sans-Serif" font-size="9.00">optional listing_id scope</text>
</g>
<!-- Media -->
<g id="node10" class="node">
<title>Media</title>
<path fill="none" stroke="black" d="M475.25,-212.79C475.25,-212.79 445.25,-212.79 445.25,-212.79 439.25,-212.79 433.25,-206.79 433.25,-200.79 433.25,-200.79 433.25,-188.79 433.25,-188.79 433.25,-182.79 439.25,-176.79 445.25,-176.79 445.25,-176.79 475.25,-176.79 475.25,-176.79 481.25,-176.79 487.25,-182.79 487.25,-188.79 487.25,-188.79 487.25,-200.79 487.25,-200.79 487.25,-206.79 481.25,-212.79 475.25,-212.79"/>
<text xml:space="preserve" text-anchor="middle" x="460.25" y="-188.99" font-family="Helvetica,sans-Serif" font-size="14.00">Media</text>
</g>
<!-- Listing&#45;&gt;Media -->
<g id="edge13" class="edge">
<title>Listing&#45;&gt;Media</title>
<path fill="none" stroke="black" d="M231.06,-165.25C276.61,-171.15 369.25,-183.14 421.39,-189.89"/>
<polygon fill="black" stroke="black" points="420.93,-193.36 431.3,-191.17 421.83,-186.41 420.93,-193.36"/>
<text xml:space="preserve" text-anchor="middle" x="321.38" y="-185.31" font-family="Helvetica,sans-Serif" font-size="9.00">attachments metadata</text>
</g>
<!-- Trust -->
<g id="node11" class="node">
<title>Trust</title>
<path fill="none" stroke="black" d="M475.25,-158.79C475.25,-158.79 445.25,-158.79 445.25,-158.79 439.25,-158.79 433.25,-152.79 433.25,-146.79 433.25,-146.79 433.25,-134.79 433.25,-134.79 433.25,-128.79 439.25,-122.79 445.25,-122.79 445.25,-122.79 475.25,-122.79 475.25,-122.79 481.25,-122.79 487.25,-128.79 487.25,-134.79 487.25,-134.79 487.25,-146.79 487.25,-146.79 487.25,-152.79 481.25,-158.79 475.25,-158.79"/>
<text xml:space="preserve" text-anchor="middle" x="460.25" y="-134.99" font-family="Helvetica,sans-Serif" font-size="14.00">Trust</text>
</g>
<!-- Listing&#45;&gt;Trust -->
<g id="edge14" class="edge">
<title>Listing&#45;&gt;Trust</title>
<path fill="none" stroke="#555555" stroke-dasharray="5,2" d="M231.01,-156.93C241.7,-155.15 254.15,-153.26 265.5,-152.04 319.54,-146.18 382.4,-143.24 421.52,-141.86"/>
<polygon fill="#555555" stroke="#555555" points="421.47,-145.36 431.34,-141.53 421.23,-138.37 421.47,-145.36"/>
<text xml:space="preserve" text-anchor="middle" x="321.38" y="-153.24" font-family="Helvetica,sans-Serif" font-size="9.00">Kafka: flagged / moderation</text>
</g>
<!-- Review -->
<g id="node4" class="node">
<title>Review</title>
<path fill="none" stroke="black" d="M736.25,-354.79C736.25,-354.79 700,-354.79 700,-354.79 694,-354.79 688,-348.79 688,-342.79 688,-342.79 688,-330.79 688,-330.79 688,-324.79 694,-318.79 700,-318.79 700,-318.79 736.25,-318.79 736.25,-318.79 742.25,-318.79 748.25,-324.79 748.25,-330.79 748.25,-330.79 748.25,-342.79 748.25,-342.79 748.25,-348.79 742.25,-354.79 736.25,-354.79"/>
<text xml:space="preserve" text-anchor="middle" x="718.12" y="-330.99" font-family="Helvetica,sans-Serif" font-size="14.00">Review</text>
</g>
<!-- Booking&#45;&gt;Review -->
<g id="edge5" class="edge">
<title>Booking&#45;&gt;Review</title>
<path fill="none" stroke="black" d="M492.88,-306.99C539.15,-313.14 625.31,-324.59 676.3,-331.36"/>
<polygon fill="black" stroke="black" points="675.67,-334.81 686.04,-332.66 676.59,-327.87 675.67,-334.81"/>
<text xml:space="preserve" text-anchor="middle" x="601" y="-329.77" font-family="Helvetica,sans-Serif" font-size="9.00">may yield reputation change</text>
</g>
<!-- Notification -->
<g id="node6" class="node">
<title>Notification</title>
<path fill="none" stroke="black" d="M747.5,-293.79C747.5,-293.79 688.75,-293.79 688.75,-293.79 682.75,-293.79 676.75,-287.79 676.75,-281.79 676.75,-281.79 676.75,-269.79 676.75,-269.79 676.75,-263.79 682.75,-257.79 688.75,-257.79 688.75,-257.79 747.5,-257.79 747.5,-257.79 753.5,-257.79 759.5,-263.79 759.5,-269.79 759.5,-269.79 759.5,-281.79 759.5,-281.79 759.5,-287.79 753.5,-293.79 747.5,-293.79"/>
<text xml:space="preserve" text-anchor="middle" x="718.12" y="-269.99" font-family="Helvetica,sans-Serif" font-size="14.00">Notification</text>
</g>
<!-- Booking&#45;&gt;Notification -->
<g id="edge8" class="edge">
<title>Booking&#45;&gt;Notification</title>
<path fill="none" stroke="black" d="M492.88,-299.45C535.89,-294.91 613.37,-286.73 665.03,-281.28"/>
<polygon fill="black" stroke="black" points="665.2,-284.78 674.78,-280.25 664.47,-277.82 665.2,-284.78"/>
<text xml:space="preserve" text-anchor="middle" x="601" y="-296.75" font-family="Helvetica,sans-Serif" font-size="9.00">events → notify</text>
</g>
<!-- Booking&#45;&gt;Notification -->
<g id="edge16" class="edge">
<title>Booking&#45;&gt;Notification</title>
<path fill="none" stroke="#555555" stroke-dasharray="5,2" d="M492.81,-289.51C513.61,-280.89 537.94,-271.06 543.25,-270.04 583.62,-262.27 630.22,-264.39 665,-268.08"/>
<polygon fill="#555555" stroke="#555555" points="664.49,-271.54 674.82,-269.2 665.28,-264.58 664.49,-271.54"/>
<text xml:space="preserve" text-anchor="middle" x="601" y="-271.24" font-family="Helvetica,sans-Serif" font-size="9.00">Kafka: outbox</text>
</g>
<!-- Conversation&#45;&gt;Message -->
<g id="edge11" class="edge">
<title>Conversation&#45;&gt;Message</title>
<path fill="none" stroke="black" d="M508.48,-74.6C554.81,-62.65 624.99,-44.55 670.95,-32.69"/>
<polygon fill="black" stroke="black" points="671.81,-36.09 680.62,-30.2 670.06,-29.31 671.81,-36.09"/>
<text xml:space="preserve" text-anchor="middle" x="601" y="-66.64" font-family="Helvetica,sans-Serif" font-size="9.00">contains</text>
</g>
<!-- Analytics -->
<g id="node12" class="node">
<title>Analytics</title>
<path fill="none" stroke="black" d="M938.25,-38.79C938.25,-38.79 892.25,-38.79 892.25,-38.79 886.25,-38.79 880.25,-32.79 880.25,-26.79 880.25,-26.79 880.25,-14.79 880.25,-14.79 880.25,-8.79 886.25,-2.79 892.25,-2.79 892.25,-2.79 938.25,-2.79 938.25,-2.79 944.25,-2.79 950.25,-8.79 950.25,-14.79 950.25,-14.79 950.25,-26.79 950.25,-26.79 950.25,-32.79 944.25,-38.79 938.25,-38.79"/>
<text xml:space="preserve" text-anchor="middle" x="915.25" y="-14.99" font-family="Helvetica,sans-Serif" font-size="14.00">Analytics</text>
</g>
<!-- Message&#45;&gt;Analytics -->
<g id="edge15" class="edge">
<title>Message&#45;&gt;Analytics</title>
<path fill="none" stroke="#555555" stroke-dasharray="5,2" d="M754.01,-20.79C786.02,-20.79 833.63,-20.79 868.65,-20.79"/>
<polygon fill="#555555" stroke="#555555" points="868.48,-24.29 878.48,-20.79 868.48,-17.29 868.48,-24.29"/>
<text xml:space="preserve" text-anchor="middle" x="819.88" y="-21.99" font-family="Helvetica,sans-Serif" font-size="9.00">Kafka: message.sent</text>
</g>
</g>
</svg>
