<?xml version="1.0" encoding="UTF-8" standalone="no"?>
<!DOCTYPE svg PUBLIC "-//W3C//DTD SVG 1.1//EN"
 "http://www.w3.org/Graphics/SVG/1.1/DTD/svg11.dtd">
<!-- Generated by graphviz version 14.1.4 (20260321.0153)
 -->
<!-- Title: unified_logical_er Pages: 1 -->
<svg width="913pt" height="819pt"
 viewBox="0.00 0.00 913.00 819.00" xmlns="http://www.w3.org/2000/svg" xmlns:xlink="http://www.w3.org/1999/xlink">
<g id="graph0" class="graph" transform="scale(1 1) rotate(0) translate(4 814.53)">
<title>unified_logical_er</title>
<polygon fill="white" stroke="none" points="-4,4 -4,-814.53 908.5,-814.53 908.5,4 -4,4"/>
<text xml:space="preserve" text-anchor="middle" x="452.25" y="-797.03" font-family="Helvetica,sans-Serif" font-size="10.00">Unified logical ER — system data model (not one physical database)</text>
<text xml:space="preserve" text-anchor="middle" x="452.25" y="-785.78" font-family="Helvetica,sans-Serif" font-size="10.00">Solid = same&#45;service or documented logical reference | Dashed = async/event | Dotted = projection/event → read model</text>
<g id="clust1" class="cluster">
<title>cluster_auth</title>
<polygon fill="#cce5ff" stroke="#666666" points="8,-160 8,-398 117.25,-398 117.25,-160 8,-160"/>
<text xml:space="preserve" text-anchor="middle" x="62.62" y="-384.5" font-family="Helvetica,sans-Serif" font-size="10.00">Auth</text>
</g>
<g id="clust2" class="cluster">
<title>cluster_listings</title>
<polygon fill="#ccffcc" stroke="#666666" points="222.75,-215 222.75,-343 559.88,-343 559.88,-215 222.75,-215"/>
<text xml:space="preserve" text-anchor="middle" x="391.31" y="-329.5" font-family="Helvetica,sans-Serif" font-size="10.00">Listings</text>
</g>
<g id="clust3" class="cluster">
<title>cluster_bookings</title>
<polygon fill="#ffddaa" stroke="#666666" points="444.25,-79 444.25,-207 564,-207 564,-79 444.25,-79"/>
<text xml:space="preserve" text-anchor="middle" x="504.12" y="-193.5" font-family="Helvetica,sans-Serif" font-size="10.00">Bookings</text>
</g>
<g id="clust4" class="cluster">
<title>cluster_messaging</title>
<polygon fill="#e6ccff" stroke="#666666" points="444.25,-640 444.25,-768 849.62,-768 849.62,-640 444.25,-640"/>
<text xml:space="preserve" text-anchor="middle" x="646.94" y="-754.5" font-family="Helvetica,sans-Serif" font-size="10.00">Messaging</text>
</g>
<g id="clust5" class="cluster">
<title>cluster_trust</title>
<polygon fill="#ffcccc" stroke="#666666" points="731.75,-247 731.75,-485 873.25,-485 873.25,-247 731.75,-247"/>
<text xml:space="preserve" text-anchor="middle" x="802.5" y="-471.5" font-family="Helvetica,sans-Serif" font-size="10.00">Trust</text>
</g>
<g id="clust6" class="cluster">
<title>cluster_notification</title>
<polygon fill="#fff9c4" stroke="#666666" points="742.62,-8 742.62,-136 862.38,-136 862.38,-8 742.62,-8"/>
<text xml:space="preserve" text-anchor="middle" x="802.5" y="-122.5" font-family="Helvetica,sans-Serif" font-size="10.00">Notification</text>
</g>
<g id="clust7" class="cluster">
<title>cluster_analytics</title>
<polygon fill="#e8e8e8" stroke="#666666" points="448.38,-559 448.38,-632 896.5,-632 896.5,-559 448.38,-559"/>
<text xml:space="preserve" text-anchor="middle" x="672.44" y="-618.5" font-family="Helvetica,sans-Serif" font-size="10.00">Analytics</text>
</g>
<g id="clust8" class="cluster">
<title>cluster_media</title>
<polygon fill="#b2dfdb" stroke="#666666" points="448,-351 448,-424 560.25,-424 560.25,-351 448,-351"/>
<text xml:space="preserve" text-anchor="middle" x="504.12" y="-410.5" font-family="Helvetica,sans-Serif" font-size="10.00">Media</text>
</g>
<!-- users -->
<g id="node1" class="node">
<title>users</title>
<polygon fill="#ffffff" stroke="#333333" points="35.62,-169 35.62,-205 89.62,-205 89.62,-169 35.62,-169"/>
<text xml:space="preserve" text-anchor="middle" x="62.62" y="-181.2" font-family="Helvetica,sans-Serif" font-size="14.00">users</text>
</g>
<!-- listings -->
<g id="node5" class="node">
<title>listings</title>
<polygon fill="#ffffff" stroke="#333333" points="254,-224 254,-260 311.25,-260 311.25,-224 254,-224"/>
<text xml:space="preserve" text-anchor="middle" x="282.62" y="-236.2" font-family="Helvetica,sans-Serif" font-size="14.00">listings</text>
</g>
<!-- users&#45;&gt;listings -->
<g id="edge1" class="edge">
<title>users&#45;&gt;listings</title>
<path fill="none" stroke="black" d="M89.92,-193.63C127.86,-203.21 198.24,-220.96 242.36,-232.09"/>
<polygon fill="black" stroke="black" points="241.49,-235.48 252.05,-234.54 243.21,-228.7 241.49,-235.48"/>
<text xml:space="preserve" text-anchor="middle" x="170" y="-225.61" font-family="Helvetica,sans-Serif" font-size="8.00">owner / user_id (logical)</text>
</g>
<!-- bookings -->
<g id="node8" class="node">
<title>bookings</title>
<polygon fill="#ffffff" stroke="#333333" points="469.12,-143 469.12,-179 539.12,-179 539.12,-143 469.12,-143"/>
<text xml:space="preserve" text-anchor="middle" x="504.12" y="-155.2" font-family="Helvetica,sans-Serif" font-size="14.00">bookings</text>
</g>
<!-- users&#45;&gt;bookings -->
<g id="edge3" class="edge">
<title>users&#45;&gt;bookings</title>
<path fill="none" stroke="black" d="M89.89,-180.97C101.34,-178.41 114.94,-175.45 127.25,-173 169.53,-164.59 179.81,-159.79 222.75,-156 272.22,-151.63 284.84,-155.26 334.5,-156 376.15,-156.62 423.57,-158.09 457.49,-159.28"/>
<polygon fill="black" stroke="black" points="457.27,-162.78 467.39,-159.63 457.52,-155.78 457.27,-162.78"/>
<text xml:space="preserve" text-anchor="middle" x="282.62" y="-157.4" font-family="Helvetica,sans-Serif" font-size="8.00">tenant_id (logical)</text>
</g>
<!-- users&#45;&gt;bookings -->
<g id="edge4" class="edge">
<title>users&#45;&gt;bookings</title>
<path fill="none" stroke="black" d="M89.75,-186.78C150.39,-186.07 305.36,-183.11 434.25,-171 441.85,-170.29 449.89,-169.32 457.69,-168.26"/>
<polygon fill="black" stroke="black" points="457.97,-171.76 467.38,-166.88 456.98,-164.83 457.97,-171.76"/>
<text xml:space="preserve" text-anchor="middle" x="282.62" y="-184.88" font-family="Helvetica,sans-Serif" font-size="8.00">landlord_id (logical)</text>
</g>
<!-- messages -->
<g id="node11" class="node">
<title>messages</title>
<polygon fill="#ffffff" stroke="#333333" points="763.38,-704 763.38,-740 841.62,-740 841.62,-704 763.38,-704"/>
<text xml:space="preserve" text-anchor="middle" x="802.5" y="-716.2" font-family="Helvetica,sans-Serif" font-size="14.00">messages</text>
</g>
<!-- users&#45;&gt;messages -->
<g id="edge9" class="edge">
<title>users&#45;&gt;messages</title>
<path fill="none" stroke="black" d="M89.95,-196.5C99.48,-200.96 109.74,-207.07 117.25,-215 124.63,-222.8 122.19,-227.52 127.25,-237 253.4,-473.47 210.16,-619.48 444.25,-750 542.45,-804.75 680.04,-768.25 752.47,-742.04"/>
<polygon fill="black" stroke="black" points="753.52,-745.39 761.67,-738.63 751.08,-738.82 753.52,-745.39"/>
<text xml:space="preserve" text-anchor="middle" x="393.38" y="-745.36" font-family="Helvetica,sans-Serif" font-size="8.00">sender (logical)</text>
</g>
<!-- abuse_reports -->
<g id="node14" class="node">
<title>abuse_reports</title>
<polygon fill="#ffffff" stroke="#333333" points="751.38,-256 751.38,-292 853.62,-292 853.62,-256 751.38,-256"/>
<text xml:space="preserve" text-anchor="middle" x="802.5" y="-268.2" font-family="Helvetica,sans-Serif" font-size="14.00">abuse_reports</text>
</g>
<!-- users&#45;&gt;abuse_reports -->
<g id="edge11" class="edge">
<title>users&#45;&gt;abuse_reports</title>
<path fill="none" stroke="black" d="M90.08,-170.79C165.75,-126.58 388.94,-11.35 564,-75 659.07,-109.56 742.62,-200.72 780.28,-246.68"/>
<polygon fill="black" stroke="black" points="777.44,-248.74 786.44,-254.33 782.89,-244.35 777.44,-248.74"/>
<text xml:space="preserve" text-anchor="middle" x="393.38" y="-67.23" font-family="Helvetica,sans-Serif" font-size="8.00">reporter (logical)</text>
</g>
<!-- sessions -->
<g id="node2" class="node">
<title>sessions</title>
<polygon fill="#ffffff" stroke="#333333" points="28.38,-224 28.38,-260 96.88,-260 96.88,-224 28.38,-224"/>
<text xml:space="preserve" text-anchor="middle" x="62.62" y="-236.2" font-family="Helvetica,sans-Serif" font-size="14.00">sessions</text>
</g>
<!-- passkeys -->
<g id="node3" class="node">
<title>passkeys</title>
<polygon fill="#ffffff" stroke="#333333" points="26.5,-279 26.5,-315 98.75,-315 98.75,-279 26.5,-279"/>
<text xml:space="preserve" text-anchor="middle" x="62.62" y="-291.2" font-family="Helvetica,sans-Serif" font-size="14.00">passkeys</text>
</g>
<!-- mfa_settings -->
<g id="node4" class="node">
<title>mfa_settings</title>
<polygon fill="#ffffff" stroke="#333333" points="16,-334 16,-370 109.25,-370 109.25,-334 16,-334"/>
<text xml:space="preserve" text-anchor="middle" x="62.62" y="-346.2" font-family="Helvetica,sans-Serif" font-size="14.00">mfa_settings</text>
</g>
<!-- listing_media_ref -->
<g id="node6" class="node">
<title>listing_media_ref</title>
<polygon fill="#ffffff" stroke="#333333" points="456.38,-234 456.38,-270 551.88,-270 551.88,-234 456.38,-234"/>
<text xml:space="preserve" text-anchor="middle" x="504.12" y="-246.2" font-family="Helvetica,sans-Serif" font-size="14.00">listing_media</text>
</g>
<!-- listings&#45;&gt;listing_media_ref -->
<g id="edge6" class="edge">
<title>listings&#45;&gt;listing_media_ref</title>
<path fill="none" stroke="black" d="M311.42,-243.27C344.71,-244.78 401.36,-247.36 444.48,-249.33"/>
<polygon fill="black" stroke="black" points="444.3,-252.82 454.45,-249.78 444.62,-245.83 444.3,-252.82"/>
<text xml:space="preserve" text-anchor="middle" x="393.38" y="-250.17" font-family="Helvetica,sans-Serif" font-size="8.00">listing_id</text>
</g>
<!-- listings&#45;&gt;bookings -->
<g id="edge2" class="edge">
<title>listings&#45;&gt;bookings</title>
<path fill="none" stroke="black" d="M311.7,-235.66C342.41,-228.31 392.78,-214.98 434.25,-198 443.56,-194.19 453.25,-189.48 462.32,-184.72"/>
<polygon fill="black" stroke="black" points="463.78,-187.91 470.92,-180.08 460.45,-181.75 463.78,-187.91"/>
<text xml:space="preserve" text-anchor="middle" x="393.38" y="-226.3" font-family="Helvetica,sans-Serif" font-size="8.00">listing_id (logical)</text>
</g>
<!-- conversations -->
<g id="node10" class="node">
<title>conversations</title>
<polygon fill="#ffffff" stroke="#333333" points="454.5,-704 454.5,-740 553.75,-740 553.75,-704 454.5,-704"/>
<text xml:space="preserve" text-anchor="middle" x="504.12" y="-716.2" font-family="Helvetica,sans-Serif" font-size="14.00">conversations</text>
</g>
<!-- listings&#45;&gt;conversations -->
<g id="edge7" class="edge">
<title>listings&#45;&gt;conversations</title>
<path fill="none" stroke="black" d="M311.65,-251.39C320.36,-255.7 329.08,-261.74 334.5,-270 358.23,-306.21 342.41,-421.9 352.5,-464 378.25,-571.42 368.19,-614.89 444.25,-695 444.72,-695.5 445.2,-695.99 445.7,-696.47"/>
<polygon fill="black" stroke="black" points="443.29,-699.02 453.27,-702.59 447.7,-693.58 443.29,-699.02"/>
<text xml:space="preserve" text-anchor="middle" x="393.38" y="-682.35" font-family="Helvetica,sans-Serif" font-size="8.00">listing scope (optional)</text>
</g>
<!-- listings&#45;&gt;abuse_reports -->
<g id="edge10" class="edge">
<title>listings&#45;&gt;abuse_reports</title>
<path fill="none" stroke="black" d="M311.62,-252.05C320.11,-256.36 328.72,-262.24 334.5,-270 357.06,-300.26 332.79,-320.81 352.5,-353 380.01,-397.91 394.64,-410.3 444.25,-428 494.38,-445.88 513.92,-446.01 564,-428 646.73,-398.24 639.53,-344.49 716.5,-302 723.97,-297.88 732.15,-294.23 740.39,-291.05"/>
<polygon fill="black" stroke="black" points="741.56,-294.35 749.78,-287.65 739.18,-287.77 741.56,-294.35"/>
<text xml:space="preserve" text-anchor="middle" x="504.12" y="-442.86" font-family="Helvetica,sans-Serif" font-size="8.00">flag target (logical)</text>
</g>
<!-- media_objects -->
<g id="node21" class="node">
<title>media_objects</title>
<polygon fill="#ffffff" stroke="#333333" points="456,-360 456,-396 552.25,-396 552.25,-360 456,-360"/>
<text xml:space="preserve" text-anchor="middle" x="504.12" y="-372.2" font-family="Helvetica,sans-Serif" font-size="14.00">media assets</text>
</g>
<!-- listings&#45;&gt;media_objects -->
<g id="edge12" class="edge">
<title>listings&#45;&gt;media_objects</title>
<path fill="none" stroke="black" d="M311.66,-256.72C319.18,-260.86 327.23,-265.47 334.5,-270 385.06,-301.52 393.4,-315.95 444.25,-347 448.19,-349.4 452.33,-351.81 456.52,-354.17"/>
<polygon fill="black" stroke="black" points="454.51,-357.06 464.96,-358.8 457.88,-350.92 454.51,-357.06"/>
<text xml:space="preserve" text-anchor="middle" x="393.38" y="-341.25" font-family="Helvetica,sans-Serif" font-size="8.00">attachment ref (logical)</text>
</g>
<!-- listings_outbox -->
<g id="node7" class="node">
<title>listings_outbox</title>
<polygon fill="#ffffff" stroke="#333333" points="230.75,-279 230.75,-315 334.5,-315 334.5,-279 230.75,-279"/>
<text xml:space="preserve" text-anchor="middle" x="282.62" y="-291.2" font-family="Helvetica,sans-Serif" font-size="14.00">outbox_events</text>
</g>
<!-- trust_processed -->
<g id="node16" class="node">
<title>trust_processed</title>
<polygon fill="#ffffff" stroke="#333333" points="739.75,-421 739.75,-457 865.25,-457 865.25,-421 739.75,-421"/>
<text xml:space="preserve" text-anchor="middle" x="802.5" y="-433.2" font-family="Helvetica,sans-Serif" font-size="14.00">processed_events</text>
</g>
<!-- listings_outbox&#45;&gt;trust_processed -->
<g id="edge14" class="edge">
<title>listings_outbox&#45;&gt;trust_processed</title>
<path fill="none" stroke="black" stroke-dasharray="5,2" d="M292.17,-315.21C303.45,-337.77 325.14,-376.36 352.5,-402 386.7,-434.05 400.33,-437.63 444.25,-454 550.69,-493.66 586.94,-501.39 698.5,-480 717.6,-476.34 737.66,-469.18 754.96,-461.86"/>
<polygon fill="black" stroke="black" points="756.2,-465.14 763.95,-457.91 753.39,-458.73 756.2,-465.14"/>
<text xml:space="preserve" text-anchor="middle" x="504.12" y="-490.35" font-family="Helvetica,sans-Serif" font-size="8.00">listing.flagged etc.</text>
</g>
<!-- analytics_projections -->
<g id="node20" class="node">
<title>analytics_projections</title>
<polygon fill="#ffffff" stroke="#333333" points="716.5,-568 716.5,-604 888.5,-604 888.5,-568 716.5,-568"/>
<text xml:space="preserve" text-anchor="middle" x="802.5" y="-580.2" font-family="Helvetica,sans-Serif" font-size="14.00">daily_metrics / projections</text>
</g>
<!-- listings_outbox&#45;&gt;analytics_projections -->
<g id="edge17" class="edge">
<title>listings_outbox&#45;&gt;analytics_projections</title>
<path fill="none" stroke="black" stroke-dasharray="1,5" d="M282.94,-315.44C282.41,-359.64 287.81,-471.98 352.5,-526 388.81,-556.32 517.11,-543.79 564,-550 610.4,-556.15 661.75,-563.82 704.81,-570.5"/>
<polygon fill="black" stroke="black" points="704.23,-573.96 714.65,-572.04 705.3,-567.04 704.23,-573.96"/>
<text xml:space="preserve" text-anchor="middle" x="504.12" y="-551.4" font-family="Helvetica,sans-Serif" font-size="8.00">listing events</text>
</g>
<!-- reviews -->
<g id="node13" class="node">
<title>reviews</title>
<polygon fill="#ffffff" stroke="#333333" points="771.62,-311 771.62,-347 833.38,-347 833.38,-311 771.62,-311"/>
<text xml:space="preserve" text-anchor="middle" x="802.5" y="-323.2" font-family="Helvetica,sans-Serif" font-size="14.00">reviews</text>
</g>
<!-- bookings&#45;&gt;reviews -->
<g id="edge5" class="edge">
<title>bookings&#45;&gt;reviews</title>
<path fill="none" stroke="black" d="M527.91,-179.37C565.31,-208.76 642.94,-266.66 716.5,-302 730.27,-308.61 746.04,-314.14 760.24,-318.43"/>
<polygon fill="black" stroke="black" points="759.18,-321.77 769.76,-321.19 761.12,-315.05 759.18,-321.77"/>
<text xml:space="preserve" text-anchor="middle" x="636.25" y="-294.16" font-family="Helvetica,sans-Serif" font-size="8.00">booking_id (logical)</text>
</g>
<!-- booking_outbox -->
<g id="node9" class="node">
<title>booking_outbox</title>
<polygon fill="#ffffff" stroke="#333333" points="452.25,-88 452.25,-124 556,-124 556,-88 452.25,-88"/>
<text xml:space="preserve" text-anchor="middle" x="504.12" y="-100.2" font-family="Helvetica,sans-Serif" font-size="14.00">outbox_events</text>
</g>
<!-- notifications -->
<g id="node17" class="node">
<title>notifications</title>
<polygon fill="#ffffff" stroke="#333333" points="758.88,-17 758.88,-53 846.12,-53 846.12,-17 758.88,-17"/>
<text xml:space="preserve" text-anchor="middle" x="802.5" y="-29.2" font-family="Helvetica,sans-Serif" font-size="14.00">notifications</text>
</g>
<!-- booking_outbox&#45;&gt;notifications -->
<g id="edge13" class="edge">
<title>booking_outbox&#45;&gt;notifications</title>
<path fill="none" stroke="black" stroke-dasharray="5,2" d="M556.41,-93.71C609.77,-80.93 692.99,-60.99 747.38,-47.96"/>
<polygon fill="black" stroke="black" points="748.15,-51.38 757.06,-45.65 746.52,-44.57 748.15,-51.38"/>
<text xml:space="preserve" text-anchor="middle" x="636.25" y="-90.24" font-family="Helvetica,sans-Serif" font-size="8.00">BookingConfirmed / domain events</text>
</g>
<!-- booking_outbox&#45;&gt;analytics_projections -->
<g id="edge16" class="edge">
<title>booking_outbox&#45;&gt;analytics_projections</title>
<path fill="none" stroke="black" stroke-dasharray="1,5" d="M555,-124.36C558.45,-127.14 561.54,-130.34 564,-134 585.38,-165.76 560.52,-270.17 574,-306 610.3,-402.48 650.84,-409.54 716.5,-489 736.45,-513.14 759.97,-539.85 777.2,-559.12"/>
<polygon fill="black" stroke="black" points="774.59,-561.45 783.87,-566.55 779.8,-556.77 774.59,-561.45"/>
<text xml:space="preserve" text-anchor="middle" x="636.25" y="-468.57" font-family="Helvetica,sans-Serif" font-size="8.00">booking lifecycle</text>
</g>
<!-- conversations&#45;&gt;messages -->
<g id="edge8" class="edge">
<title>conversations&#45;&gt;messages</title>
<path fill="none" stroke="black" d="M554.07,-722C608.71,-722 696.67,-722 751.67,-722"/>
<polygon fill="black" stroke="black" points="751.37,-725.5 761.37,-722 751.37,-718.5 751.37,-725.5"/>
<text xml:space="preserve" text-anchor="middle" x="636.25" y="-723.4" font-family="Helvetica,sans-Serif" font-size="8.00">thread</text>
</g>
<!-- messaging_outbox -->
<g id="node12" class="node">
<title>messaging_outbox</title>
<polygon fill="#ffffff" stroke="#333333" points="452.25,-649 452.25,-685 556,-685 556,-649 452.25,-649"/>
<text xml:space="preserve" text-anchor="middle" x="504.12" y="-661.2" font-family="Helvetica,sans-Serif" font-size="14.00">outbox_events</text>
</g>
<!-- messaging_outbox&#45;&gt;analytics_projections -->
<g id="edge15" class="edge">
<title>messaging_outbox&#45;&gt;analytics_projections</title>
<path fill="none" stroke="black" stroke-dasharray="5,2" d="M556.41,-652.98C602.27,-640.45 670.18,-621.89 722.9,-607.48"/>
<polygon fill="black" stroke="black" points="723.72,-610.89 732.44,-604.87 721.87,-604.13 723.72,-610.89"/>
<text xml:space="preserve" text-anchor="middle" x="636.25" y="-648.83" font-family="Helvetica,sans-Serif" font-size="8.00">message.sent</text>
</g>
<!-- trust_outbox -->
<g id="node15" class="node">
<title>trust_outbox</title>
<polygon fill="#ffffff" stroke="#333333" points="750.62,-366 750.62,-402 854.38,-402 854.38,-366 750.62,-366"/>
<text xml:space="preserve" text-anchor="middle" x="802.5" y="-378.2" font-family="Helvetica,sans-Serif" font-size="14.00">outbox_events</text>
</g>
<!-- notification_outbox -->
<g id="node18" class="node">
<title>notification_outbox</title>
<polygon fill="#ffffff" stroke="#333333" points="750.62,-72 750.62,-108 854.38,-108 854.38,-72 750.62,-72"/>
<text xml:space="preserve" text-anchor="middle" x="802.5" y="-84.2" font-family="Helvetica,sans-Serif" font-size="14.00">outbox_events</text>
</g>
<!-- analytics_events -->
<g id="node19" class="node">
<title>analytics_events</title>
<polygon fill="#ffffff" stroke="#333333" points="456.38,-568 456.38,-604 551.88,-604 551.88,-568 456.38,-568"/>
<text xml:space="preserve" text-anchor="middle" x="504.12" y="-580.2" font-family="Helvetica,sans-Serif" font-size="14.00">events / facts</text>
</g>
<!-- analytics_events&#45;&gt;analytics_projections -->
<g id="edge18" class="edge">
<title>analytics_events&#45;&gt;analytics_projections</title>
<path fill="none" stroke="black" d="M552.09,-586C592.98,-586 653.58,-586 704.8,-586"/>
<polygon fill="black" stroke="black" points="704.74,-589.5 714.74,-586 704.74,-582.5 704.74,-589.5"/>
<text xml:space="preserve" text-anchor="middle" x="636.25" y="-587.4" font-family="Helvetica,sans-Serif" font-size="8.00">rollup / ETL</text>
</g>
</g>
</svg>
