<svg xmlns="http://www.w3.org/2000/svg" width="568" height="360">
<style>text{font-family:Arial,sans-serif;font-size:11px}.label{font-size:10px}</style>
<text x="20" y="18" font-size="14">Per-service latency (avg ms): HTTP/2 vs HTTP/3</text>
<line x1="80" y1="30" x2="80" y2="290" stroke="#444"/>
<line x1="80" y1="290" x2="548" y2="290" stroke="#444"/>
<line x1="80" y1="290" x2="548" y2="290" stroke="#eee"/>
<text x="10" y="294" class="label">0ms</text>
<line x1="80" y1="228" x2="548" y2="228" stroke="#eee"/>
<text x="10" y="232" class="label">93ms</text>
<line x1="80" y1="166" x2="548" y2="166" stroke="#eee"/>
<text x="10" y="170" class="label">186ms</text>
<line x1="80" y1="104" x2="548" y2="104" stroke="#eee"/>
<text x="10" y="108" class="label">279ms</text>
<line x1="80" y1="40" x2="548" y2="40" stroke="#eee"/>
<text x="10" y="44" class="label">373ms</text>
<rect x="90" y="250" width="18" height="40" fill="#4e79a7"/>
<rect x="112" y="247" width="18" height="43" fill="#f28e2b"/>
<text x="90" y="304" class="label">analyti</text>
<rect x="146" y="40" width="18" height="250" fill="#4e79a7"/>
<rect x="168" y="165" width="18" height="125" fill="#f28e2b"/>
<text x="146" y="304" class="label">auth</text>
<rect x="202" y="221" width="18" height="69" fill="#4e79a7"/>
<rect x="224" y="245" width="18" height="45" fill="#f28e2b"/>
<text x="202" y="304" class="label">booking</text>
<rect x="258" y="277" width="18" height="13" fill="#4e79a7"/>
<rect x="280" y="213" width="18" height="77" fill="#f28e2b"/>
<text x="258" y="304" class="label">gateway</text>
<rect x="314" y="268" width="18" height="22" fill="#4e79a7"/>
<rect x="336" y="201" width="18" height="89" fill="#f28e2b"/>
<text x="314" y="304" class="label">listing</text>
<rect x="370" y="276" width="18" height="14" fill="#4e79a7"/>
<rect x="392" y="221" width="18" height="69" fill="#f28e2b"/>
<text x="370" y="304" class="label">media</text>
<rect x="426" y="81" width="18" height="209" fill="#4e79a7"/>
<rect x="448" y="250" width="18" height="40" fill="#f28e2b"/>
<text x="426" y="304" class="label">messagi</text>
<rect x="482" y="256" width="18" height="34" fill="#4e79a7"/>
<rect x="504" y="252" width="18" height="38" fill="#f28e2b"/>
<text x="482" y="304" class="label">trust</text>
<rect x="80" y="320" width="12" height="12" fill="#4e79a7"/><text x="98" y="330" class="label">HTTP/2</text>
<rect x="170" y="320" width="12" height="12" fill="#f28e2b"/><text x="188" y="330" class="label">HTTP/3</text>
</svg>