<?xml version="1.0" encoding="UTF-8" standalone="no"?>
<!DOCTYPE svg PUBLIC "-//W3C//DTD SVG 1.1//EN"
 "http://www.w3.org/Graphics/SVG/1.1/DTD/svg11.dtd">
<!-- Generated by graphviz version 14.1.4 (20260321.0153)
 -->
<!-- Title: dataflow Pages: 1 -->
<svg width="1130pt" height="674pt"
 viewBox="0.00 0.00 1130.00 674.00" xmlns="http://www.w3.org/2000/svg" xmlns:xlink="http://www.w3.org/1999/xlink">
<g id="graph0" class="graph" transform="scale(1 1) rotate(0) translate(4 670)">
<title>dataflow</title>
<polygon fill="white" stroke="none" points="-4,4 -4,-670 1125.68,-670 1125.68,4 -4,4"/>
<text xml:space="preserve" text-anchor="middle" x="560.84" y="-651.55" font-family="Helvetica,sans-Serif" font-size="11.00">Cross&#45;service data flow (HTTP/gRPC + Kafka + OTEL + Prometheus + Ollama)</text>
<g id="clust1" class="cluster">
<title>cluster_edge</title>
<path fill="none" stroke="black" d="M20,-296C20,-296 390.93,-296 390.93,-296 396.93,-296 402.93,-302 402.93,-308 402.93,-308 402.93,-356 402.93,-356 402.93,-362 396.93,-368 390.93,-368 390.93,-368 20,-368 20,-368 14,-368 8,-362 8,-356 8,-356 8,-308 8,-308 8,-302 14,-296 20,-296"/>
<text xml:space="preserve" text-anchor="middle" x="205.47" y="-353.55" font-family="Helvetica,sans-Serif" font-size="11.00">Edge</text>
</g>
<g id="clust2" class="cluster">
<title>cluster_svc</title>
<path fill="none" stroke="black" d="M518.18,-134C518.18,-134 604.68,-134 604.68,-134 610.68,-134 616.68,-140 616.68,-146 616.68,-146 616.68,-626 616.68,-626 616.68,-632 610.68,-638 604.68,-638 604.68,-638 518.18,-638 518.18,-638 512.18,-638 506.18,-632 506.18,-626 506.18,-626 506.18,-146 506.18,-146 506.18,-140 512.18,-134 518.18,-134"/>
<text xml:space="preserve" text-anchor="middle" x="561.43" y="-623.55" font-family="Helvetica,sans-Serif" font-size="11.00">Application services</text>
</g>
<g id="clust3" class="cluster">
<title>cluster_llm</title>
<path fill="none" stroke="black" d="M756.31,-125C756.31,-125 834.06,-125 834.06,-125 840.06,-125 846.06,-131 846.06,-137 846.06,-137 846.06,-187 846.06,-187 846.06,-193 840.06,-199 834.06,-199 834.06,-199 756.31,-199 756.31,-199 750.31,-199 744.31,-193 744.31,-187 744.31,-187 744.31,-137 744.31,-137 744.31,-131 750.31,-125 756.31,-125"/>
<text xml:space="preserve" text-anchor="middle" x="795.18" y="-184.55" font-family="Helvetica,sans-Serif" font-size="11.00">Optional LLM</text>
</g>
<g id="clust4" class="cluster">
<title>cluster_data</title>
<path fill="none" stroke="black" d="M710.18,-219C710.18,-219 880.18,-219 880.18,-219 886.18,-219 892.18,-225 892.18,-231 892.18,-231 892.18,-545 892.18,-545 892.18,-551 886.18,-557 880.18,-557 880.18,-557 710.18,-557 710.18,-557 704.18,-557 698.18,-551 698.18,-545 698.18,-545 698.18,-231 698.18,-231 698.18,-225 704.18,-219 710.18,-219"/>
<text xml:space="preserve" text-anchor="middle" x="795.18" y="-542.55" font-family="Helvetica,sans-Serif" font-size="11.00">Data plane</text>
</g>
<g id="clust5" class="cluster">
<title>cluster_kafka_brokers</title>
<polygon fill="#fff8e1" stroke="#f9a825" points="730.03,-227 730.03,-485 860.34,-485 860.34,-227 730.03,-227"/>
<text xml:space="preserve" text-anchor="middle" x="795.18" y="-470.55" font-family="Helvetica,sans-Serif" font-size="11.00">Kafka (KRaft)</text>
</g>
<g id="clust7" class="cluster">
<title>cluster_observe</title>
<path fill="none" stroke="black" d="M1008.18,-8C1008.18,-8 1101.68,-8 1101.68,-8 1107.68,-8 1113.68,-14 1113.68,-20 1113.68,-20 1113.68,-126 1113.68,-126 1113.68,-132 1107.68,-138 1101.68,-138 1101.68,-138 1008.18,-138 1008.18,-138 1002.18,-138 996.18,-132 996.18,-126 996.18,-126 996.18,-20 996.18,-20 996.18,-14 1002.18,-8 1008.18,-8"/>
<text xml:space="preserve" text-anchor="middle" x="1054.93" y="-123.55" font-family="Helvetica,sans-Serif" font-size="11.00">Observability</text>
</g>
<!-- gateway -->
<g id="node1" class="node">
<title>gateway</title>
<path fill="#99ccff" stroke="black" d="M382.93,-340C382.93,-340 311.43,-340 311.43,-340 305.43,-340 299.43,-334 299.43,-328 299.43,-328 299.43,-316 299.43,-316 299.43,-310 305.43,-304 311.43,-304 311.43,-304 382.93,-304 382.93,-304 388.93,-304 394.93,-310 394.93,-316 394.93,-316 394.93,-328 394.93,-328 394.93,-334 388.93,-340 382.93,-340"/>
<text xml:space="preserve" text-anchor="middle" x="347.18" y="-316.2" font-family="Helvetica,sans-Serif" font-size="14.00">API Gateway</text>
</g>
<!-- auth -->
<g id="node3" class="node">
<title>auth</title>
<path fill="#ccffcc" stroke="black" d="M575.93,-556C575.93,-556 545.93,-556 545.93,-556 539.93,-556 533.93,-550 533.93,-544 533.93,-544 533.93,-532 533.93,-532 533.93,-526 539.93,-520 545.93,-520 545.93,-520 575.93,-520 575.93,-520 581.93,-520 587.93,-526 587.93,-532 587.93,-532 587.93,-544 587.93,-544 587.93,-550 581.93,-556 575.93,-556"/>
<text xml:space="preserve" text-anchor="middle" x="560.93" y="-532.2" font-family="Helvetica,sans-Serif" font-size="14.00">Auth</text>
</g>
<!-- gateway&#45;&gt;auth -->
<g id="edge2" class="edge">
<title>gateway&#45;&gt;auth</title>
<path fill="none" stroke="black" d="M358.57,-340.15C370.54,-360.45 391.37,-393.91 412.93,-420 449.83,-464.63 459.03,-477.38 506.18,-511 511.58,-514.84 517.6,-518.44 523.6,-521.68"/>
<polygon fill="black" stroke="black" points="521.73,-524.65 532.23,-526.08 524.91,-518.42 521.73,-524.65"/>
<text xml:space="preserve" text-anchor="middle" x="454.56" y="-514.26" font-family="Helvetica,sans-Serif" font-size="9.00">HTTP/gRPC + OTEL</text>
<text xml:space="preserve" text-anchor="middle" x="454.56" y="-504.51" font-family="Helvetica,sans-Serif" font-size="9.00">(gRPC interceptors)</text>
</g>
<!-- listings -->
<g id="node4" class="node">
<title>listings</title>
<path fill="#ccffcc" stroke="black" d="M579.81,-340C579.81,-340 542.06,-340 542.06,-340 536.06,-340 530.06,-334 530.06,-328 530.06,-328 530.06,-316 530.06,-316 530.06,-310 536.06,-304 542.06,-304 542.06,-304 579.81,-304 579.81,-304 585.81,-304 591.81,-310 591.81,-316 591.81,-316 591.81,-328 591.81,-328 591.81,-334 585.81,-340 579.81,-340"/>
<text xml:space="preserve" text-anchor="middle" x="560.93" y="-316.2" font-family="Helvetica,sans-Serif" font-size="14.00">Listings</text>
</g>
<!-- gateway&#45;&gt;listings -->
<g id="edge3" class="edge">
<title>gateway&#45;&gt;listings</title>
<path fill="none" stroke="black" d="M395.18,-322C432.07,-322 482.94,-322 518.36,-322"/>
<polygon fill="black" stroke="black" points="518.23,-325.5 528.23,-322 518.23,-318.5 518.23,-325.5"/>
<text xml:space="preserve" text-anchor="middle" x="454.56" y="-332.95" font-family="Helvetica,sans-Serif" font-size="9.00">HTTP/gRPC + OTEL</text>
<text xml:space="preserve" text-anchor="middle" x="454.56" y="-323.2" font-family="Helvetica,sans-Serif" font-size="9.00">(gRPC interceptors)</text>
</g>
<!-- bookings -->
<g id="node5" class="node">
<title>bookings</title>
<path fill="#ccffcc" stroke="black" d="M584.68,-286C584.68,-286 537.18,-286 537.18,-286 531.18,-286 525.18,-280 525.18,-274 525.18,-274 525.18,-262 525.18,-262 525.18,-256 531.18,-250 537.18,-250 537.18,-250 584.68,-250 584.68,-250 590.68,-250 596.68,-256 596.68,-262 596.68,-262 596.68,-274 596.68,-274 596.68,-280 590.68,-286 584.68,-286"/>
<text xml:space="preserve" text-anchor="middle" x="560.93" y="-262.2" font-family="Helvetica,sans-Serif" font-size="14.00">Bookings</text>
</g>
<!-- gateway&#45;&gt;bookings -->
<g id="edge4" class="edge">
<title>gateway&#45;&gt;bookings</title>
<path fill="none" stroke="black" d="M395.31,-304.01C401.21,-302.02 407.18,-300.13 412.93,-298.5 446.25,-289.05 484.58,-281.19 513.74,-275.82"/>
<polygon fill="black" stroke="black" points="514.13,-279.31 523.35,-274.09 512.89,-272.42 514.13,-279.31"/>
<text xml:space="preserve" text-anchor="middle" x="454.56" y="-309.45" font-family="Helvetica,sans-Serif" font-size="9.00">HTTP/gRPC + OTEL</text>
<text xml:space="preserve" text-anchor="middle" x="454.56" y="-299.7" font-family="Helvetica,sans-Serif" font-size="9.00">(gRPC interceptors)</text>
</g>
<!-- messaging -->
<g id="node6" class="node">
<title>messaging</title>
<path fill="#ccffcc" stroke="black" d="M589.93,-448C589.93,-448 531.93,-448 531.93,-448 525.93,-448 519.93,-442 519.93,-436 519.93,-436 519.93,-424 519.93,-424 519.93,-418 525.93,-412 531.93,-412 531.93,-412 589.93,-412 589.93,-412 595.93,-412 601.93,-418 601.93,-424 601.93,-424 601.93,-436 601.93,-436 601.93,-442 595.93,-448 589.93,-448"/>
<text xml:space="preserve" text-anchor="middle" x="560.93" y="-424.2" font-family="Helvetica,sans-Serif" font-size="14.00">Messaging</text>
</g>
<!-- gateway&#45;&gt;messaging -->
<g id="edge5" class="edge">
<title>gateway&#45;&gt;messaging</title>
<path fill="none" stroke="black" d="M383.91,-340.42C415.9,-356.89 464.13,-381.66 506.18,-403 508.42,-404.13 510.7,-405.29 513.01,-406.46"/>
<polygon fill="black" stroke="black" points="511.34,-409.53 521.84,-410.91 514.49,-403.28 511.34,-409.53"/>
<text xml:space="preserve" text-anchor="middle" x="454.56" y="-407.43" font-family="Helvetica,sans-Serif" font-size="9.00">HTTP/gRPC + OTEL</text>
<text xml:space="preserve" text-anchor="middle" x="454.56" y="-397.68" font-family="Helvetica,sans-Serif" font-size="9.00">(gRPC interceptors)</text>
</g>
<!-- media -->
<g id="node10" class="node">
<title>media</title>
<path fill="#ccffcc" stroke="black" d="M575.93,-610C575.93,-610 545.93,-610 545.93,-610 539.93,-610 533.93,-604 533.93,-598 533.93,-598 533.93,-586 533.93,-586 533.93,-580 539.93,-574 545.93,-574 545.93,-574 575.93,-574 575.93,-574 581.93,-574 587.93,-580 587.93,-586 587.93,-586 587.93,-598 587.93,-598 587.93,-604 581.93,-610 575.93,-610"/>
<text xml:space="preserve" text-anchor="middle" x="560.93" y="-586.2" font-family="Helvetica,sans-Serif" font-size="14.00">Media</text>
</g>
<!-- gateway&#45;&gt;media -->
<g id="edge6" class="edge">
<title>gateway&#45;&gt;media</title>
<path fill="none" stroke="black" d="M349.06,-340.32C351.86,-379.42 363.64,-471.94 412.93,-527 441.65,-559.08 489.16,-576.1 522.37,-584.56"/>
<polygon fill="black" stroke="black" points="521.45,-587.94 531.99,-586.86 523.08,-581.14 521.45,-587.94"/>
<text xml:space="preserve" text-anchor="middle" x="454.56" y="-586.66" font-family="Helvetica,sans-Serif" font-size="9.00">HTTP/gRPC + OTEL</text>
<text xml:space="preserve" text-anchor="middle" x="454.56" y="-576.91" font-family="Helvetica,sans-Serif" font-size="9.00">(gRPC interceptors)</text>
</g>
<!-- prometheus -->
<g id="node17" class="node">
<title>prometheus</title>
<path fill="#eceff1" stroke="black" d="M1087.68,-110C1087.68,-110 1022.18,-110 1022.18,-110 1016.18,-110 1010.18,-104 1010.18,-98 1010.18,-98 1010.18,-84 1010.18,-84 1010.18,-78 1016.18,-72 1022.18,-72 1022.18,-72 1087.68,-72 1087.68,-72 1093.68,-72 1099.68,-78 1099.68,-84 1099.68,-84 1099.68,-98 1099.68,-98 1099.68,-104 1093.68,-110 1087.68,-110"/>
<text xml:space="preserve" text-anchor="middle" x="1054.93" y="-92.7" font-family="Helvetica,sans-Serif" font-size="14.00">Prometheus</text>
<text xml:space="preserve" text-anchor="middle" x="1054.93" y="-77.7" font-family="Helvetica,sans-Serif" font-size="14.00">+ alert rules</text>
</g>
<!-- gateway&#45;&gt;prometheus -->
<g id="edge23" class="edge">
<title>gateway&#45;&gt;prometheus</title>
<path fill="none" stroke="#666666" stroke-dasharray="1,5" d="M357.89,-303.67C379.26,-265.17 434.22,-175.72 506.18,-130 661.3,-31.44 893.4,-59.2 998.59,-78.93"/>
<polygon fill="#666666" stroke="#666666" points="997.9,-82.36 1008.38,-80.82 999.23,-75.48 997.9,-82.36"/>
<text xml:space="preserve" text-anchor="middle" x="657.43" y="-79.51" font-family="Helvetica,sans-Serif" font-size="9.00">/metrics scrape</text>
</g>
<!-- jaeger -->
<g id="node18" class="node">
<title>jaeger</title>
<path fill="#fff3e0" stroke="black" d="M1093.68,-54C1093.68,-54 1016.18,-54 1016.18,-54 1010.18,-54 1004.18,-48 1004.18,-42 1004.18,-42 1004.18,-28 1004.18,-28 1004.18,-22 1010.18,-16 1016.18,-16 1016.18,-16 1093.68,-16 1093.68,-16 1099.68,-16 1105.68,-22 1105.68,-28 1105.68,-28 1105.68,-42 1105.68,-42 1105.68,-48 1099.68,-54 1093.68,-54"/>
<text xml:space="preserve" text-anchor="middle" x="1054.93" y="-36.7" font-family="Helvetica,sans-Serif" font-size="14.00">Jaeger</text>
<text xml:space="preserve" text-anchor="middle" x="1054.93" y="-21.7" font-family="Helvetica,sans-Serif" font-size="14.00">(OTLP traces)</text>
</g>
<!-- gateway&#45;&gt;jaeger -->
<g id="edge24" class="edge">
<title>gateway&#45;&gt;jaeger</title>
<path fill="none" stroke="#666666" stroke-dasharray="1,5" d="M350.18,-303.54C354.97,-267.14 370.1,-185.12 412.93,-133 443.34,-96 461.49,-96.22 506.18,-79 672.86,-14.79 888.73,-20.97 992.67,-28.92"/>
<polygon fill="#666666" stroke="#666666" points="992.13,-32.39 1002.37,-29.7 992.69,-25.41 992.13,-32.39"/>
<text xml:space="preserve" text-anchor="middle" x="657.43" y="-46.08" font-family="Helvetica,sans-Serif" font-size="9.00">OTLP traces</text>
</g>
<!-- caddy -->
<g id="node2" class="node">
<title>caddy</title>
<ellipse fill="#cce6ff" stroke="black" cx="111.22" cy="-322" rx="95.22" ry="18"/>
<text xml:space="preserve" text-anchor="middle" x="111.22" y="-316.2" font-family="Helvetica,sans-Serif" font-size="14.00">Caddy (TLS / HTTP3)</text>
</g>
<!-- caddy&#45;&gt;gateway -->
<g id="edge1" class="edge">
<title>caddy&#45;&gt;gateway</title>
<path fill="none" stroke="black" d="M206.71,-322C234.19,-322 263.39,-322 287.93,-322"/>
<polygon fill="black" stroke="black" points="287.7,-325.5 297.7,-322 287.7,-318.5 287.7,-325.5"/>
<text xml:space="preserve" text-anchor="middle" x="252.93" y="-323.2" font-family="Helvetica,sans-Serif" font-size="9.00">TLS terminate</text>
</g>
<!-- postgres_fleet -->
<g id="node13" class="node">
<title>postgres_fleet</title>
<path fill="#e6ccff" stroke="black" d="M884.18,-525.73C884.18,-527.53 844.29,-529 795.18,-529 746.07,-529 706.18,-527.53 706.18,-525.73 706.18,-525.73 706.18,-496.27 706.18,-496.27 706.18,-494.47 746.07,-493 795.18,-493 844.29,-493 884.18,-494.47 884.18,-496.27 884.18,-496.27 884.18,-525.73 884.18,-525.73"/>
<path fill="none" stroke="black" d="M884.18,-525.73C884.18,-523.92 844.29,-522.45 795.18,-522.45 746.07,-522.45 706.18,-523.92 706.18,-525.73"/>
<text xml:space="preserve" text-anchor="middle" x="795.18" y="-505.2" font-family="Helvetica,sans-Serif" font-size="14.00">Postgres (per&#45;service DBs)</text>
</g>
<!-- auth&#45;&gt;postgres_fleet -->
<g id="edge10" class="edge">
<title>auth&#45;&gt;postgres_fleet</title>
<path fill="none" stroke="black" d="M588.31,-546.57C598.21,-550.84 608.93,-556.87 616.68,-565 624.37,-573.07 617.36,-581.89 626.68,-588 649.54,-602.99 662.19,-596.45 688.18,-588 719.09,-577.96 748.51,-555.15 768.48,-536.94"/>
<polygon fill="black" stroke="black" points="770.7,-539.66 775.6,-530.26 765.91,-534.55 770.7,-539.66"/>
<text xml:space="preserve" text-anchor="middle" x="657.43" y="-598.15" font-family="Helvetica,sans-Serif" font-size="9.00">SQL</text>
</g>
<!-- listings&#45;&gt;postgres_fleet -->
<g id="edge7" class="edge">
<title>listings&#45;&gt;postgres_fleet</title>
<path fill="none" stroke="black" d="M592.03,-330.38C601.39,-334.48 610.79,-340.45 616.68,-349 630.22,-368.67 612.07,-437.11 626.68,-456 644.47,-478.99 663.94,-462.22 688.18,-478.25 692.1,-480.84 692.63,-483.57 698.32,-487.96"/>
<polygon fill="black" stroke="black" points="696.26,-490.8 706.6,-493.15 699.98,-484.87 696.26,-490.8"/>
<text xml:space="preserve" text-anchor="middle" x="657.43" y="-479.45" font-family="Helvetica,sans-Serif" font-size="9.00">SQL</text>
</g>
<!-- kb0 -->
<g id="node14" class="node">
<title>kb0</title>
<polygon fill="#ffcc99" stroke="#795548" points="852.34,-266 823.76,-297.03 766.61,-297.03 738.03,-266 766.61,-234.97 823.76,-234.97 852.34,-266"/>
<text xml:space="preserve" text-anchor="middle" x="795.18" y="-267.7" font-family="Helvetica,sans-Serif" font-size="14.00">broker&#45;0</text>
<text xml:space="preserve" text-anchor="middle" x="795.18" y="-252.7" font-family="Helvetica,sans-Serif" font-size="14.00">unknown</text>
</g>
<!-- listings&#45;&gt;kb0 -->
<g id="edge16" class="edge">
<title>listings&#45;&gt;kb0</title>
<path fill="none" stroke="black" stroke-dasharray="5,2" d="M592.22,-310.28C600.65,-306.19 609.47,-301.08 616.68,-295 622.46,-290.13 620.11,-284.98 626.68,-281.25 658.14,-263.39 698.38,-259.24 731.54,-259.72"/>
<polygon fill="black" stroke="black" points="731.33,-263.22 741.43,-260.02 731.54,-256.22 731.33,-263.22"/>
<text xml:space="preserve" text-anchor="middle" x="657.43" y="-282.45" font-family="Helvetica,sans-Serif" font-size="9.00">domain events</text>
</g>
<!-- bookings&#45;&gt;postgres_fleet -->
<g id="edge8" class="edge">
<title>bookings&#45;&gt;postgres_fleet</title>
<path fill="none" stroke="black" d="M596.96,-278.64C604.62,-282.58 611.87,-287.89 616.68,-295 632.68,-318.62 609.4,-400.3 626.68,-423 644.29,-446.13 668.93,-423.48 688.18,-445.25 699.54,-458.09 688.35,-470.75 698.9,-487.17"/>
<polygon fill="black" stroke="black" points="695.89,-489.04 705.03,-494.4 701.23,-484.51 695.89,-489.04"/>
<text xml:space="preserve" text-anchor="middle" x="657.43" y="-446.45" font-family="Helvetica,sans-Serif" font-size="9.00">SQL</text>
</g>
<!-- bookings&#45;&gt;kb0 -->
<g id="edge17" class="edge">
<title>bookings&#45;&gt;kb0</title>
<path fill="none" stroke="black" stroke-dasharray="5,2" d="M597.12,-255.21C606.59,-252.33 616.92,-249.71 626.68,-248.25 663.16,-242.81 704.36,-247.04 736.76,-252.73"/>
<polygon fill="black" stroke="black" points="735.88,-256.13 746.35,-254.51 737.16,-249.24 735.88,-256.13"/>
<text xml:space="preserve" text-anchor="middle" x="657.43" y="-249.45" font-family="Helvetica,sans-Serif" font-size="9.00">domain events</text>
</g>
<!-- messaging&#45;&gt;postgres_fleet -->
<g id="edge9" class="edge">
<title>messaging&#45;&gt;postgres_fleet</title>
<path fill="none" stroke="black" d="M602.19,-444.06C607.75,-447.52 612.86,-451.79 616.68,-457 633.97,-480.57 604.5,-502.97 626.68,-522 656.95,-547.97 702.72,-543.03 738.77,-532.81"/>
<polygon fill="black" stroke="black" points="739.63,-536.21 748.17,-529.94 737.59,-529.51 739.63,-536.21"/>
<text xml:space="preserve" text-anchor="middle" x="657.43" y="-542.25" font-family="Helvetica,sans-Serif" font-size="9.00">SQL</text>
</g>
<!-- messaging&#45;&gt;kb0 -->
<g id="edge18" class="edge">
<title>messaging&#45;&gt;kb0</title>
<path fill="none" stroke="black" stroke-dasharray="5,2" d="M602.35,-415.69C607.82,-412.26 612.86,-408.08 616.68,-403 631.82,-382.89 610.59,-366.61 626.68,-347.25 645.36,-324.78 666.07,-343.1 688.18,-324 695.11,-318.02 691.36,-312.1 698.18,-306 709.56,-295.84 723.87,-288.03 737.96,-282.12"/>
<polygon fill="black" stroke="black" points="739.17,-285.41 747.22,-278.52 736.63,-278.88 739.17,-285.41"/>
<text xml:space="preserve" text-anchor="middle" x="657.43" y="-348.45" font-family="Helvetica,sans-Serif" font-size="9.00">domain events</text>
</g>
<!-- notification -->
<g id="node7" class="node">
<title>notification</title>
<path fill="#ccffcc" stroke="black" d="M590.31,-502C590.31,-502 531.56,-502 531.56,-502 525.56,-502 519.56,-496 519.56,-490 519.56,-490 519.56,-478 519.56,-478 519.56,-472 525.56,-466 531.56,-466 531.56,-466 590.31,-466 590.31,-466 596.31,-466 602.31,-472 602.31,-478 602.31,-478 602.31,-490 602.31,-490 602.31,-496 596.31,-502 590.31,-502"/>
<text xml:space="preserve" text-anchor="middle" x="560.93" y="-478.2" font-family="Helvetica,sans-Serif" font-size="14.00">Notification</text>
</g>
<!-- notification&#45;&gt;postgres_fleet -->
<g id="edge11" class="edge">
<title>notification&#45;&gt;postgres_fleet</title>
<path fill="none" stroke="black" d="M602.69,-498.81C607.98,-502.15 612.88,-506.17 616.68,-511 629.11,-526.74 611.01,-542.49 626.68,-555 665.4,-585.91 723.67,-558.8 760.28,-535.55"/>
<polygon fill="black" stroke="black" points="761.85,-538.71 768.29,-530.29 758.01,-532.86 761.85,-538.71"/>
<text xml:space="preserve" text-anchor="middle" x="657.43" y="-570.06" font-family="Helvetica,sans-Serif" font-size="9.00">SQL</text>
</g>
<!-- trust -->
<g id="node8" class="node">
<title>trust</title>
<path fill="#ccffcc" stroke="black" d="M575.93,-394C575.93,-394 545.93,-394 545.93,-394 539.93,-394 533.93,-388 533.93,-382 533.93,-382 533.93,-370 533.93,-370 533.93,-364 539.93,-358 545.93,-358 545.93,-358 575.93,-358 575.93,-358 581.93,-358 587.93,-364 587.93,-370 587.93,-370 587.93,-382 587.93,-382 587.93,-388 581.93,-394 575.93,-394"/>
<text xml:space="preserve" text-anchor="middle" x="560.93" y="-370.2" font-family="Helvetica,sans-Serif" font-size="14.00">Trust</text>
</g>
<!-- trust&#45;&gt;postgres_fleet -->
<g id="edge12" class="edge">
<title>trust&#45;&gt;postgres_fleet</title>
<path fill="none" stroke="black" d="M588.2,-382.92C598.71,-387.03 609.9,-393.39 616.68,-403 638.86,-434.45 599.68,-461.59 626.68,-489 636.95,-499.42 664.65,-505.06 694.63,-508.06"/>
<polygon fill="black" stroke="black" points="693.98,-511.52 704.25,-508.92 694.6,-504.55 693.98,-511.52"/>
<text xml:space="preserve" text-anchor="middle" x="657.43" y="-508.53" font-family="Helvetica,sans-Serif" font-size="9.00">SQL</text>
</g>
<!-- analytics -->
<g id="node9" class="node">
<title>analytics</title>
<path fill="#ccffcc" stroke="black" d="M583.93,-178C583.93,-178 537.93,-178 537.93,-178 531.93,-178 525.93,-172 525.93,-166 525.93,-166 525.93,-154 525.93,-154 525.93,-148 531.93,-142 537.93,-142 537.93,-142 583.93,-142 583.93,-142 589.93,-142 595.93,-148 595.93,-154 595.93,-154 595.93,-166 595.93,-166 595.93,-172 589.93,-178 583.93,-178"/>
<text xml:space="preserve" text-anchor="middle" x="560.93" y="-154.2" font-family="Helvetica,sans-Serif" font-size="14.00">Analytics</text>
</g>
<!-- ollama -->
<g id="node12" class="node">
<title>ollama</title>
<path fill="#e8eaf6" stroke="black" d="M826.06,-171C826.06,-171 764.31,-171 764.31,-171 758.31,-171 752.31,-165 752.31,-159 752.31,-159 752.31,-145 752.31,-145 752.31,-139 758.31,-133 764.31,-133 764.31,-133 826.06,-133 826.06,-133 832.06,-133 838.06,-139 838.06,-145 838.06,-145 838.06,-159 838.06,-159 838.06,-165 832.06,-171 826.06,-171"/>
<text xml:space="preserve" text-anchor="middle" x="795.18" y="-153.7" font-family="Helvetica,sans-Serif" font-size="14.00">Ollama</text>
<text xml:space="preserve" text-anchor="middle" x="795.18" y="-138.7" font-family="Helvetica,sans-Serif" font-size="14.00">(listing&#45;feel)</text>
</g>
<!-- analytics&#45;&gt;ollama -->
<g id="edge22" class="edge">
<title>analytics&#45;&gt;ollama</title>
<path fill="none" stroke="black" stroke-dasharray="5,2" d="M596.41,-146.93C606.07,-143.87 616.66,-141.05 626.68,-139.5 664.58,-133.64 707.74,-137.1 740.75,-141.85"/>
<polygon fill="black" stroke="black" points="740.07,-145.29 750.49,-143.34 741.13,-138.37 740.07,-145.29"/>
<text xml:space="preserve" text-anchor="middle" x="657.43" y="-150.45" font-family="Helvetica,sans-Serif" font-size="9.00">HTTP</text>
<text xml:space="preserve" text-anchor="middle" x="657.43" y="-140.7" font-family="Helvetica,sans-Serif" font-size="9.00">(listing&#45;feel)</text>
</g>
<!-- analytics&#45;&gt;postgres_fleet -->
<g id="edge13" class="edge">
<title>analytics&#45;&gt;postgres_fleet</title>
<path fill="none" stroke="black" d="M596.25,-170.11C604.22,-174.09 611.8,-179.56 616.68,-187 641.47,-224.76 599.84,-353.68 626.68,-390 643.96,-413.38 669.98,-389.59 688.18,-412.25 707.7,-436.56 681.06,-458.93 698.71,-486.95"/>
<polygon fill="black" stroke="black" points="695.84,-488.96 704.78,-494.65 701.34,-484.63 695.84,-488.96"/>
<text xml:space="preserve" text-anchor="middle" x="657.43" y="-413.45" font-family="Helvetica,sans-Serif" font-size="9.00">SQL</text>
</g>
<!-- analytics&#45;&gt;prometheus -->
<g id="edge27" class="edge">
<title>analytics&#45;&gt;prometheus</title>
<path fill="none" stroke="#666666" stroke-dasharray="1,5" d="M596.32,-143.92C623.34,-132.22 662.28,-117.4 698.18,-111.25 803.3,-93.24 928.18,-90.31 998.53,-90.31"/>
<polygon fill="#666666" stroke="#666666" points="998.24,-93.81 1008.25,-90.33 998.25,-86.81 998.24,-93.81"/>
<text xml:space="preserve" text-anchor="middle" x="795.18" y="-112.45" font-family="Helvetica,sans-Serif" font-size="9.00">/metrics</text>
</g>
<!-- media&#45;&gt;postgres_fleet -->
<g id="edge14" class="edge">
<title>media&#45;&gt;postgres_fleet</title>
<path fill="none" stroke="black" d="M587.97,-603.54C614.15,-613.4 655.22,-624.09 688.18,-611 724.72,-596.49 755.95,-562.75 774.86,-538.48"/>
<polygon fill="black" stroke="black" points="777.58,-540.68 780.81,-530.59 772,-536.46 777.58,-540.68"/>
<text xml:space="preserve" text-anchor="middle" x="657.43" y="-618.27" font-family="Helvetica,sans-Serif" font-size="9.00">SQL</text>
</g>
<!-- event_layer -->
<g id="node11" class="node">
<title>event_layer</title>
<path fill="#c8e6c9" stroke="black" d="M590.68,-232C590.68,-232 531.18,-232 531.18,-232 525.18,-232 519.18,-226 519.18,-220 519.18,-220 519.18,-208 519.18,-208 519.18,-202 525.18,-196 531.18,-196 531.18,-196 590.68,-196 590.68,-196 596.68,-196 602.68,-202 602.68,-208 602.68,-208 602.68,-220 602.68,-220 602.68,-226 596.68,-232 590.68,-232"/>
<text xml:space="preserve" text-anchor="middle" x="560.93" y="-208.2" font-family="Helvetica,sans-Serif" font-size="14.00">Event layer</text>
</g>
<!-- event_layer&#45;&gt;kb0 -->
<g id="edge15" class="edge">
<title>event_layer&#45;&gt;kb0</title>
<path fill="none" stroke="black" stroke-dasharray="5,2" d="M602.9,-218.19C627.76,-221.16 660.02,-225.78 688.18,-232.25 705.55,-236.24 724.17,-241.74 740.89,-247.14"/>
<polygon fill="black" stroke="black" points="739.53,-250.38 750.13,-250.19 741.72,-243.73 739.53,-250.38"/>
<text xml:space="preserve" text-anchor="middle" x="657.43" y="-233.45" font-family="Helvetica,sans-Serif" font-size="9.00">produce</text>
</g>
<!-- postgres_fleet&#45;&gt;prometheus -->
<g id="edge26" class="edge">
<title>postgres_fleet&#45;&gt;prometheus</title>
<path fill="none" stroke="#666666" stroke-dasharray="1,5" d="M884.31,-494.76C887.07,-493.02 889.71,-491.11 892.18,-489 1007.87,-390.56 1041.86,-196.85 1050.92,-121.76"/>
<polygon fill="#666666" stroke="#666666" points="1054.39,-122.19 1052.04,-111.86 1047.44,-121.41 1054.39,-122.19"/>
<text xml:space="preserve" text-anchor="middle" x="944.18" y="-474.66" font-family="Helvetica,sans-Serif" font-size="9.00">exporter / sql metrics</text>
</g>
<!-- kb0&#45;&gt;notification -->
<g id="edge20" class="edge">
<title>kb0&#45;&gt;notification</title>
<path fill="none" stroke="black" stroke-dasharray="5,2" d="M746.9,-275.67C729.18,-281.59 710.4,-291.04 698.18,-306 683.57,-323.89 703.09,-339.36 688.18,-357 669.32,-379.32 644.82,-357.34 626.68,-380.25 605.34,-407.22 636.7,-429.03 616.68,-457 615.18,-459.1 613.47,-461.05 611.6,-462.85"/>
<polygon fill="black" stroke="black" points="609.52,-460.03 603.76,-468.92 613.81,-465.56 609.52,-460.03"/>
<text xml:space="preserve" text-anchor="middle" x="657.43" y="-381.45" font-family="Helvetica,sans-Serif" font-size="9.00">consume</text>
</g>
<!-- kb0&#45;&gt;trust -->
<g id="edge21" class="edge">
<title>kb0&#45;&gt;trust</title>
<path fill="none" stroke="black" stroke-dasharray="5,2" d="M747.81,-276.92C701.33,-288.25 635.43,-305.5 626.68,-314.25 615.32,-325.62 626.99,-336.67 616.68,-349 611.75,-354.9 605.21,-359.62 598.38,-363.37"/>
<polygon fill="black" stroke="black" points="597.2,-360.05 589.68,-367.51 600.21,-366.37 597.2,-360.05"/>
<text xml:space="preserve" text-anchor="middle" x="657.43" y="-315.45" font-family="Helvetica,sans-Serif" font-size="9.00">consume</text>
</g>
<!-- kb0&#45;&gt;analytics -->
<g id="edge19" class="edge">
<title>kb0&#45;&gt;analytics</title>
<path fill="none" stroke="black" stroke-dasharray="5,2" d="M757.52,-244.45C737.39,-233.02 711.78,-219.13 688.18,-208.25 661.76,-196.07 631.31,-184.37 606.94,-175.54"/>
<polygon fill="black" stroke="black" points="608.22,-172.28 597.63,-172.2 605.86,-178.87 608.22,-172.28"/>
<text xml:space="preserve" text-anchor="middle" x="657.43" y="-209.45" font-family="Helvetica,sans-Serif" font-size="9.00">consume</text>
</g>
<!-- kb0&#45;&gt;jaeger -->
<g id="edge25" class="edge">
<title>kb0&#45;&gt;jaeger</title>
<path fill="none" stroke="#666666" stroke-dasharray="1,5" d="M833.94,-245.45C852.6,-234.29 874.78,-219.42 892.18,-203 948.56,-149.81 936.48,-112.44 996.18,-63 997.13,-62.22 998.1,-61.45 999.09,-60.7"/>
<polygon fill="#666666" stroke="#666666" points="1000.89,-63.71 1007.23,-55.22 996.98,-57.9 1000.89,-63.71"/>
<text xml:space="preserve" text-anchor="middle" x="944.18" y="-201.47" font-family="Helvetica,sans-Serif" font-size="9.00">trace headers</text>
<text xml:space="preserve" text-anchor="middle" x="944.18" y="-191.72" font-family="Helvetica,sans-Serif" font-size="9.00">on records</text>
</g>
<!-- kb1 -->
<g id="node15" class="node">
<title>kb1</title>
<polygon fill="#ffcc99" stroke="#795548" points="852.34,-346 823.76,-377.03 766.61,-377.03 738.03,-346 766.61,-314.97 823.76,-314.97 852.34,-346"/>
<text xml:space="preserve" text-anchor="middle" x="795.18" y="-347.7" font-family="Helvetica,sans-Serif" font-size="14.00">broker&#45;1</text>
<text xml:space="preserve" text-anchor="middle" x="795.18" y="-332.7" font-family="Helvetica,sans-Serif" font-size="14.00">unknown</text>
</g>
<!-- kb2 -->
<g id="node16" class="node">
<title>kb2</title>
<polygon fill="#ffcc99" stroke="#795548" points="852.34,-426 823.76,-457.03 766.61,-457.03 738.03,-426 766.61,-394.97 823.76,-394.97 852.34,-426"/>
<text xml:space="preserve" text-anchor="middle" x="795.18" y="-427.7" font-family="Helvetica,sans-Serif" font-size="14.00">broker&#45;2</text>
<text xml:space="preserve" text-anchor="middle" x="795.18" y="-412.7" font-family="Helvetica,sans-Serif" font-size="14.00">unknown</text>
</g>
</g>
</svg>
