<?xml version="1.0" encoding="UTF-8" standalone="no"?>
<!DOCTYPE svg PUBLIC "-//W3C//DTD SVG 1.1//EN"
 "http://www.w3.org/Graphics/SVG/1.1/DTD/svg11.dtd">
<!-- Generated by graphviz version 14.1.4 (20260321.0153)
 -->
<!-- Title: dataflow Pages: 1 -->
<svg width="874pt" height="548pt"
 viewBox="0.00 0.00 874.00 548.00" xmlns="http://www.w3.org/2000/svg" xmlns:xlink="http://www.w3.org/1999/xlink">
<g id="graph0" class="graph" transform="scale(1 1) rotate(0) translate(4 544)">
<title>dataflow</title>
<polygon fill="white" stroke="none" points="-4,4 -4,-544 869.68,-544 869.68,4 -4,4"/>
<text xml:space="preserve" text-anchor="middle" x="432.84" y="-525.55" font-family="Helvetica,sans-Serif" font-size="11.00">Cross&#45;service data flow (curated: HTTP/gRPC + Kafka)</text>
<g id="clust1" class="cluster">
<title>cluster_edge</title>
<path fill="none" stroke="black" d="M20,-332C20,-332 390.93,-332 390.93,-332 396.93,-332 402.93,-338 402.93,-344 402.93,-344 402.93,-392 402.93,-392 402.93,-398 396.93,-404 390.93,-404 390.93,-404 20,-404 20,-404 14,-404 8,-398 8,-392 8,-392 8,-344 8,-344 8,-338 14,-332 20,-332"/>
<text xml:space="preserve" text-anchor="middle" x="205.47" y="-389.55" font-family="Helvetica,sans-Serif" font-size="11.00">Edge</text>
</g>
<g id="clust2" class="cluster">
<title>cluster_svc</title>
<path fill="none" stroke="black" d="M485.18,-8C485.18,-8 571.68,-8 571.68,-8 577.68,-8 583.68,-14 583.68,-20 583.68,-20 583.68,-500 583.68,-500 583.68,-506 577.68,-512 571.68,-512 571.68,-512 485.18,-512 485.18,-512 479.18,-512 473.18,-506 473.18,-500 473.18,-500 473.18,-20 473.18,-20 473.18,-14 479.18,-8 485.18,-8"/>
<text xml:space="preserve" text-anchor="middle" x="528.43" y="-497.55" font-family="Helvetica,sans-Serif" font-size="11.00">Application services</text>
</g>
<g id="clust3" class="cluster">
<title>cluster_data</title>
<path fill="none" stroke="black" d="M675.68,-59C675.68,-59 845.68,-59 845.68,-59 851.68,-59 857.68,-65 857.68,-71 857.68,-71 857.68,-385 857.68,-385 857.68,-391 851.68,-397 845.68,-397 845.68,-397 675.68,-397 675.68,-397 669.68,-397 663.68,-391 663.68,-385 663.68,-385 663.68,-71 663.68,-71 663.68,-65 669.68,-59 675.68,-59"/>
<text xml:space="preserve" text-anchor="middle" x="760.68" y="-382.55" font-family="Helvetica,sans-Serif" font-size="11.00">Data plane</text>
</g>
<g id="clust4" class="cluster">
<title>cluster_kafka_brokers</title>
<polygon fill="#fff8e1" stroke="#f9a825" points="695.53,-67 695.53,-325 825.84,-325 825.84,-67 695.53,-67"/>
<text xml:space="preserve" text-anchor="middle" x="760.68" y="-310.55" font-family="Helvetica,sans-Serif" font-size="11.00">Kafka (KRaft)</text>
</g>
<!-- gateway -->
<g id="node1" class="node">
<title>gateway</title>
<path fill="#99ccff" stroke="black" d="M382.93,-376C382.93,-376 311.43,-376 311.43,-376 305.43,-376 299.43,-370 299.43,-364 299.43,-364 299.43,-352 299.43,-352 299.43,-346 305.43,-340 311.43,-340 311.43,-340 382.93,-340 382.93,-340 388.93,-340 394.93,-346 394.93,-352 394.93,-352 394.93,-364 394.93,-364 394.93,-370 388.93,-376 382.93,-376"/>
<text xml:space="preserve" text-anchor="middle" x="347.18" y="-352.2" font-family="Helvetica,sans-Serif" font-size="14.00">API Gateway</text>
</g>
<!-- auth -->
<g id="node3" class="node">
<title>auth</title>
<path fill="#ccffcc" stroke="black" d="M542.93,-484C542.93,-484 512.93,-484 512.93,-484 506.93,-484 500.93,-478 500.93,-472 500.93,-472 500.93,-460 500.93,-460 500.93,-454 506.93,-448 512.93,-448 512.93,-448 542.93,-448 542.93,-448 548.93,-448 554.93,-454 554.93,-460 554.93,-460 554.93,-472 554.93,-472 554.93,-478 548.93,-484 542.93,-484"/>
<text xml:space="preserve" text-anchor="middle" x="527.93" y="-460.2" font-family="Helvetica,sans-Serif" font-size="14.00">Auth</text>
</g>
<!-- gateway&#45;&gt;auth -->
<g id="edge2" class="edge">
<title>gateway&#45;&gt;auth</title>
<path fill="none" stroke="black" d="M372.02,-376.3C384.05,-385.28 399.02,-396.07 412.93,-405 438.81,-421.61 446.05,-424.54 473.18,-439 478.71,-441.95 484.6,-445 490.38,-447.94"/>
<polygon fill="black" stroke="black" points="488.7,-451.01 499.21,-452.39 491.85,-444.76 488.7,-451.01"/>
<text xml:space="preserve" text-anchor="middle" x="438.06" y="-434.74" font-family="Helvetica,sans-Serif" font-size="9.00">HTTP/gRPC</text>
</g>
<!-- listings -->
<g id="node4" class="node">
<title>listings</title>
<path fill="#ccffcc" stroke="black" d="M546.81,-376C546.81,-376 509.06,-376 509.06,-376 503.06,-376 497.06,-370 497.06,-364 497.06,-364 497.06,-352 497.06,-352 497.06,-346 503.06,-340 509.06,-340 509.06,-340 546.81,-340 546.81,-340 552.81,-340 558.81,-346 558.81,-352 558.81,-352 558.81,-364 558.81,-364 558.81,-370 552.81,-376 546.81,-376"/>
<text xml:space="preserve" text-anchor="middle" x="527.93" y="-352.2" font-family="Helvetica,sans-Serif" font-size="14.00">Listings</text>
</g>
<!-- gateway&#45;&gt;listings -->
<g id="edge3" class="edge">
<title>gateway&#45;&gt;listings</title>
<path fill="none" stroke="black" d="M395.15,-358C423.17,-358 458.43,-358 485.43,-358"/>
<polygon fill="black" stroke="black" points="485.31,-361.5 495.31,-358 485.31,-354.5 485.31,-361.5"/>
<text xml:space="preserve" text-anchor="middle" x="438.06" y="-359.2" font-family="Helvetica,sans-Serif" font-size="9.00">HTTP/gRPC</text>
</g>
<!-- bookings -->
<g id="node5" class="node">
<title>bookings</title>
<path fill="#ccffcc" stroke="black" d="M551.68,-214C551.68,-214 504.18,-214 504.18,-214 498.18,-214 492.18,-208 492.18,-202 492.18,-202 492.18,-190 492.18,-190 492.18,-184 498.18,-178 504.18,-178 504.18,-178 551.68,-178 551.68,-178 557.68,-178 563.68,-184 563.68,-190 563.68,-190 563.68,-202 563.68,-202 563.68,-208 557.68,-214 551.68,-214"/>
<text xml:space="preserve" text-anchor="middle" x="527.93" y="-190.2" font-family="Helvetica,sans-Serif" font-size="14.00">Bookings</text>
</g>
<!-- gateway&#45;&gt;bookings -->
<g id="edge4" class="edge">
<title>gateway&#45;&gt;bookings</title>
<path fill="none" stroke="black" d="M361.48,-339.9C382.66,-312.02 426.46,-258.13 473.18,-223 475.93,-220.93 478.86,-218.95 481.89,-217.07"/>
<polygon fill="black" stroke="black" points="483.5,-220.17 490.42,-212.15 480.01,-214.11 483.5,-220.17"/>
<text xml:space="preserve" text-anchor="middle" x="438.06" y="-278.64" font-family="Helvetica,sans-Serif" font-size="9.00">HTTP/gRPC</text>
</g>
<!-- messaging -->
<g id="node6" class="node">
<title>messaging</title>
<path fill="#ccffcc" stroke="black" d="M556.93,-160C556.93,-160 498.93,-160 498.93,-160 492.93,-160 486.93,-154 486.93,-148 486.93,-148 486.93,-136 486.93,-136 486.93,-130 492.93,-124 498.93,-124 498.93,-124 556.93,-124 556.93,-124 562.93,-124 568.93,-130 568.93,-136 568.93,-136 568.93,-148 568.93,-148 568.93,-154 562.93,-160 556.93,-160"/>
<text xml:space="preserve" text-anchor="middle" x="527.93" y="-136.2" font-family="Helvetica,sans-Serif" font-size="14.00">Messaging</text>
</g>
<!-- gateway&#45;&gt;messaging -->
<g id="edge5" class="edge">
<title>gateway&#45;&gt;messaging</title>
<path fill="none" stroke="black" d="M353.66,-339.82C362.74,-311.71 382.94,-256.92 412.93,-218.25 429.83,-196.47 454.76,-178.79 477,-165.97"/>
<polygon fill="black" stroke="black" points="478.62,-169.07 485.66,-161.15 475.22,-162.95 478.62,-169.07"/>
<text xml:space="preserve" text-anchor="middle" x="438.06" y="-219.45" font-family="Helvetica,sans-Serif" font-size="9.00">HTTP/gRPC</text>
</g>
<!-- media -->
<g id="node10" class="node">
<title>media</title>
<path fill="#ccffcc" stroke="black" d="M542.93,-430C542.93,-430 512.93,-430 512.93,-430 506.93,-430 500.93,-424 500.93,-418 500.93,-418 500.93,-406 500.93,-406 500.93,-400 506.93,-394 512.93,-394 512.93,-394 542.93,-394 542.93,-394 548.93,-394 554.93,-400 554.93,-406 554.93,-406 554.93,-418 554.93,-418 554.93,-424 548.93,-430 542.93,-430"/>
<text xml:space="preserve" text-anchor="middle" x="527.93" y="-406.2" font-family="Helvetica,sans-Serif" font-size="14.00">Media</text>
</g>
<!-- gateway&#45;&gt;media -->
<g id="edge6" class="edge">
<title>gateway&#45;&gt;media</title>
<path fill="none" stroke="black" d="M395.15,-372.19C424.69,-381.11 462.29,-392.47 489.76,-400.77"/>
<polygon fill="black" stroke="black" points="488.46,-404.03 499.04,-403.57 490.48,-397.33 488.46,-404.03"/>
<text xml:space="preserve" text-anchor="middle" x="438.06" y="-392.62" font-family="Helvetica,sans-Serif" font-size="9.00">HTTP/gRPC</text>
</g>
<!-- caddy -->
<g id="node2" class="node">
<title>caddy</title>
<ellipse fill="#cce6ff" stroke="black" cx="111.22" cy="-358" rx="95.22" ry="18"/>
<text xml:space="preserve" text-anchor="middle" x="111.22" y="-352.2" font-family="Helvetica,sans-Serif" font-size="14.00">Caddy (TLS / HTTP3)</text>
</g>
<!-- caddy&#45;&gt;gateway -->
<g id="edge1" class="edge">
<title>caddy&#45;&gt;gateway</title>
<path fill="none" stroke="black" d="M206.71,-358C234.19,-358 263.39,-358 287.93,-358"/>
<polygon fill="black" stroke="black" points="287.7,-361.5 297.7,-358 287.7,-354.5 287.7,-361.5"/>
<text xml:space="preserve" text-anchor="middle" x="252.93" y="-359.2" font-family="Helvetica,sans-Serif" font-size="9.00">TLS terminate</text>
</g>
<!-- postgres_fleet -->
<g id="node12" class="node">
<title>postgres_fleet</title>
<path fill="#e6ccff" stroke="black" d="M849.68,-365.73C849.68,-367.53 809.79,-369 760.68,-369 711.57,-369 671.68,-367.53 671.68,-365.73 671.68,-365.73 671.68,-336.27 671.68,-336.27 671.68,-334.47 711.57,-333 760.68,-333 809.79,-333 849.68,-334.47 849.68,-336.27 849.68,-336.27 849.68,-365.73 849.68,-365.73"/>
<path fill="none" stroke="black" d="M849.68,-365.73C849.68,-363.92 809.79,-362.45 760.68,-362.45 711.57,-362.45 671.68,-363.92 671.68,-365.73"/>
<text xml:space="preserve" text-anchor="middle" x="760.68" y="-345.2" font-family="Helvetica,sans-Serif" font-size="14.00">Postgres (per&#45;service DBs)</text>
</g>
<!-- auth&#45;&gt;postgres_fleet -->
<g id="edge10" class="edge">
<title>auth&#45;&gt;postgres_fleet</title>
<path fill="none" stroke="black" d="M555,-458.58C580.76,-450.8 620.96,-437.41 653.68,-421 679.21,-408.2 706.03,-390.44 726.31,-376.01"/>
<polygon fill="black" stroke="black" points="728.13,-379.01 734.19,-370.32 724.04,-373.33 728.13,-379.01"/>
<text xml:space="preserve" text-anchor="middle" x="623.68" y="-446.01" font-family="Helvetica,sans-Serif" font-size="9.00">SQL</text>
</g>
<!-- listings&#45;&gt;postgres_fleet -->
<g id="edge7" class="edge">
<title>listings&#45;&gt;postgres_fleet</title>
<path fill="none" stroke="black" d="M558.99,-371.08C569.72,-375.1 582.04,-378.99 593.68,-381 628.41,-386.98 667.16,-380.72 698.48,-372.39"/>
<polygon fill="black" stroke="black" points="699.09,-375.86 707.77,-369.79 697.2,-369.12 699.09,-375.86"/>
<text xml:space="preserve" text-anchor="middle" x="623.68" y="-384.56" font-family="Helvetica,sans-Serif" font-size="9.00">SQL</text>
</g>
<!-- kb0 -->
<g id="node13" class="node">
<title>kb0</title>
<polygon fill="#ffcc99" stroke="#795548" points="817.84,-106 789.26,-137.03 732.11,-137.03 703.53,-106 732.11,-74.97 789.26,-74.97 817.84,-106"/>
<text xml:space="preserve" text-anchor="middle" x="760.68" y="-107.7" font-family="Helvetica,sans-Serif" font-size="14.00">broker&#45;0</text>
<text xml:space="preserve" text-anchor="middle" x="760.68" y="-92.7" font-family="Helvetica,sans-Serif" font-size="14.00">unknown</text>
</g>
<!-- listings&#45;&gt;kb0 -->
<g id="edge16" class="edge">
<title>listings&#45;&gt;kb0</title>
<path fill="none" stroke="black" stroke-dasharray="5,2" d="M559.17,-364.13C587.89,-368 630.09,-368.28 653.68,-343 668.64,-326.98 651.07,-163.92 663.68,-146 672.63,-133.29 686.42,-124.6 700.78,-118.67"/>
<polygon fill="black" stroke="black" points="701.67,-122.07 709.86,-115.34 699.26,-115.5 701.67,-122.07"/>
<text xml:space="preserve" text-anchor="middle" x="623.68" y="-366.94" font-family="Helvetica,sans-Serif" font-size="9.00">domain events</text>
</g>
<!-- bookings&#45;&gt;postgres_fleet -->
<g id="edge8" class="edge">
<title>bookings&#45;&gt;postgres_fleet</title>
<path fill="none" stroke="black" d="M564.06,-187.54C592.23,-183.05 630.73,-182.44 653.68,-205.25 671.34,-222.8 650.58,-292.45 665.32,-326.57"/>
<polygon fill="black" stroke="black" points="662.35,-328.41 670.65,-335.01 668.27,-324.68 662.35,-328.41"/>
<text xml:space="preserve" text-anchor="middle" x="623.68" y="-206.45" font-family="Helvetica,sans-Serif" font-size="9.00">SQL</text>
</g>
<!-- bookings&#45;&gt;kb0 -->
<g id="edge17" class="edge">
<title>bookings&#45;&gt;kb0</title>
<path fill="none" stroke="black" stroke-dasharray="5,2" d="M564.03,-183.49C589.1,-174.44 623.59,-161.79 653.68,-150 664.37,-145.82 686.89,-136.49 708.43,-127.5"/>
<polygon fill="black" stroke="black" points="709.6,-130.81 717.48,-123.72 706.9,-124.35 709.6,-130.81"/>
<text xml:space="preserve" text-anchor="middle" x="623.68" y="-173.11" font-family="Helvetica,sans-Serif" font-size="9.00">domain events</text>
</g>
<!-- messaging&#45;&gt;postgres_fleet -->
<g id="edge9" class="edge">
<title>messaging&#45;&gt;postgres_fleet</title>
<path fill="none" stroke="black" d="M569.3,-127.89C596.69,-121.14 631.76,-118.45 653.68,-139.25 667.53,-152.39 653.4,-283.72 666.29,-326.13"/>
<polygon fill="black" stroke="black" points="663.11,-327.6 670.69,-335.01 669.39,-324.5 663.11,-327.6"/>
<text xml:space="preserve" text-anchor="middle" x="623.68" y="-140.45" font-family="Helvetica,sans-Serif" font-size="9.00">SQL</text>
</g>
<!-- messaging&#45;&gt;kb0 -->
<g id="edge18" class="edge">
<title>messaging&#45;&gt;kb0</title>
<path fill="none" stroke="black" stroke-dasharray="5,2" d="M568.63,-123.61C573.78,-120.88 578.92,-117.98 583.68,-115 588.45,-112.02 588.37,-109.09 593.68,-107.25 627.3,-95.61 667.1,-94.9 699.29,-97.29"/>
<polygon fill="black" stroke="black" points="698.57,-100.74 708.84,-98.12 699.18,-93.77 698.57,-100.74"/>
<text xml:space="preserve" text-anchor="middle" x="623.68" y="-108.45" font-family="Helvetica,sans-Serif" font-size="9.00">domain events</text>
</g>
<!-- notification -->
<g id="node7" class="node">
<title>notification</title>
<path fill="#ccffcc" stroke="black" d="M557.31,-268C557.31,-268 498.56,-268 498.56,-268 492.56,-268 486.56,-262 486.56,-256 486.56,-256 486.56,-244 486.56,-244 486.56,-238 492.56,-232 498.56,-232 498.56,-232 557.31,-232 557.31,-232 563.31,-232 569.31,-238 569.31,-244 569.31,-244 569.31,-256 569.31,-256 569.31,-262 563.31,-268 557.31,-268"/>
<text xml:space="preserve" text-anchor="middle" x="527.93" y="-244.2" font-family="Helvetica,sans-Serif" font-size="14.00">Notification</text>
</g>
<!-- notification&#45;&gt;postgres_fleet -->
<g id="edge11" class="edge">
<title>notification&#45;&gt;postgres_fleet</title>
<path fill="none" stroke="black" d="M569.71,-252.3C601.47,-254.98 642.07,-260.61 653.68,-272.25 669.58,-288.18 651.63,-305.61 664.24,-326.75"/>
<polygon fill="black" stroke="black" points="661.45,-328.87 670.41,-334.52 666.93,-324.51 661.45,-328.87"/>
<text xml:space="preserve" text-anchor="middle" x="623.68" y="-273.45" font-family="Helvetica,sans-Serif" font-size="9.00">SQL</text>
</g>
<!-- trust -->
<g id="node8" class="node">
<title>trust</title>
<path fill="#ccffcc" stroke="black" d="M542.93,-322C542.93,-322 512.93,-322 512.93,-322 506.93,-322 500.93,-316 500.93,-310 500.93,-310 500.93,-298 500.93,-298 500.93,-292 506.93,-286 512.93,-286 512.93,-286 542.93,-286 542.93,-286 548.93,-286 554.93,-292 554.93,-298 554.93,-298 554.93,-310 554.93,-310 554.93,-316 548.93,-322 542.93,-322"/>
<text xml:space="preserve" text-anchor="middle" x="527.93" y="-298.2" font-family="Helvetica,sans-Serif" font-size="14.00">Trust</text>
</g>
<!-- trust&#45;&gt;postgres_fleet -->
<g id="edge12" class="edge">
<title>trust&#45;&gt;postgres_fleet</title>
<path fill="none" stroke="black" d="M555.4,-309.39C581.1,-314.63 621.73,-322.9 660,-330.7"/>
<polygon fill="black" stroke="black" points="659.27,-334.12 669.77,-332.69 660.67,-327.26 659.27,-334.12"/>
<text xml:space="preserve" text-anchor="middle" x="623.68" y="-330.11" font-family="Helvetica,sans-Serif" font-size="9.00">SQL</text>
</g>
<!-- analytics -->
<g id="node9" class="node">
<title>analytics</title>
<path fill="#ccffcc" stroke="black" d="M550.93,-106C550.93,-106 504.93,-106 504.93,-106 498.93,-106 492.93,-100 492.93,-94 492.93,-94 492.93,-82 492.93,-82 492.93,-76 498.93,-70 504.93,-70 504.93,-70 550.93,-70 550.93,-70 556.93,-70 562.93,-76 562.93,-82 562.93,-82 562.93,-94 562.93,-94 562.93,-100 556.93,-106 550.93,-106"/>
<text xml:space="preserve" text-anchor="middle" x="527.93" y="-82.2" font-family="Helvetica,sans-Serif" font-size="14.00">Analytics</text>
</g>
<!-- analytics&#45;&gt;postgres_fleet -->
<g id="edge13" class="edge">
<title>analytics&#45;&gt;postgres_fleet</title>
<path fill="none" stroke="black" d="M563.32,-74.65C591.43,-66.23 630.23,-60.73 653.68,-83.25 671.82,-100.66 650.27,-276.22 666.24,-326.35"/>
<polygon fill="black" stroke="black" points="663,-327.7 670.63,-335.05 669.25,-324.55 663,-327.7"/>
<text xml:space="preserve" text-anchor="middle" x="623.68" y="-84.45" font-family="Helvetica,sans-Serif" font-size="9.00">SQL</text>
</g>
<!-- media&#45;&gt;postgres_fleet -->
<g id="edge14" class="edge">
<title>media&#45;&gt;postgres_fleet</title>
<path fill="none" stroke="black" d="M555.16,-411.05C580.69,-409.61 620.42,-406.01 653.68,-397 674.08,-391.48 695.63,-382.71 713.94,-374.31"/>
<polygon fill="black" stroke="black" points="715.39,-377.49 722.95,-370.07 712.41,-371.16 715.39,-377.49"/>
<text xml:space="preserve" text-anchor="middle" x="623.68" y="-408.71" font-family="Helvetica,sans-Serif" font-size="9.00">SQL</text>
</g>
<!-- event_layer -->
<g id="node11" class="node">
<title>event_layer</title>
<path fill="#c8e6c9" stroke="black" d="M557.68,-52C557.68,-52 498.18,-52 498.18,-52 492.18,-52 486.18,-46 486.18,-40 486.18,-40 486.18,-28 486.18,-28 486.18,-22 492.18,-16 498.18,-16 498.18,-16 557.68,-16 557.68,-16 563.68,-16 569.68,-22 569.68,-28 569.68,-28 569.68,-40 569.68,-40 569.68,-46 563.68,-52 557.68,-52"/>
<text xml:space="preserve" text-anchor="middle" x="527.93" y="-28.2" font-family="Helvetica,sans-Serif" font-size="14.00">Event layer</text>
</g>
<!-- event_layer&#45;&gt;kb0 -->
<g id="edge15" class="edge">
<title>event_layer&#45;&gt;kb0</title>
<path fill="none" stroke="black" stroke-dasharray="5,2" d="M570.16,-19.94C594.99,-13.7 626.88,-9.68 653.68,-19.25 680.6,-28.86 705.62,-48.58 724.57,-66.78"/>
<polygon fill="black" stroke="black" points="721.94,-69.1 731.51,-73.66 726.88,-64.14 721.94,-69.1"/>
<text xml:space="preserve" text-anchor="middle" x="623.68" y="-20.45" font-family="Helvetica,sans-Serif" font-size="9.00">produce</text>
</g>
<!-- kb0&#45;&gt;notification -->
<g id="edge20" class="edge">
<title>kb0&#45;&gt;notification</title>
<path fill="none" stroke="black" stroke-dasharray="5,2" d="M712,-115.35C694.22,-121.23 675.51,-130.73 663.68,-146 644.44,-170.85 674.48,-192.44 653.68,-216 643.8,-227.19 610.51,-235.93 580.81,-241.75"/>
<polygon fill="black" stroke="black" points="580.33,-238.28 571.14,-243.55 581.61,-245.16 580.33,-238.28"/>
<text xml:space="preserve" text-anchor="middle" x="623.68" y="-240.07" font-family="Helvetica,sans-Serif" font-size="9.00">consume</text>
</g>
<!-- kb0&#45;&gt;trust -->
<g id="edge21" class="edge">
<title>kb0&#45;&gt;trust</title>
<path fill="none" stroke="black" stroke-dasharray="5,2" d="M711.21,-115.03C693.43,-120.86 674.93,-130.4 663.68,-146 645.96,-170.58 674,-259.52 653.68,-282 642.26,-294.64 598.95,-300.04 566.55,-302.33"/>
<polygon fill="black" stroke="black" points="566.46,-298.83 556.69,-302.95 566.89,-305.82 566.46,-298.83"/>
<text xml:space="preserve" text-anchor="middle" x="623.68" y="-300.88" font-family="Helvetica,sans-Serif" font-size="9.00">consume</text>
</g>
<!-- kb0&#45;&gt;analytics -->
<g id="edge19" class="edge">
<title>kb0&#45;&gt;analytics</title>
<path fill="none" stroke="black" stroke-dasharray="5,2" d="M727.54,-79.9C707.58,-65.42 680.67,-48.84 653.68,-41.25 628.01,-34.03 616.4,-27.29 593.68,-41.25 585.3,-46.4 590.68,-54.08 583.68,-61 580.51,-64.14 576.9,-66.98 573.08,-69.53"/>
<polygon fill="black" stroke="black" points="571.45,-66.43 564.6,-74.51 574.99,-72.46 571.45,-66.43"/>
<text xml:space="preserve" text-anchor="middle" x="623.68" y="-42.45" font-family="Helvetica,sans-Serif" font-size="9.00">consume</text>
</g>
<!-- kb1 -->
<g id="node14" class="node">
<title>kb1</title>
<polygon fill="#ffcc99" stroke="#795548" points="817.84,-186 789.26,-217.03 732.11,-217.03 703.53,-186 732.11,-154.97 789.26,-154.97 817.84,-186"/>
<text xml:space="preserve" text-anchor="middle" x="760.68" y="-187.7" font-family="Helvetica,sans-Serif" font-size="14.00">broker&#45;1</text>
<text xml:space="preserve" text-anchor="middle" x="760.68" y="-172.7" font-family="Helvetica,sans-Serif" font-size="14.00">unknown</text>
</g>
<!-- kb2 -->
<g id="node15" class="node">
<title>kb2</title>
<polygon fill="#ffcc99" stroke="#795548" points="817.84,-266 789.26,-297.03 732.11,-297.03 703.53,-266 732.11,-234.97 789.26,-234.97 817.84,-266"/>
<text xml:space="preserve" text-anchor="middle" x="760.68" y="-267.7" font-family="Helvetica,sans-Serif" font-size="14.00">broker&#45;2</text>
<text xml:space="preserve" text-anchor="middle" x="760.68" y="-252.7" font-family="Helvetica,sans-Serif" font-size="14.00">unknown</text>
</g>
</g>
</svg>
