<svg xmlns="http://www.w3.org/2000/svg" width="624" height="360">
<style>text{font-family:Arial,sans-serif;font-size:11px}.label{font-size:10px}</style>
<text x="20" y="18" font-size="14">Per-service latency (avg ms): HTTP/2 vs HTTP/3</text>
<line x1="80" y1="30" x2="80" y2="290" stroke="#444"/>
<line x1="80" y1="290" x2="604" y2="290" stroke="#444"/>
<line x1="80" y1="290" x2="604" y2="290" stroke="#eee"/>
<text x="10" y="294" class="label">0ms</text>
<line x1="80" y1="228" x2="604" y2="228" stroke="#eee"/>
<text x="10" y="232" class="label">40ms</text>
<line x1="80" y1="166" x2="604" y2="166" stroke="#eee"/>
<text x="10" y="170" class="label">80ms</text>
<line x1="80" y1="104" x2="604" y2="104" stroke="#eee"/>
<text x="10" y="108" class="label">120ms</text>
<line x1="80" y1="40" x2="604" y2="40" stroke="#eee"/>
<text x="10" y="44" class="label">161ms</text>
<rect x="90" y="208" width="18" height="82" fill="#4e79a7"/>
<rect x="112" y="191" width="18" height="99" fill="#f28e2b"/>
<text x="90" y="304" class="label">analyti</text>
<rect x="146" y="172" width="18" height="118" fill="#4e79a7"/>
<rect x="168" y="230" width="18" height="60" fill="#f28e2b"/>
<text x="146" y="304" class="label">auth</text>
<rect x="202" y="188" width="18" height="102" fill="#4e79a7"/>
<rect x="224" y="222" width="18" height="68" fill="#f28e2b"/>
<text x="202" y="304" class="label">booking</text>
<rect x="258" y="275" width="18" height="15" fill="#4e79a7"/>
<rect x="280" y="255" width="18" height="35" fill="#f28e2b"/>
<text x="258" y="304" class="label">gateway</text>
<rect x="314" y="40" width="18" height="250" fill="#4e79a7"/>
<rect x="336" y="231" width="18" height="59" fill="#f28e2b"/>
<text x="314" y="304" class="label">listing</text>
<rect x="370" y="242" width="18" height="48" fill="#4e79a7"/>
<rect x="392" y="222" width="18" height="68" fill="#f28e2b"/>
<text x="370" y="304" class="label">media</text>
<rect x="426" y="216" width="18" height="74" fill="#4e79a7"/>
<rect x="448" y="193" width="18" height="97" fill="#f28e2b"/>
<text x="426" y="304" class="label">messagi</text>
<rect x="482" y="86" width="18" height="204" fill="#4e79a7"/>
<rect x="504" y="239" width="18" height="51" fill="#f28e2b"/>
<text x="482" y="304" class="label">notific</text>
<rect x="538" y="230" width="18" height="60" fill="#4e79a7"/>
<rect x="560" y="235" width="18" height="55" fill="#f28e2b"/>
<text x="538" y="304" class="label">trust</text>
<rect x="80" y="320" width="12" height="12" fill="#4e79a7"/><text x="98" y="330" class="label">HTTP/2</text>
<rect x="170" y="320" width="12" height="12" fill="#f28e2b"/><text x="188" y="330" class="label">HTTP/3</text>
</svg>