<?xml version="1.0" encoding="UTF-8" standalone="no"?>
<!DOCTYPE svg PUBLIC "-//W3C//DTD SVG 1.1//EN"
 "http://www.w3.org/Graphics/SVG/1.1/DTD/svg11.dtd">
<!-- Generated by graphviz version 14.1.4 (20260321.0153)
 -->
<!-- Title: system_poster Pages: 1 -->
<svg width="1029pt" height="590pt"
 viewBox="0.00 0.00 1029.00 590.00" xmlns="http://www.w3.org/2000/svg" xmlns:xlink="http://www.w3.org/1999/xlink">
<g id="graph0" class="graph" transform="scale(1 1) rotate(0) translate(4 585.79)">
<title>system_poster</title>
<polygon fill="white" stroke="none" points="-4,4 -4,-585.79 1025.37,-585.79 1025.37,4 -4,4"/>
<text xml:space="preserve" text-anchor="middle" x="510.68" y="-566.39" font-family="Helvetica,sans-Serif" font-size="12.00">Off&#45;Campus Housing — system architecture (poster)</text>
<text xml:space="preserve" text-anchor="middle" x="510.68" y="-553.64" font-family="Helvetica,sans-Serif" font-size="12.00">(gRPC OTEL interceptors · OTLP → Jaeger · Prometheus rules · optional Ollama)</text>
<!-- clients -->
<g id="node1" class="node">
<title>clients</title>
<ellipse fill="#e3f2fd" stroke="black" cx="489.37" cy="-519.17" rx="90.33" ry="26.87"/>
<text xml:space="preserve" text-anchor="middle" x="489.37" y="-520.87" font-family="Helvetica,sans-Serif" font-size="14.00">Clients</text>
<text xml:space="preserve" text-anchor="middle" x="489.37" y="-505.87" font-family="Helvetica,sans-Serif" font-size="14.00">(browsers, mobile)</text>
</g>
<!-- caddy -->
<g id="node2" class="node">
<title>caddy</title>
<path fill="#cce6ff" stroke="black" d="M529.25,-446.55C529.25,-446.55 449.5,-446.55 449.5,-446.55 443.5,-446.55 437.5,-440.55 437.5,-434.55 437.5,-434.55 437.5,-420.55 437.5,-420.55 437.5,-414.55 443.5,-408.55 449.5,-408.55 449.5,-408.55 529.25,-408.55 529.25,-408.55 535.25,-408.55 541.25,-414.55 541.25,-420.55 541.25,-420.55 541.25,-434.55 541.25,-434.55 541.25,-440.55 535.25,-446.55 529.25,-446.55"/>
<text xml:space="preserve" text-anchor="middle" x="489.37" y="-429.25" font-family="Helvetica,sans-Serif" font-size="14.00">Caddy</text>
<text xml:space="preserve" text-anchor="middle" x="489.37" y="-414.25" font-family="Helvetica,sans-Serif" font-size="14.00">(TLS / HTTP3)</text>
</g>
<!-- clients&#45;&gt;caddy -->
<g id="edge1" class="edge">
<title>clients&#45;&gt;caddy</title>
<path fill="none" stroke="black" d="M489.37,-492.25C489.37,-481.62 489.37,-469.26 489.37,-458.26"/>
<polygon fill="black" stroke="black" points="492.88,-458.53 489.37,-448.53 485.88,-458.53 492.88,-458.53"/>
<text xml:space="preserve" text-anchor="middle" x="504" y="-465.75" font-family="Helvetica,sans-Serif" font-size="9.00">HTTPS</text>
</g>
<!-- gateway -->
<g id="node3" class="node">
<title>gateway</title>
<path fill="#99ccff" stroke="black" d="M560.37,-362.8C560.37,-362.8 418.37,-362.8 418.37,-362.8 412.37,-362.8 406.37,-356.8 406.37,-350.8 406.37,-350.8 406.37,-321.8 406.37,-321.8 406.37,-315.8 412.37,-309.8 418.37,-309.8 418.37,-309.8 560.37,-309.8 560.37,-309.8 566.37,-309.8 572.37,-315.8 572.37,-321.8 572.37,-321.8 572.37,-350.8 572.37,-350.8 572.37,-356.8 566.37,-362.8 560.37,-362.8"/>
<text xml:space="preserve" text-anchor="middle" x="489.37" y="-345.5" font-family="Helvetica,sans-Serif" font-size="14.00">API Gateway</text>
<text xml:space="preserve" text-anchor="middle" x="489.37" y="-330.5" font-family="Helvetica,sans-Serif" font-size="14.00">(gRPC client interceptors</text>
<text xml:space="preserve" text-anchor="middle" x="489.37" y="-315.5" font-family="Helvetica,sans-Serif" font-size="14.00">+ trace metadata)</text>
</g>
<!-- caddy&#45;&gt;gateway -->
<g id="edge2" class="edge">
<title>caddy&#45;&gt;gateway</title>
<path fill="none" stroke="black" d="M489.37,-408.06C489.37,-398.33 489.37,-386.05 489.37,-374.46"/>
<polygon fill="black" stroke="black" points="492.88,-374.73 489.37,-364.73 485.88,-374.73 492.88,-374.73"/>
<text xml:space="preserve" text-anchor="middle" x="508.5" y="-382" font-family="Helvetica,sans-Serif" font-size="9.00">terminate</text>
</g>
<!-- auth -->
<g id="node4" class="node">
<title>auth</title>
<path fill="#ccffcc" stroke="black" d="M504.37,-263.05C504.37,-263.05 474.37,-263.05 474.37,-263.05 468.37,-263.05 462.37,-257.05 462.37,-251.05 462.37,-251.05 462.37,-239.05 462.37,-239.05 462.37,-233.05 468.37,-227.05 474.37,-227.05 474.37,-227.05 504.37,-227.05 504.37,-227.05 510.37,-227.05 516.37,-233.05 516.37,-239.05 516.37,-239.05 516.37,-251.05 516.37,-251.05 516.37,-257.05 510.37,-263.05 504.37,-263.05"/>
<text xml:space="preserve" text-anchor="middle" x="489.37" y="-239.25" font-family="Helvetica,sans-Serif" font-size="14.00">Auth</text>
</g>
<!-- gateway&#45;&gt;auth -->
<g id="edge3" class="edge">
<title>gateway&#45;&gt;auth</title>
<path fill="none" stroke="black" d="M489.37,-309.49C489.37,-298.6 489.37,-285.88 489.37,-274.71"/>
<polygon fill="black" stroke="black" points="492.88,-274.85 489.37,-264.85 485.88,-274.85 492.88,-274.85"/>
<text xml:space="preserve" text-anchor="middle" x="515.25" y="-283.25" font-family="Helvetica,sans-Serif" font-size="9.00">sync + OTEL</text>
</g>
<!-- listings -->
<g id="node5" class="node">
<title>listings</title>
<path fill="#ccffcc" stroke="black" d="M656.25,-263.05C656.25,-263.05 618.5,-263.05 618.5,-263.05 612.5,-263.05 606.5,-257.05 606.5,-251.05 606.5,-251.05 606.5,-239.05 606.5,-239.05 606.5,-233.05 612.5,-227.05 618.5,-227.05 618.5,-227.05 656.25,-227.05 656.25,-227.05 662.25,-227.05 668.25,-233.05 668.25,-239.05 668.25,-239.05 668.25,-251.05 668.25,-251.05 668.25,-257.05 662.25,-263.05 656.25,-263.05"/>
<text xml:space="preserve" text-anchor="middle" x="637.37" y="-239.25" font-family="Helvetica,sans-Serif" font-size="14.00">Listings</text>
</g>
<!-- gateway&#45;&gt;listings -->
<g id="edge4" class="edge">
<title>gateway&#45;&gt;listings</title>
<path fill="none" stroke="black" d="M532.18,-309.49C553.31,-296.75 578.59,-281.5 599.08,-269.15"/>
<polygon fill="black" stroke="black" points="600.66,-272.28 607.41,-264.12 597.04,-266.29 600.66,-272.28"/>
<text xml:space="preserve" text-anchor="middle" x="602.51" y="-283.25" font-family="Helvetica,sans-Serif" font-size="9.00">sync + OTEL</text>
</g>
<!-- bookings -->
<g id="node6" class="node">
<title>bookings</title>
<path fill="#ccffcc" stroke="black" d="M432.12,-263.05C432.12,-263.05 384.62,-263.05 384.62,-263.05 378.62,-263.05 372.62,-257.05 372.62,-251.05 372.62,-251.05 372.62,-239.05 372.62,-239.05 372.62,-233.05 378.62,-227.05 384.62,-227.05 384.62,-227.05 432.12,-227.05 432.12,-227.05 438.12,-227.05 444.12,-233.05 444.12,-239.05 444.12,-239.05 444.12,-251.05 444.12,-251.05 444.12,-257.05 438.12,-263.05 432.12,-263.05"/>
<text xml:space="preserve" text-anchor="middle" x="408.37" y="-239.25" font-family="Helvetica,sans-Serif" font-size="14.00">Bookings</text>
</g>
<!-- gateway&#45;&gt;bookings -->
<g id="edge5" class="edge">
<title>gateway&#45;&gt;bookings</title>
<path fill="none" stroke="black" d="M451.81,-309.42C445.33,-304.02 438.96,-298.06 433.62,-291.8 428.83,-286.19 424.54,-279.52 420.91,-273.03"/>
<polygon fill="black" stroke="black" points="424.19,-271.77 416.47,-264.52 417.98,-275 424.19,-271.77"/>
<text xml:space="preserve" text-anchor="middle" x="459.5" y="-283.25" font-family="Helvetica,sans-Serif" font-size="9.00">sync + OTEL</text>
</g>
<!-- messaging -->
<g id="node7" class="node">
<title>messaging</title>
<path fill="#ccffcc" stroke="black" d="M856.37,-263.05C856.37,-263.05 798.37,-263.05 798.37,-263.05 792.37,-263.05 786.37,-257.05 786.37,-251.05 786.37,-251.05 786.37,-239.05 786.37,-239.05 786.37,-233.05 792.37,-227.05 798.37,-227.05 798.37,-227.05 856.37,-227.05 856.37,-227.05 862.37,-227.05 868.37,-233.05 868.37,-239.05 868.37,-239.05 868.37,-251.05 868.37,-251.05 868.37,-257.05 862.37,-263.05 856.37,-263.05"/>
<text xml:space="preserve" text-anchor="middle" x="827.37" y="-239.25" font-family="Helvetica,sans-Serif" font-size="14.00">Messaging</text>
</g>
<!-- gateway&#45;&gt;messaging -->
<g id="edge6" class="edge">
<title>gateway&#45;&gt;messaging</title>
<path fill="none" stroke="black" d="M572.86,-317.05C627.98,-304.44 701.91,-286.47 775.21,-264.57"/>
<polygon fill="black" stroke="black" points="776,-267.99 784.56,-261.75 773.98,-261.29 776,-267.99"/>
<text xml:space="preserve" text-anchor="middle" x="732.79" y="-283.25" font-family="Helvetica,sans-Serif" font-size="9.00">sync + OTEL</text>
</g>
<!-- media -->
<g id="node11" class="node">
<title>media</title>
<path fill="#ccffcc" stroke="black" d="M67.37,-263.05C67.37,-263.05 37.37,-263.05 37.37,-263.05 31.37,-263.05 25.37,-257.05 25.37,-251.05 25.37,-251.05 25.37,-239.05 25.37,-239.05 25.37,-233.05 31.37,-227.05 37.37,-227.05 37.37,-227.05 67.37,-227.05 67.37,-227.05 73.37,-227.05 79.37,-233.05 79.37,-239.05 79.37,-239.05 79.37,-251.05 79.37,-251.05 79.37,-257.05 73.37,-263.05 67.37,-263.05"/>
<text xml:space="preserve" text-anchor="middle" x="52.37" y="-239.25" font-family="Helvetica,sans-Serif" font-size="14.00">Media</text>
</g>
<!-- gateway&#45;&gt;media -->
<g id="edge7" class="edge">
<title>gateway&#45;&gt;media</title>
<path fill="none" stroke="black" d="M406.26,-327.59C326.52,-318.61 203.11,-300.57 90.42,-264.23"/>
<polygon fill="black" stroke="black" points="91.58,-260.92 80.98,-261.13 89.39,-267.57 91.58,-260.92"/>
<text xml:space="preserve" text-anchor="middle" x="210.94" y="-283.25" font-family="Helvetica,sans-Serif" font-size="9.00">sync + OTEL</text>
</g>
<!-- jaeger -->
<g id="node16" class="node">
<title>jaeger</title>
<path fill="#fff3e0" stroke="black" d="M695.5,-45.5C695.5,-45.5 593.25,-45.5 593.25,-45.5 587.25,-45.5 581.25,-39.5 581.25,-33.5 581.25,-33.5 581.25,-19.5 581.25,-19.5 581.25,-13.5 587.25,-7.5 593.25,-7.5 593.25,-7.5 695.5,-7.5 695.5,-7.5 701.5,-7.5 707.5,-13.5 707.5,-19.5 707.5,-19.5 707.5,-33.5 707.5,-33.5 707.5,-39.5 701.5,-45.5 695.5,-45.5"/>
<text xml:space="preserve" text-anchor="middle" x="644.37" y="-28.2" font-family="Helvetica,sans-Serif" font-size="14.00">Jaeger</text>
<text xml:space="preserve" text-anchor="middle" x="644.37" y="-13.2" font-family="Helvetica,sans-Serif" font-size="14.00">(OTLP traces / UI)</text>
</g>
<!-- gateway&#45;&gt;jaeger -->
<g id="edge26" class="edge">
<title>gateway&#45;&gt;jaeger</title>
<path fill="none" stroke="#666666" stroke-dasharray="1,5" d="M572.86,-335.75C698.7,-334.43 927.81,-323.66 979.37,-264.05 1067.55,-162.13 842.18,-81.6 718.73,-46.56"/>
<polygon fill="#666666" stroke="#666666" points="719.88,-43.24 709.3,-43.92 717.99,-49.98 719.88,-43.24"/>
<text xml:space="preserve" text-anchor="middle" x="1009.74" y="-194.63" font-family="Helvetica,sans-Serif" font-size="9.00">OTLP</text>
</g>
<!-- prom -->
<g id="node17" class="node">
<title>prom</title>
<path fill="#eceff1" stroke="black" d="M260.12,-53C260.12,-53 134.62,-53 134.62,-53 128.62,-53 122.62,-47 122.62,-41 122.62,-41 122.62,-12 122.62,-12 122.62,-6 128.62,0 134.62,0 134.62,0 260.12,0 260.12,0 266.12,0 272.12,-6 272.12,-12 272.12,-12 272.12,-41 272.12,-41 272.12,-47 266.12,-53 260.12,-53"/>
<text xml:space="preserve" text-anchor="middle" x="197.37" y="-35.7" font-family="Helvetica,sans-Serif" font-size="14.00">Prometheus</text>
<text xml:space="preserve" text-anchor="middle" x="197.37" y="-20.7" font-family="Helvetica,sans-Serif" font-size="14.00">+ Grafana + recording</text>
<text xml:space="preserve" text-anchor="middle" x="197.37" y="-5.7" font-family="Helvetica,sans-Serif" font-size="14.00">&amp; alert rules</text>
</g>
<!-- gateway&#45;&gt;prom -->
<g id="edge24" class="edge">
<title>gateway&#45;&gt;prom</title>
<path fill="none" stroke="#666666" stroke-dasharray="1,5" d="M406.1,-335.6C283.58,-334.02 64.06,-322.81 16.37,-264.05 -41.95,-192.2 69.73,-105.2 142.23,-59.35"/>
<polygon fill="#666666" stroke="#666666" points="143.81,-62.49 150.45,-54.23 140.11,-56.54 143.81,-62.49"/>
<text xml:space="preserve" text-anchor="middle" x="32.54" y="-199.5" font-family="Helvetica,sans-Serif" font-size="9.00">/metrics</text>
<text xml:space="preserve" text-anchor="middle" x="32.54" y="-189.75" font-family="Helvetica,sans-Serif" font-size="9.00">(pod scrape)</text>
</g>
<!-- postgres -->
<g id="node15" class="node">
<title>postgres</title>
<path fill="#e6ccff" stroke="black" d="M399.87,-160.9C399.87,-163.52 372.76,-165.65 339.37,-165.65 305.99,-165.65 278.87,-163.52 278.87,-160.9 278.87,-160.9 278.87,-118.15 278.87,-118.15 278.87,-115.53 305.99,-113.4 339.37,-113.4 372.76,-113.4 399.87,-115.53 399.87,-118.15 399.87,-118.15 399.87,-160.9 399.87,-160.9"/>
<path fill="none" stroke="black" d="M399.87,-160.9C399.87,-158.28 372.76,-156.15 339.37,-156.15 305.99,-156.15 278.87,-158.28 278.87,-160.9"/>
<text xml:space="preserve" text-anchor="middle" x="339.37" y="-141.23" font-family="Helvetica,sans-Serif" font-size="14.00">Postgres</text>
<text xml:space="preserve" text-anchor="middle" x="339.37" y="-126.23" font-family="Helvetica,sans-Serif" font-size="14.00">(per&#45;service DBs)</text>
</g>
<!-- auth&#45;&gt;postgres -->
<g id="edge8" class="edge">
<title>auth&#45;&gt;postgres</title>
<path fill="none" stroke="black" d="M462.22,-229.4C459.29,-228.14 456.3,-226.99 453.37,-226.05 429.17,-218.28 357.02,-227.27 340.37,-208.05 333.14,-199.7 331.1,-188.34 331.4,-177.33"/>
<polygon fill="black" stroke="black" points="334.86,-177.9 332.31,-167.62 327.9,-177.25 334.86,-177.9"/>
<text xml:space="preserve" text-anchor="middle" x="349.37" y="-194.63" font-family="Helvetica,sans-Serif" font-size="9.00">SQL</text>
</g>
<!-- kafka -->
<g id="node14" class="node">
<title>kafka</title>
<polygon fill="#ffcc99" stroke="black" points="692.34,-139.53 668.36,-170.55 620.39,-170.55 596.41,-139.53 620.39,-108.5 668.36,-108.5 692.34,-139.53"/>
<text xml:space="preserve" text-anchor="middle" x="644.37" y="-141.23" font-family="Helvetica,sans-Serif" font-size="14.00">Kafka</text>
<text xml:space="preserve" text-anchor="middle" x="644.37" y="-126.23" font-family="Helvetica,sans-Serif" font-size="14.00">(KRaft)</text>
</g>
<!-- listings&#45;&gt;kafka -->
<g id="edge17" class="edge">
<title>listings&#45;&gt;kafka</title>
<path fill="none" stroke="black" stroke-dasharray="5,2" d="M668.5,-227.96C680.11,-221.27 691.24,-213.74 694.37,-208.05 701.76,-194.66 694.71,-180.92 683.82,-169.35"/>
<polygon fill="black" stroke="black" points="686.55,-167.12 676.89,-162.77 681.72,-172.19 686.55,-167.12"/>
<text xml:space="preserve" text-anchor="middle" x="710.91" y="-194.63" font-family="Helvetica,sans-Serif" font-size="9.00">events</text>
</g>
<!-- listings&#45;&gt;postgres -->
<g id="edge9" class="edge">
<title>listings&#45;&gt;postgres</title>
<path fill="none" stroke="black" d="M606.05,-229.62C603.13,-228.38 600.21,-227.17 597.37,-226.05 574.23,-216.94 567.05,-218.29 544.37,-208.05 528.5,-200.89 526.44,-195.29 510.37,-188.55 478.71,-175.27 442.23,-164.45 411.12,-156.47"/>
<polygon fill="black" stroke="black" points="412.38,-153.18 401.83,-154.14 410.67,-159.97 412.38,-153.18"/>
<text xml:space="preserve" text-anchor="middle" x="553.37" y="-194.63" font-family="Helvetica,sans-Serif" font-size="9.00">SQL</text>
</g>
<!-- bookings&#45;&gt;kafka -->
<g id="edge18" class="edge">
<title>bookings&#45;&gt;kafka</title>
<path fill="none" stroke="black" stroke-dasharray="5,2" d="M434.65,-226.6C443,-220.86 452.19,-214.34 460.37,-208.05 471.01,-199.9 471.59,-194.94 483.37,-188.55 517.21,-170.22 558.94,-158.03 591.43,-150.51"/>
<polygon fill="black" stroke="black" points="592.03,-153.97 601.04,-148.38 590.51,-147.13 592.03,-153.97"/>
<text xml:space="preserve" text-anchor="middle" x="496.87" y="-194.63" font-family="Helvetica,sans-Serif" font-size="9.00">events</text>
</g>
<!-- bookings&#45;&gt;postgres -->
<g id="edge10" class="edge">
<title>bookings&#45;&gt;postgres</title>
<path fill="none" stroke="black" d="M372.15,-229.18C369.19,-228.08 366.24,-227.03 363.37,-226.05 335.4,-216.55 317.22,-231.61 299.37,-208.05 291.6,-197.79 295.02,-185.89 302.43,-174.98"/>
<polygon fill="black" stroke="black" points="305.05,-177.3 308.49,-167.28 299.55,-172.97 305.05,-177.3"/>
<text xml:space="preserve" text-anchor="middle" x="308.37" y="-194.63" font-family="Helvetica,sans-Serif" font-size="9.00">SQL</text>
</g>
<!-- messaging&#45;&gt;kafka -->
<g id="edge19" class="edge">
<title>messaging&#45;&gt;kafka</title>
<path fill="none" stroke="black" stroke-dasharray="5,2" d="M814.72,-226.74C805.1,-214.62 790.9,-198.83 775.37,-188.55 751.18,-172.54 720.95,-161 695.63,-153.25"/>
<polygon fill="black" stroke="black" points="696.78,-149.94 686.2,-150.48 694.81,-156.66 696.78,-149.94"/>
<text xml:space="preserve" text-anchor="middle" x="811.1" y="-194.63" font-family="Helvetica,sans-Serif" font-size="9.00">events</text>
</g>
<!-- messaging&#45;&gt;postgres -->
<g id="edge11" class="edge">
<title>messaging&#45;&gt;postgres</title>
<path fill="none" stroke="black" d="M786.08,-228.56C783.15,-227.65 780.23,-226.81 777.37,-226.05 731.59,-213.99 714.28,-230.09 672.37,-208.05 661.66,-202.42 664.14,-194.09 653.37,-188.55 632.25,-177.69 497.38,-159.7 411.4,-149.09"/>
<polygon fill="black" stroke="black" points="411.99,-145.64 401.63,-147.9 411.13,-152.59 411.99,-145.64"/>
<text xml:space="preserve" text-anchor="middle" x="681.37" y="-194.63" font-family="Helvetica,sans-Serif" font-size="9.00">SQL</text>
</g>
<!-- notification -->
<g id="node8" class="node">
<title>notification</title>
<path fill="#ccffcc" stroke="black" d="M756.75,-263.05C756.75,-263.05 698,-263.05 698,-263.05 692,-263.05 686,-257.05 686,-251.05 686,-251.05 686,-239.05 686,-239.05 686,-233.05 692,-227.05 698,-227.05 698,-227.05 756.75,-227.05 756.75,-227.05 762.75,-227.05 768.75,-233.05 768.75,-239.05 768.75,-239.05 768.75,-251.05 768.75,-251.05 768.75,-257.05 762.75,-263.05 756.75,-263.05"/>
<text xml:space="preserve" text-anchor="middle" x="727.37" y="-239.25" font-family="Helvetica,sans-Serif" font-size="14.00">Notification</text>
</g>
<!-- notification&#45;&gt;postgres -->
<g id="edge12" class="edge">
<title>notification&#45;&gt;postgres</title>
<path fill="none" stroke="black" d="M685.68,-228.45C663.63,-220.08 640.14,-210.9 635.37,-208.05 623.87,-201.19 624.51,-194.25 612.37,-188.55 548.59,-158.63 468.47,-147.22 411.56,-142.94"/>
<polygon fill="black" stroke="black" points="411.87,-139.46 401.65,-142.26 411.39,-146.44 411.87,-139.46"/>
<text xml:space="preserve" text-anchor="middle" x="644.37" y="-194.63" font-family="Helvetica,sans-Serif" font-size="9.00">SQL</text>
</g>
<!-- trust -->
<g id="node9" class="node">
<title>trust</title>
<path fill="#ccffcc" stroke="black" d="M576.37,-263.05C576.37,-263.05 546.37,-263.05 546.37,-263.05 540.37,-263.05 534.37,-257.05 534.37,-251.05 534.37,-251.05 534.37,-239.05 534.37,-239.05 534.37,-233.05 540.37,-227.05 546.37,-227.05 546.37,-227.05 576.37,-227.05 576.37,-227.05 582.37,-227.05 588.37,-233.05 588.37,-239.05 588.37,-239.05 588.37,-251.05 588.37,-251.05 588.37,-257.05 582.37,-263.05 576.37,-263.05"/>
<text xml:space="preserve" text-anchor="middle" x="561.37" y="-239.25" font-family="Helvetica,sans-Serif" font-size="14.00">Trust</text>
</g>
<!-- trust&#45;&gt;postgres -->
<g id="edge13" class="edge">
<title>trust&#45;&gt;postgres</title>
<path fill="none" stroke="black" d="M534.17,-229.57C531.24,-228.28 528.27,-227.08 525.37,-226.05 489.77,-213.52 476.22,-224.76 442.37,-208.05 430.36,-202.12 430.27,-196.36 419.37,-188.55 411.06,-182.59 401.98,-176.65 393.01,-171.08"/>
<polygon fill="black" stroke="black" points="395.03,-168.21 384.67,-165.99 391.38,-174.18 395.03,-168.21"/>
<text xml:space="preserve" text-anchor="middle" x="451.37" y="-194.63" font-family="Helvetica,sans-Serif" font-size="9.00">SQL</text>
</g>
<!-- analytics -->
<g id="node10" class="node">
<title>analytics</title>
<path fill="#ccffcc" stroke="black" d="M155.37,-263.05C155.37,-263.05 109.37,-263.05 109.37,-263.05 103.37,-263.05 97.37,-257.05 97.37,-251.05 97.37,-251.05 97.37,-239.05 97.37,-239.05 97.37,-233.05 103.37,-227.05 109.37,-227.05 109.37,-227.05 155.37,-227.05 155.37,-227.05 161.37,-227.05 167.37,-233.05 167.37,-239.05 167.37,-239.05 167.37,-251.05 167.37,-251.05 167.37,-257.05 161.37,-263.05 155.37,-263.05"/>
<text xml:space="preserve" text-anchor="middle" x="132.37" y="-239.25" font-family="Helvetica,sans-Serif" font-size="14.00">Analytics</text>
</g>
<!-- ollama -->
<g id="node13" class="node">
<title>ollama</title>
<path fill="#e8eaf6" stroke="black" d="M342.62,-264.05C342.62,-264.05 250.12,-264.05 250.12,-264.05 244.12,-264.05 238.12,-258.05 238.12,-252.05 238.12,-252.05 238.12,-238.05 238.12,-238.05 238.12,-232.05 244.12,-226.05 250.12,-226.05 250.12,-226.05 342.62,-226.05 342.62,-226.05 348.62,-226.05 354.62,-232.05 354.62,-238.05 354.62,-238.05 354.62,-252.05 354.62,-252.05 354.62,-258.05 348.62,-264.05 342.62,-264.05"/>
<text xml:space="preserve" text-anchor="middle" x="296.37" y="-246.75" font-family="Helvetica,sans-Serif" font-size="14.00">Ollama</text>
<text xml:space="preserve" text-anchor="middle" x="296.37" y="-231.75" font-family="Helvetica,sans-Serif" font-size="14.00">(listing&#45;feel LLM)</text>
</g>
<!-- analytics&#45;&gt;ollama -->
<g id="edge23" class="edge">
<title>analytics&#45;&gt;ollama</title>
<path fill="none" stroke="#5c6bc0" stroke-dasharray="5,2" d="M167.56,-245.05C184.71,-245.05 205.97,-245.05 226.25,-245.05"/>
<polygon fill="#5c6bc0" stroke="#5c6bc0" points="226.19,-248.55 236.19,-245.05 226.19,-241.55 226.19,-248.55"/>
<text xml:space="preserve" text-anchor="middle" x="202.75" y="-259" font-family="Helvetica,sans-Serif" font-size="9.00">HTTP :11434</text>
<text xml:space="preserve" text-anchor="middle" x="202.75" y="-249.25" font-family="Helvetica,sans-Serif" font-size="9.00">(listing&#45;feel)</text>
</g>
<!-- analytics&#45;&gt;postgres -->
<g id="edge14" class="edge">
<title>analytics&#45;&gt;postgres</title>
<path fill="none" stroke="black" d="M167.55,-234.06C187.86,-227.73 213.61,-218.73 235.37,-208.05 256.11,-197.88 277.74,-184.37 295.86,-172.11"/>
<polygon fill="black" stroke="black" points="297.49,-175.24 303.75,-166.7 293.52,-169.47 297.49,-175.24"/>
<text xml:space="preserve" text-anchor="middle" x="277.13" y="-194.63" font-family="Helvetica,sans-Serif" font-size="9.00">SQL</text>
</g>
<!-- analytics&#45;&gt;jaeger -->
<g id="edge30" class="edge">
<title>analytics&#45;&gt;jaeger</title>
<path fill="none" stroke="#e65100" stroke-dasharray="1,5" d="M138.6,-226.59C152.5,-190.48 189.74,-107.89 251.37,-71 303.43,-39.84 470.95,-30.97 569.67,-28.47"/>
<polygon fill="#e65100" stroke="#e65100" points="569.64,-31.97 579.55,-28.23 569.47,-24.97 569.64,-31.97"/>
<text xml:space="preserve" text-anchor="middle" x="217.76" y="-135.85" font-family="Helvetica,sans-Serif" font-size="9.00">OTLP</text>
</g>
<!-- analytics&#45;&gt;prom -->
<g id="edge25" class="edge">
<title>analytics&#45;&gt;prom</title>
<path fill="none" stroke="#666666" stroke-dasharray="1,5" d="M128.21,-226.72C122.71,-200.3 115.29,-148.78 129.87,-108.5 136.16,-91.13 147.98,-74.87 159.99,-61.55"/>
<polygon fill="#666666" stroke="#666666" points="162.49,-64 166.82,-54.33 157.4,-59.19 162.49,-64"/>
<text xml:space="preserve" text-anchor="middle" x="145.62" y="-135.85" font-family="Helvetica,sans-Serif" font-size="9.00">/metrics</text>
</g>
<!-- media&#45;&gt;postgres -->
<g id="edge15" class="edge">
<title>media&#45;&gt;postgres</title>
<path fill="none" stroke="black" d="M79.71,-229.91C82.61,-228.55 85.54,-227.24 88.37,-226.05 147.63,-201.28 216.85,-178.11 267.57,-162.15"/>
<polygon fill="black" stroke="black" points="268.48,-165.53 276.98,-159.2 266.39,-158.85 268.48,-165.53"/>
<text xml:space="preserve" text-anchor="middle" x="192.74" y="-194.63" font-family="Helvetica,sans-Serif" font-size="9.00">SQL</text>
</g>
<!-- event_layer -->
<g id="node12" class="node">
<title>event_layer</title>
<path fill="#c8e6c9" stroke="black" d="M958.12,-263.05C958.12,-263.05 898.62,-263.05 898.62,-263.05 892.62,-263.05 886.62,-257.05 886.62,-251.05 886.62,-251.05 886.62,-239.05 886.62,-239.05 886.62,-233.05 892.62,-227.05 898.62,-227.05 898.62,-227.05 958.12,-227.05 958.12,-227.05 964.12,-227.05 970.12,-233.05 970.12,-239.05 970.12,-239.05 970.12,-251.05 970.12,-251.05 970.12,-257.05 964.12,-263.05 958.12,-263.05"/>
<text xml:space="preserve" text-anchor="middle" x="928.37" y="-239.25" font-family="Helvetica,sans-Serif" font-size="14.00">Event layer</text>
</g>
<!-- event_layer&#45;&gt;kafka -->
<g id="edge16" class="edge">
<title>event_layer&#45;&gt;kafka</title>
<path fill="none" stroke="black" stroke-dasharray="5,2" d="M901.28,-226.56C881.67,-214.52 854.18,-198.89 828.37,-188.55 785.46,-171.36 734.45,-158.61 697.03,-150.58"/>
<polygon fill="black" stroke="black" points="697.87,-147.18 687.36,-148.56 696.43,-154.03 697.87,-147.18"/>
<text xml:space="preserve" text-anchor="middle" x="884.93" y="-194.63" font-family="Helvetica,sans-Serif" font-size="9.00">produce</text>
</g>
<!-- kafka&#45;&gt;notification -->
<g id="edge21" class="edge">
<title>kafka&#45;&gt;notification</title>
<path fill="none" stroke="black" stroke-dasharray="5,2" d="M682.62,-152.4C699.8,-159.86 718.43,-171.41 728.37,-188.55 732.98,-196.49 734.02,-206.21 733.51,-215.28"/>
<polygon fill="black" stroke="black" points="730.05,-214.77 732.3,-225.13 737,-215.63 730.05,-214.77"/>
<text xml:space="preserve" text-anchor="middle" x="752.25" y="-194.63" font-family="Helvetica,sans-Serif" font-size="9.00">consume</text>
</g>
<!-- kafka&#45;&gt;trust -->
<g id="edge22" class="edge">
<title>kafka&#45;&gt;trust</title>
<path fill="none" stroke="black" stroke-dasharray="5,2" d="M609.83,-157.48C597.11,-165.31 583.68,-175.74 574.87,-188.55 569.42,-196.48 566.16,-206.37 564.22,-215.6"/>
<polygon fill="black" stroke="black" points="560.8,-214.81 562.64,-225.24 567.71,-215.94 560.8,-214.81"/>
<text xml:space="preserve" text-anchor="middle" x="593.62" y="-194.63" font-family="Helvetica,sans-Serif" font-size="9.00">consume</text>
</g>
<!-- kafka&#45;&gt;analytics -->
<g id="edge20" class="edge">
<title>kafka&#45;&gt;analytics</title>
<path fill="none" stroke="black" stroke-dasharray="5,2" d="M596.86,-140.66C541.32,-142.65 448.07,-151.84 377.87,-188.55 367.01,-194.23 369.35,-202.59 358.37,-208.05 306.56,-233.86 286.51,-216.77 229.37,-226.05 212.91,-228.73 194.94,-231.97 178.99,-234.97"/>
<polygon fill="black" stroke="black" points="178.44,-231.51 169.27,-236.81 179.75,-238.38 178.44,-231.51"/>
<text xml:space="preserve" text-anchor="middle" x="396.62" y="-194.63" font-family="Helvetica,sans-Serif" font-size="9.00">consume</text>
</g>
<!-- kafka&#45;&gt;jaeger -->
<g id="edge29" class="edge">
<title>kafka&#45;&gt;jaeger</title>
<path fill="none" stroke="#e65100" stroke-dasharray="1,5" d="M644.37,-108.19C644.37,-92.33 644.37,-72.99 644.37,-57.22"/>
<polygon fill="#e65100" stroke="#e65100" points="647.88,-57.49 644.37,-47.49 640.88,-57.49 647.88,-57.49"/>
<text xml:space="preserve" text-anchor="middle" x="666.12" y="-81.95" font-family="Helvetica,sans-Serif" font-size="9.00">trace ctx</text>
<text xml:space="preserve" text-anchor="middle" x="666.12" y="-72.2" font-family="Helvetica,sans-Serif" font-size="9.00">on records</text>
</g>
<!-- kafka&#45;&gt;prom -->
<g id="edge27" class="edge">
<title>kafka&#45;&gt;prom</title>
<path fill="none" stroke="#666666" stroke-dasharray="1,5" d="M604.31,-128.58C532.4,-110.72 379.95,-72.85 283.42,-48.87"/>
<polygon fill="#666666" stroke="#666666" points="284.54,-45.54 273.99,-46.53 282.85,-52.34 284.54,-45.54"/>
<text xml:space="preserve" text-anchor="middle" x="468.64" y="-77.08" font-family="Helvetica,sans-Serif" font-size="9.00">JMX / exp.</text>
</g>
<!-- postgres&#45;&gt;prom -->
<g id="edge28" class="edge">
<title>postgres&#45;&gt;prom</title>
<path fill="none" stroke="#666666" stroke-dasharray="1,5" d="M306.8,-113.06C286.74,-97.37 260.82,-77.11 239.24,-60.24"/>
<polygon fill="#666666" stroke="#666666" points="241.52,-57.57 231.49,-54.17 237.21,-63.09 241.52,-57.57"/>
<text xml:space="preserve" text-anchor="middle" x="293.75" y="-77.08" font-family="Helvetica,sans-Serif" font-size="9.00">exporter</text>
</g>
</g>
</svg>
