<?xml version="1.0" encoding="UTF-8" standalone="no"?>
<!DOCTYPE svg PUBLIC "-//W3C//DTD SVG 1.1//EN"
 "http://www.w3.org/Graphics/SVG/1.1/DTD/svg11.dtd">
<!-- Generated by graphviz version 14.1.4 (20260321.0153)
 -->
<!-- Title: system_poster Pages: 1 -->
<svg width="791pt" height="536pt"
 viewBox="0.00 0.00 791.00 536.00" xmlns="http://www.w3.org/2000/svg" xmlns:xlink="http://www.w3.org/1999/xlink">
<g id="graph0" class="graph" transform="scale(1 1) rotate(0) translate(4 532.29)">
<title>system_poster</title>
<polygon fill="white" stroke="none" points="-4,4 -4,-532.29 787.21,-532.29 787.21,4 -4,4"/>
<text xml:space="preserve" text-anchor="middle" x="391.61" y="-512.89" font-family="Helvetica,sans-Serif" font-size="12.00">Off&#45;Campus Housing — system architecture (poster)</text>
<!-- clients -->
<g id="node1" class="node">
<title>clients</title>
<ellipse fill="#e3f2fd" stroke="black" cx="313.21" cy="-480.67" rx="90.33" ry="26.87"/>
<text xml:space="preserve" text-anchor="middle" x="313.21" y="-482.37" font-family="Helvetica,sans-Serif" font-size="14.00">Clients</text>
<text xml:space="preserve" text-anchor="middle" x="313.21" y="-467.37" font-family="Helvetica,sans-Serif" font-size="14.00">(browsers, mobile)</text>
</g>
<!-- caddy -->
<g id="node2" class="node">
<title>caddy</title>
<path fill="#cce6ff" stroke="black" d="M353.09,-408.05C353.09,-408.05 273.34,-408.05 273.34,-408.05 267.34,-408.05 261.34,-402.05 261.34,-396.05 261.34,-396.05 261.34,-382.05 261.34,-382.05 261.34,-376.05 267.34,-370.05 273.34,-370.05 273.34,-370.05 353.09,-370.05 353.09,-370.05 359.09,-370.05 365.09,-376.05 365.09,-382.05 365.09,-382.05 365.09,-396.05 365.09,-396.05 365.09,-402.05 359.09,-408.05 353.09,-408.05"/>
<text xml:space="preserve" text-anchor="middle" x="313.21" y="-390.75" font-family="Helvetica,sans-Serif" font-size="14.00">Caddy</text>
<text xml:space="preserve" text-anchor="middle" x="313.21" y="-375.75" font-family="Helvetica,sans-Serif" font-size="14.00">(TLS / HTTP3)</text>
</g>
<!-- clients&#45;&gt;caddy -->
<g id="edge1" class="edge">
<title>clients&#45;&gt;caddy</title>
<path fill="none" stroke="black" d="M313.21,-453.75C313.21,-443.12 313.21,-430.76 313.21,-419.76"/>
<polygon fill="black" stroke="black" points="316.71,-420.03 313.21,-410.03 309.71,-420.03 316.71,-420.03"/>
<text xml:space="preserve" text-anchor="middle" x="327.84" y="-427.25" font-family="Helvetica,sans-Serif" font-size="9.00">HTTPS</text>
</g>
<!-- gateway -->
<g id="node3" class="node">
<title>gateway</title>
<path fill="#99ccff" stroke="black" d="M348.96,-324.3C348.96,-324.3 277.46,-324.3 277.46,-324.3 271.46,-324.3 265.46,-318.3 265.46,-312.3 265.46,-312.3 265.46,-300.3 265.46,-300.3 265.46,-294.3 271.46,-288.3 277.46,-288.3 277.46,-288.3 348.96,-288.3 348.96,-288.3 354.96,-288.3 360.96,-294.3 360.96,-300.3 360.96,-300.3 360.96,-312.3 360.96,-312.3 360.96,-318.3 354.96,-324.3 348.96,-324.3"/>
<text xml:space="preserve" text-anchor="middle" x="313.21" y="-300.5" font-family="Helvetica,sans-Serif" font-size="14.00">API Gateway</text>
</g>
<!-- caddy&#45;&gt;gateway -->
<g id="edge2" class="edge">
<title>caddy&#45;&gt;gateway</title>
<path fill="none" stroke="black" d="M313.21,-369.73C313.21,-359.82 313.21,-347.35 313.21,-336.17"/>
<polygon fill="black" stroke="black" points="316.71,-336.24 313.21,-326.24 309.71,-336.24 316.71,-336.24"/>
<text xml:space="preserve" text-anchor="middle" x="332.34" y="-343.5" font-family="Helvetica,sans-Serif" font-size="9.00">terminate</text>
</g>
<!-- auth -->
<g id="node4" class="node">
<title>auth</title>
<path fill="#ccffcc" stroke="black" d="M699.21,-242.55C699.21,-242.55 669.21,-242.55 669.21,-242.55 663.21,-242.55 657.21,-236.55 657.21,-230.55 657.21,-230.55 657.21,-218.55 657.21,-218.55 657.21,-212.55 663.21,-206.55 669.21,-206.55 669.21,-206.55 699.21,-206.55 699.21,-206.55 705.21,-206.55 711.21,-212.55 711.21,-218.55 711.21,-218.55 711.21,-230.55 711.21,-230.55 711.21,-236.55 705.21,-242.55 699.21,-242.55"/>
<text xml:space="preserve" text-anchor="middle" x="684.21" y="-218.75" font-family="Helvetica,sans-Serif" font-size="14.00">Auth</text>
</g>
<!-- gateway&#45;&gt;auth -->
<g id="edge3" class="edge">
<title>gateway&#45;&gt;auth</title>
<path fill="none" stroke="black" d="M361.32,-300.22C425.07,-292.63 540.84,-275.89 646.18,-242.76"/>
<polygon fill="black" stroke="black" points="647.1,-246.14 655.55,-239.75 644.96,-239.48 647.1,-246.14"/>
<text xml:space="preserve" text-anchor="middle" x="585.8" y="-261.75" font-family="Helvetica,sans-Serif" font-size="9.00">sync</text>
</g>
<!-- listings -->
<g id="node5" class="node">
<title>listings</title>
<path fill="#ccffcc" stroke="black" d="M439.09,-242.55C439.09,-242.55 401.34,-242.55 401.34,-242.55 395.34,-242.55 389.34,-236.55 389.34,-230.55 389.34,-230.55 389.34,-218.55 389.34,-218.55 389.34,-212.55 395.34,-206.55 401.34,-206.55 401.34,-206.55 439.09,-206.55 439.09,-206.55 445.09,-206.55 451.09,-212.55 451.09,-218.55 451.09,-218.55 451.09,-230.55 451.09,-230.55 451.09,-236.55 445.09,-242.55 439.09,-242.55"/>
<text xml:space="preserve" text-anchor="middle" x="420.21" y="-218.75" font-family="Helvetica,sans-Serif" font-size="14.00">Listings</text>
</g>
<!-- gateway&#45;&gt;listings -->
<g id="edge4" class="edge">
<title>gateway&#45;&gt;listings</title>
<path fill="none" stroke="black" d="M336.43,-288C351.57,-276.71 371.54,-261.83 388.19,-249.42"/>
<polygon fill="black" stroke="black" points="389.9,-252.51 395.83,-243.73 385.72,-246.9 389.9,-252.51"/>
<text xml:space="preserve" text-anchor="middle" x="382.5" y="-261.75" font-family="Helvetica,sans-Serif" font-size="9.00">sync</text>
</g>
<!-- bookings -->
<g id="node6" class="node">
<title>bookings</title>
<path fill="#ccffcc" stroke="black" d="M286.96,-242.55C286.96,-242.55 239.46,-242.55 239.46,-242.55 233.46,-242.55 227.46,-236.55 227.46,-230.55 227.46,-230.55 227.46,-218.55 227.46,-218.55 227.46,-212.55 233.46,-206.55 239.46,-206.55 239.46,-206.55 286.96,-206.55 286.96,-206.55 292.96,-206.55 298.96,-212.55 298.96,-218.55 298.96,-218.55 298.96,-230.55 298.96,-230.55 298.96,-236.55 292.96,-242.55 286.96,-242.55"/>
<text xml:space="preserve" text-anchor="middle" x="263.21" y="-218.75" font-family="Helvetica,sans-Serif" font-size="14.00">Bookings</text>
</g>
<!-- gateway&#45;&gt;bookings -->
<g id="edge5" class="edge">
<title>gateway&#45;&gt;bookings</title>
<path fill="none" stroke="black" d="M302.36,-288C295.88,-277.65 287.5,-264.28 280.15,-252.57"/>
<polygon fill="black" stroke="black" points="283.12,-250.72 274.85,-244.11 277.19,-254.44 283.12,-250.72"/>
<text xml:space="preserve" text-anchor="middle" x="300.58" y="-261.75" font-family="Helvetica,sans-Serif" font-size="9.00">sync</text>
</g>
<!-- messaging -->
<g id="node7" class="node">
<title>messaging</title>
<path fill="#ccffcc" stroke="black" d="M197.21,-242.55C197.21,-242.55 139.21,-242.55 139.21,-242.55 133.21,-242.55 127.21,-236.55 127.21,-230.55 127.21,-230.55 127.21,-218.55 127.21,-218.55 127.21,-212.55 133.21,-206.55 139.21,-206.55 139.21,-206.55 197.21,-206.55 197.21,-206.55 203.21,-206.55 209.21,-212.55 209.21,-218.55 209.21,-218.55 209.21,-230.55 209.21,-230.55 209.21,-236.55 203.21,-242.55 197.21,-242.55"/>
<text xml:space="preserve" text-anchor="middle" x="168.21" y="-218.75" font-family="Helvetica,sans-Serif" font-size="14.00">Messaging</text>
</g>
<!-- gateway&#45;&gt;messaging -->
<g id="edge6" class="edge">
<title>gateway&#45;&gt;messaging</title>
<path fill="none" stroke="black" d="M281.75,-288C260.64,-276.39 232.6,-260.97 209.67,-248.35"/>
<polygon fill="black" stroke="black" points="211.64,-245.44 201.19,-243.69 208.27,-251.58 211.64,-245.44"/>
<text xml:space="preserve" text-anchor="middle" x="258.77" y="-261.75" font-family="Helvetica,sans-Serif" font-size="9.00">sync</text>
</g>
<!-- media -->
<g id="node11" class="node">
<title>media</title>
<path fill="#ccffcc" stroke="black" d="M771.21,-242.55C771.21,-242.55 741.21,-242.55 741.21,-242.55 735.21,-242.55 729.21,-236.55 729.21,-230.55 729.21,-230.55 729.21,-218.55 729.21,-218.55 729.21,-212.55 735.21,-206.55 741.21,-206.55 741.21,-206.55 771.21,-206.55 771.21,-206.55 777.21,-206.55 783.21,-212.55 783.21,-218.55 783.21,-218.55 783.21,-230.55 783.21,-230.55 783.21,-236.55 777.21,-242.55 771.21,-242.55"/>
<text xml:space="preserve" text-anchor="middle" x="756.21" y="-218.75" font-family="Helvetica,sans-Serif" font-size="14.00">Media</text>
</g>
<!-- gateway&#45;&gt;media -->
<g id="edge7" class="edge">
<title>gateway&#45;&gt;media</title>
<path fill="none" stroke="black" d="M361.26,-300.96C418.27,-295.45 516.07,-284.89 599.21,-270.3 650.27,-261.35 666.17,-260.66 718.38,-242.84"/>
<polygon fill="black" stroke="black" points="719.22,-246.25 727.52,-239.67 716.93,-239.64 719.22,-246.25"/>
<text xml:space="preserve" text-anchor="middle" x="663.79" y="-261.75" font-family="Helvetica,sans-Serif" font-size="9.00">sync</text>
</g>
<!-- prom -->
<g id="node15" class="node">
<title>prom</title>
<path fill="#f0f0f0" stroke="black" d="M257.71,-53C257.71,-53 184.71,-53 184.71,-53 178.71,-53 172.71,-47 172.71,-41 172.71,-41 172.71,-12 172.71,-12 172.71,-6 178.71,0 184.71,0 184.71,0 257.71,0 257.71,0 263.71,0 269.71,-6 269.71,-12 269.71,-12 269.71,-41 269.71,-41 269.71,-47 263.71,-53 257.71,-53"/>
<text xml:space="preserve" text-anchor="middle" x="221.21" y="-35.7" font-family="Helvetica,sans-Serif" font-size="14.00">Prometheus /</text>
<text xml:space="preserve" text-anchor="middle" x="221.21" y="-20.7" font-family="Helvetica,sans-Serif" font-size="14.00">Grafana /</text>
<text xml:space="preserve" text-anchor="middle" x="221.21" y="-5.7" font-family="Helvetica,sans-Serif" font-size="14.00">Alerts</text>
</g>
<!-- gateway&#45;&gt;prom -->
<g id="edge23" class="edge">
<title>gateway&#45;&gt;prom</title>
<path fill="none" stroke="#666666" stroke-dasharray="1,5" d="M265.2,-302.34C189.08,-296.52 46.15,-280.69 15.21,-242.55 -43.51,-170.17 82.65,-93.08 162.41,-53.81"/>
<polygon fill="#666666" stroke="#666666" points="163.53,-57.15 171.01,-49.64 160.48,-50.85 163.53,-57.15"/>
<text xml:space="preserve" text-anchor="middle" x="19.24" y="-180" font-family="Helvetica,sans-Serif" font-size="9.00">metrics</text>
</g>
<!-- postgres -->
<g id="node14" class="node">
<title>postgres</title>
<path fill="#e6ccff" stroke="black" d="M576.71,-151.15C576.71,-153.77 549.6,-155.9 516.21,-155.9 482.83,-155.9 455.71,-153.77 455.71,-151.15 455.71,-151.15 455.71,-108.4 455.71,-108.4 455.71,-105.78 482.83,-103.65 516.21,-103.65 549.6,-103.65 576.71,-105.78 576.71,-108.4 576.71,-108.4 576.71,-151.15 576.71,-151.15"/>
<path fill="none" stroke="black" d="M576.71,-151.15C576.71,-148.53 549.6,-146.4 516.21,-146.4 482.83,-146.4 455.71,-148.53 455.71,-151.15"/>
<text xml:space="preserve" text-anchor="middle" x="516.21" y="-131.48" font-family="Helvetica,sans-Serif" font-size="14.00">Postgres</text>
<text xml:space="preserve" text-anchor="middle" x="516.21" y="-116.48" font-family="Helvetica,sans-Serif" font-size="14.00">(per&#45;service DBs)</text>
</g>
<!-- auth&#45;&gt;postgres -->
<g id="edge8" class="edge">
<title>auth&#45;&gt;postgres</title>
<path fill="none" stroke="black" d="M679.32,-206.19C675.9,-196.91 670.44,-185.96 662.21,-178.8 641.43,-160.72 613.66,-149.42 587.92,-142.36"/>
<polygon fill="black" stroke="black" points="589.06,-139.04 578.51,-139.96 587.33,-145.82 589.06,-139.04"/>
<text xml:space="preserve" text-anchor="middle" x="679.17" y="-180" font-family="Helvetica,sans-Serif" font-size="9.00">SQL</text>
</g>
<!-- kafka -->
<g id="node13" class="node">
<title>kafka</title>
<polygon fill="#ffcc99" stroke="black" points="269.18,-129.78 245.2,-160.8 197.23,-160.8 173.24,-129.78 197.23,-98.75 245.2,-98.75 269.18,-129.78"/>
<text xml:space="preserve" text-anchor="middle" x="221.21" y="-131.48" font-family="Helvetica,sans-Serif" font-size="14.00">Kafka</text>
<text xml:space="preserve" text-anchor="middle" x="221.21" y="-116.48" font-family="Helvetica,sans-Serif" font-size="14.00">(KRaft)</text>
</g>
<!-- listings&#45;&gt;kafka -->
<g id="edge17" class="edge">
<title>listings&#45;&gt;kafka</title>
<path fill="none" stroke="black" stroke-dasharray="5,2" d="M389.01,-209.53C386.07,-208.44 383.1,-207.42 380.21,-206.55 338.23,-193.9 322.37,-208.29 283.21,-188.55 272.87,-183.34 263.02,-175.87 254.34,-168.02"/>
<polygon fill="black" stroke="black" points="256.82,-165.54 247.17,-161.16 251.98,-170.6 256.82,-165.54"/>
<text xml:space="preserve" text-anchor="middle" x="296.71" y="-180" font-family="Helvetica,sans-Serif" font-size="9.00">events</text>
</g>
<!-- listings&#45;&gt;postgres -->
<g id="edge9" class="edge">
<title>listings&#45;&gt;postgres</title>
<path fill="none" stroke="black" d="M451.59,-210.03C470.25,-201.76 490.93,-192.1 494.21,-188.55 499.81,-182.5 504.03,-174.88 507.19,-167.18"/>
<polygon fill="black" stroke="black" points="510.47,-168.41 510.5,-157.81 503.87,-166.08 510.47,-168.41"/>
<text xml:space="preserve" text-anchor="middle" x="510.18" y="-180" font-family="Helvetica,sans-Serif" font-size="9.00">SQL</text>
</g>
<!-- bookings&#45;&gt;kafka -->
<g id="edge18" class="edge">
<title>bookings&#45;&gt;kafka</title>
<path fill="none" stroke="black" stroke-dasharray="5,2" d="M226.97,-209.88C201.78,-200.33 172.65,-189.19 172.21,-188.55 164.87,-177.86 170.46,-166.83 180.1,-157.31"/>
<polygon fill="black" stroke="black" points="182.11,-160.2 187.39,-151.02 177.54,-154.9 182.11,-160.2"/>
<text xml:space="preserve" text-anchor="middle" x="185.71" y="-180" font-family="Helvetica,sans-Serif" font-size="9.00">events</text>
</g>
<!-- bookings&#45;&gt;postgres -->
<g id="edge10" class="edge">
<title>bookings&#45;&gt;postgres</title>
<path fill="none" stroke="black" d="M299.37,-209.22C302.34,-208.25 305.31,-207.34 308.21,-206.55 353.47,-194.21 367.98,-204.16 412.21,-188.55 415.17,-187.51 438.67,-174.49 462.58,-161.07"/>
<polygon fill="black" stroke="black" points="464.11,-164.22 471.12,-156.27 460.68,-158.12 464.11,-164.22"/>
<text xml:space="preserve" text-anchor="middle" x="438.9" y="-180" font-family="Helvetica,sans-Serif" font-size="9.00">SQL</text>
</g>
<!-- messaging&#45;&gt;kafka -->
<g id="edge19" class="edge">
<title>messaging&#45;&gt;kafka</title>
<path fill="none" stroke="black" stroke-dasharray="5,2" d="M146.25,-206.47C138.45,-198.27 132.79,-188.2 138.21,-178.8 146.04,-165.23 159.34,-155.14 173.02,-147.81"/>
<polygon fill="black" stroke="black" points="174.17,-151.15 181.62,-143.62 171.1,-144.86 174.17,-151.15"/>
<text xml:space="preserve" text-anchor="middle" x="151.71" y="-180" font-family="Helvetica,sans-Serif" font-size="9.00">events</text>
</g>
<!-- messaging&#45;&gt;postgres -->
<g id="edge11" class="edge">
<title>messaging&#45;&gt;postgres</title>
<path fill="none" stroke="black" d="M209.49,-208.77C212.42,-207.95 215.35,-207.2 218.21,-206.55 285,-191.45 305.71,-208.5 371.21,-188.55 380.29,-185.79 381.54,-182.67 390.21,-178.8 407.65,-171.04 426.76,-163.34 444.71,-156.47"/>
<polygon fill="black" stroke="black" points="445.89,-159.76 454,-152.94 443.41,-153.22 445.89,-159.76"/>
<text xml:space="preserve" text-anchor="middle" x="399.21" y="-180" font-family="Helvetica,sans-Serif" font-size="9.00">SQL</text>
</g>
<!-- notification -->
<g id="node8" class="node">
<title>notification</title>
<path fill="#ccffcc" stroke="black" d="M627.59,-242.55C627.59,-242.55 568.84,-242.55 568.84,-242.55 562.84,-242.55 556.84,-236.55 556.84,-230.55 556.84,-230.55 556.84,-218.55 556.84,-218.55 556.84,-212.55 562.84,-206.55 568.84,-206.55 568.84,-206.55 627.59,-206.55 627.59,-206.55 633.59,-206.55 639.59,-212.55 639.59,-218.55 639.59,-218.55 639.59,-230.55 639.59,-230.55 639.59,-236.55 633.59,-242.55 627.59,-242.55"/>
<text xml:space="preserve" text-anchor="middle" x="598.21" y="-218.75" font-family="Helvetica,sans-Serif" font-size="14.00">Notification</text>
</g>
<!-- notification&#45;&gt;postgres -->
<g id="edge12" class="edge">
<title>notification&#45;&gt;postgres</title>
<path fill="none" stroke="black" d="M627.51,-206.07C637.04,-198.11 643.7,-188.35 637.21,-178.8 625.64,-161.76 606.98,-150.77 587.74,-143.68"/>
<polygon fill="black" stroke="black" points="589.06,-140.43 578.47,-140.6 586.86,-147.07 589.06,-140.43"/>
<text xml:space="preserve" text-anchor="middle" x="648.8" y="-180" font-family="Helvetica,sans-Serif" font-size="9.00">SQL</text>
</g>
<!-- trust -->
<g id="node9" class="node">
<title>trust</title>
<path fill="#ccffcc" stroke="black" d="M359.21,-242.55C359.21,-242.55 329.21,-242.55 329.21,-242.55 323.21,-242.55 317.21,-236.55 317.21,-230.55 317.21,-230.55 317.21,-218.55 317.21,-218.55 317.21,-212.55 323.21,-206.55 329.21,-206.55 329.21,-206.55 359.21,-206.55 359.21,-206.55 365.21,-206.55 371.21,-212.55 371.21,-218.55 371.21,-218.55 371.21,-230.55 371.21,-230.55 371.21,-236.55 365.21,-242.55 359.21,-242.55"/>
<text xml:space="preserve" text-anchor="middle" x="344.21" y="-218.75" font-family="Helvetica,sans-Serif" font-size="14.00">Trust</text>
</g>
<!-- trust&#45;&gt;postgres -->
<g id="edge13" class="edge">
<title>trust&#45;&gt;postgres</title>
<path fill="none" stroke="black" d="M371.49,-209.98C374.4,-208.74 377.35,-207.57 380.21,-206.55 411.7,-195.36 423.76,-204.34 453.21,-188.55 465.05,-182.21 476.39,-173.13 486.11,-164.05"/>
<polygon fill="black" stroke="black" points="488.42,-166.68 493.12,-157.18 483.52,-161.68 488.42,-166.68"/>
<text xml:space="preserve" text-anchor="middle" x="475.97" y="-180" font-family="Helvetica,sans-Serif" font-size="9.00">SQL</text>
</g>
<!-- analytics -->
<g id="node10" class="node">
<title>analytics</title>
<path fill="#ccffcc" stroke="black" d="M527.21,-242.55C527.21,-242.55 481.21,-242.55 481.21,-242.55 475.21,-242.55 469.21,-236.55 469.21,-230.55 469.21,-230.55 469.21,-218.55 469.21,-218.55 469.21,-212.55 475.21,-206.55 481.21,-206.55 481.21,-206.55 527.21,-206.55 527.21,-206.55 533.21,-206.55 539.21,-212.55 539.21,-218.55 539.21,-218.55 539.21,-230.55 539.21,-230.55 539.21,-236.55 533.21,-242.55 527.21,-242.55"/>
<text xml:space="preserve" text-anchor="middle" x="504.21" y="-218.75" font-family="Helvetica,sans-Serif" font-size="14.00">Analytics</text>
</g>
<!-- analytics&#45;&gt;postgres -->
<g id="edge14" class="edge">
<title>analytics&#45;&gt;postgres</title>
<path fill="none" stroke="black" d="M523.79,-206.38C528.43,-201.17 532.74,-195.08 535.21,-188.55 537.82,-181.69 537.6,-174.28 535.91,-167.15"/>
<polygon fill="black" stroke="black" points="539.23,-166.04 532.71,-157.69 532.6,-168.29 539.23,-166.04"/>
<text xml:space="preserve" text-anchor="middle" x="546.13" y="-180" font-family="Helvetica,sans-Serif" font-size="9.00">SQL</text>
</g>
<!-- media&#45;&gt;postgres -->
<g id="edge15" class="edge">
<title>media&#45;&gt;postgres</title>
<path fill="none" stroke="black" d="M735.43,-206.26C723.43,-197.01 707.68,-186.05 692.21,-178.8 659.36,-163.41 620.67,-152.17 587.94,-144.46"/>
<polygon fill="black" stroke="black" points="589.09,-141.13 578.57,-142.31 587.53,-147.96 589.09,-141.13"/>
<text xml:space="preserve" text-anchor="middle" x="718.1" y="-180" font-family="Helvetica,sans-Serif" font-size="9.00">SQL</text>
</g>
<!-- event_layer -->
<g id="node12" class="node">
<title>event_layer</title>
<path fill="#c8e6c9" stroke="black" d="M95.96,-242.55C95.96,-242.55 36.46,-242.55 36.46,-242.55 30.46,-242.55 24.46,-236.55 24.46,-230.55 24.46,-230.55 24.46,-218.55 24.46,-218.55 24.46,-212.55 30.46,-206.55 36.46,-206.55 36.46,-206.55 95.96,-206.55 95.96,-206.55 101.96,-206.55 107.96,-212.55 107.96,-218.55 107.96,-218.55 107.96,-230.55 107.96,-230.55 107.96,-236.55 101.96,-242.55 95.96,-242.55"/>
<text xml:space="preserve" text-anchor="middle" x="66.21" y="-218.75" font-family="Helvetica,sans-Serif" font-size="14.00">Event layer</text>
</g>
<!-- event_layer&#45;&gt;kafka -->
<g id="edge16" class="edge">
<title>event_layer&#45;&gt;kafka</title>
<path fill="none" stroke="black" stroke-dasharray="5,2" d="M75.34,-206.37C80.97,-197.15 88.93,-186.2 98.46,-178.8 119.46,-162.52 146.66,-151.13 170.12,-143.54"/>
<polygon fill="black" stroke="black" points="170.97,-146.94 179.5,-140.66 168.91,-140.25 170.97,-146.94"/>
<text xml:space="preserve" text-anchor="middle" x="115.34" y="-180" font-family="Helvetica,sans-Serif" font-size="9.00">produce</text>
</g>
<!-- kafka&#45;&gt;notification -->
<g id="edge21" class="edge">
<title>kafka&#45;&gt;notification</title>
<path fill="none" stroke="black" stroke-dasharray="5,2" d="M264.41,-136.52C354.1,-148.49 552.77,-175.3 559.21,-178.8 567.49,-183.3 574.83,-190.29 580.85,-197.42"/>
<polygon fill="black" stroke="black" points="577.93,-199.37 586.8,-205.15 583.47,-195.09 577.93,-199.37"/>
<text xml:space="preserve" text-anchor="middle" x="590.92" y="-180" font-family="Helvetica,sans-Serif" font-size="9.00">consume</text>
</g>
<!-- kafka&#45;&gt;trust -->
<g id="edge22" class="edge">
<title>kafka&#45;&gt;trust</title>
<path fill="none" stroke="black" stroke-dasharray="5,2" d="M215.02,-161.3C214.76,-170.97 216.48,-181.08 222.71,-188.55 245.53,-215.94 267.49,-197.79 306.18,-206.77"/>
<polygon fill="black" stroke="black" points="304.94,-210.05 315.52,-209.46 306.88,-203.33 304.94,-210.05"/>
<text xml:space="preserve" text-anchor="middle" x="241.46" y="-180" font-family="Helvetica,sans-Serif" font-size="9.00">consume</text>
</g>
<!-- kafka&#45;&gt;analytics -->
<g id="edge20" class="edge">
<title>kafka&#45;&gt;analytics</title>
<path fill="none" stroke="black" stroke-dasharray="5,2" d="M254.49,-149.43C281.61,-164.33 317.92,-183.53 333.71,-188.55 384.56,-204.72 403.02,-193.75 457.83,-206.37"/>
<polygon fill="black" stroke="black" points="456.88,-209.74 467.43,-208.75 458.57,-202.95 456.88,-209.74"/>
<text xml:space="preserve" text-anchor="middle" x="352.46" y="-180" font-family="Helvetica,sans-Serif" font-size="9.00">consume</text>
</g>
<!-- kafka&#45;&gt;prom -->
<g id="edge24" class="edge">
<title>kafka&#45;&gt;prom</title>
<path fill="none" stroke="#666666" stroke-dasharray="1,5" d="M221.21,-98.39C221.21,-87.86 221.21,-75.94 221.21,-64.92"/>
<polygon fill="#666666" stroke="#666666" points="224.71,-64.93 221.21,-54.93 217.71,-64.93 224.71,-64.93"/>
<text xml:space="preserve" text-anchor="middle" x="242.21" y="-72.2" font-family="Helvetica,sans-Serif" font-size="9.00">JMX / exp.</text>
</g>
<!-- postgres&#45;&gt;prom -->
<g id="edge25" class="edge">
<title>postgres&#45;&gt;prom</title>
<path fill="none" stroke="#666666" stroke-dasharray="1,5" d="M455.45,-107.92C404.38,-90.38 331.79,-65.46 281,-48.03"/>
<polygon fill="#666666" stroke="#666666" points="282.22,-44.74 271.62,-44.81 279.94,-51.36 282.22,-44.74"/>
<text xml:space="preserve" text-anchor="middle" x="385.59" y="-72.2" font-family="Helvetica,sans-Serif" font-size="9.00">exporter</text>
</g>
</g>
</svg>
