<?xml version="1.0" encoding="UTF-8" standalone="no"?>
<!DOCTYPE svg PUBLIC "-//W3C//DTD SVG 1.1//EN"
 "http://www.w3.org/Graphics/SVG/1.1/DTD/svg11.dtd">
<!-- Generated by graphviz version 12.2.1 (20241206.2353)
 -->
<!-- Title: physical Pages: 1 -->
<svg width="1135pt" height="1288pt"
 viewBox="0.00 0.00 1134.50 1287.50" xmlns="http://www.w3.org/2000/svg" xmlns:xlink="http://www.w3.org/1999/xlink">
<g id="graph0" class="graph" transform="scale(1 1) rotate(0) translate(4 1283.5)">
<title>physical</title>
<polygon fill="white" stroke="none" points="-4,4 -4,-1283.5 1130.5,-1283.5 1130.5,4 -4,4"/>
<text text-anchor="middle" x="563.25" y="-1265.05" font-family="Times,serif" font-size="11.00">Physical: analytics (analytics)</text>
<g id="clust1" class="cluster">
<title>cluster_analytics</title>
<polygon fill="lightgrey" stroke="lightgrey" points="8,-8 8,-1250 1118.5,-1250 1118.5,-8 8,-8"/>
<text text-anchor="middle" x="563.25" y="-1235.55" font-family="Times,serif" font-size="11.00">Schema: analytics</text>
</g>
<!-- analytics_daily_metrics -->
<g id="node1" class="node">
<title>analytics_daily_metrics</title>
<polygon fill="none" stroke="black" points="73.38,-17 73.38,-157 427.88,-157 427.88,-17 73.38,-17"/>
<text text-anchor="middle" x="121.88" y="-81.95" font-family="Helvetica Neue" font-size="14.00">daily_metrics</text>
<polyline fill="none" stroke="black" points="170.38,-17 170.38,-157"/>
<text text-anchor="start" x="178.38" y="-139.7" font-family="Helvetica Neue" font-size="14.00">date : date</text>
<text text-anchor="start" x="178.38" y="-123.2" font-family="Helvetica Neue" font-size="14.00">new_users : integer</text>
<text text-anchor="start" x="178.38" y="-106.7" font-family="Helvetica Neue" font-size="14.00">new_listings : integer</text>
<text text-anchor="start" x="178.38" y="-90.2" font-family="Helvetica Neue" font-size="14.00">new_bookings : integer</text>
<text text-anchor="start" x="178.38" y="-73.7" font-family="Helvetica Neue" font-size="14.00">completed_bookings : integer</text>
<text text-anchor="start" x="178.38" y="-57.2" font-family="Helvetica Neue" font-size="14.00">messages_sent : integer</text>
<text text-anchor="start" x="178.38" y="-40.7" font-family="Helvetica Neue" font-size="14.00">listings_flagged : integer</text>
<text text-anchor="middle" x="299.12" y="-24.2" font-family="Helvetica Neue" font-size="14.00">updated_at : timestamp with time zone</text>
</g>
<!-- analytics_events -->
<g id="node2" class="node">
<title>analytics_events</title>
<polygon fill="none" stroke="black" points="95.88,-176.25 95.88,-299.75 405.38,-299.75 405.38,-176.25 95.88,-176.25"/>
<text text-anchor="middle" x="124.12" y="-232.95" font-family="Helvetica Neue" font-size="14.00">events</text>
<polyline fill="none" stroke="black" points="152.38,-176.25 152.38,-299.75"/>
<text text-anchor="start" x="160.38" y="-282.45" font-family="Helvetica Neue" font-size="14.00">id : uuid</text>
<text text-anchor="start" x="160.38" y="-265.95" font-family="Helvetica Neue" font-size="14.00">event_type : text</text>
<text text-anchor="start" x="160.38" y="-249.45" font-family="Helvetica Neue" font-size="14.00">event_version : integer</text>
<text text-anchor="start" x="160.38" y="-232.95" font-family="Helvetica Neue" font-size="14.00">payload : jsonb</text>
<text text-anchor="start" x="160.38" y="-216.45" font-family="Helvetica Neue" font-size="14.00">source_service : text</text>
<text text-anchor="start" x="160.38" y="-199.95" font-family="Helvetica Neue" font-size="14.00">created_at : timestamp with time zone</text>
<text text-anchor="middle" x="278.88" y="-183.45" font-family="Helvetica Neue" font-size="14.00">event_id : uuid</text>
</g>
<!-- analytics_listing_feel_cache -->
<g id="node3" class="node">
<title>analytics_listing_feel_cache</title>
<polygon fill="none" stroke="black" points="61.38,-318.5 61.38,-425.5 439.88,-425.5 439.88,-318.5 61.38,-318.5"/>
<text text-anchor="middle" x="124.12" y="-366.95" font-family="Helvetica Neue" font-size="14.00">listing_feel_cache</text>
<polyline fill="none" stroke="black" points="186.88,-318.5 186.88,-425.5"/>
<text text-anchor="start" x="194.88" y="-408.2" font-family="Helvetica Neue" font-size="14.00">id : uuid</text>
<text text-anchor="start" x="194.88" y="-391.7" font-family="Helvetica Neue" font-size="14.00">content_hash : text</text>
<text text-anchor="start" x="194.88" y="-375.2" font-family="Helvetica Neue" font-size="14.00">audience : text</text>
<text text-anchor="start" x="194.88" y="-358.7" font-family="Helvetica Neue" font-size="14.00">model : text</text>
<text text-anchor="start" x="194.88" y="-342.2" font-family="Helvetica Neue" font-size="14.00">analysis_text : text</text>
<text text-anchor="middle" x="313.38" y="-325.7" font-family="Helvetica Neue" font-size="14.00">created_at : timestamp with time zone</text>
</g>
<!-- analytics_processed_events -->
<g id="node4" class="node">
<title>analytics_processed_events</title>
<polygon fill="none" stroke="black" points="50.88,-444.5 50.88,-485.5 450.38,-485.5 450.38,-444.5 50.88,-444.5"/>
<text text-anchor="middle" x="115.12" y="-459.95" font-family="Helvetica Neue" font-size="14.00">processed_events</text>
<polyline fill="none" stroke="black" points="179.38,-444.5 179.38,-485.5"/>
<text text-anchor="start" x="187.38" y="-468.2" font-family="Helvetica Neue" font-size="14.00">event_id : uuid</text>
<text text-anchor="middle" x="314.88" y="-451.7" font-family="Helvetica Neue" font-size="14.00">processed_at : timestamp with time zone</text>
</g>
<!-- analytics_projection_state -->
<g id="node5" class="node">
<title>analytics_projection_state</title>
<polygon fill="none" stroke="black" points="64,-504.25 64,-561.75 437.25,-561.75 437.25,-504.25 64,-504.25"/>
<text text-anchor="middle" x="121.88" y="-527.95" font-family="Helvetica Neue" font-size="14.00">projection_state</text>
<polyline fill="none" stroke="black" points="179.75,-504.25 179.75,-561.75"/>
<text text-anchor="start" x="187.75" y="-544.45" font-family="Helvetica Neue" font-size="14.00">projection_name : text</text>
<text text-anchor="start" x="187.75" y="-527.95" font-family="Helvetica Neue" font-size="14.00">last_processed_event_id : uuid</text>
<text text-anchor="middle" x="308.5" y="-511.45" font-family="Helvetica Neue" font-size="14.00">updated_at : timestamp with time zone</text>
</g>
<!-- analytics_projection_versions -->
<g id="node6" class="node">
<title>analytics_projection_versions</title>
<polygon fill="none" stroke="black" points="53.88,-581.25 53.88,-638.75 447.38,-638.75 447.38,-581.25 53.88,-581.25"/>
<text text-anchor="middle" x="121.88" y="-604.95" font-family="Helvetica Neue" font-size="14.00">projection_versions</text>
<polyline fill="none" stroke="black" points="189.88,-581.25 189.88,-638.75"/>
<text text-anchor="start" x="197.88" y="-621.45" font-family="Helvetica Neue" font-size="14.00">name : text</text>
<text text-anchor="start" x="197.88" y="-604.95" font-family="Helvetica Neue" font-size="14.00">version : integer</text>
<text text-anchor="middle" x="318.62" y="-588.45" font-family="Helvetica Neue" font-size="14.00">updated_at : timestamp with time zone</text>
</g>
<!-- analytics_recommendation_experiments -->
<g id="node7" class="node">
<title>analytics_recommendation_experiments</title>
<polygon fill="none" stroke="black" points="21.62,-657.5 21.62,-764.5 479.62,-764.5 479.62,-657.5 21.62,-657.5"/>
<text text-anchor="middle" x="124.12" y="-705.95" font-family="Helvetica Neue" font-size="14.00">recommendation_experiments</text>
<polyline fill="none" stroke="black" points="226.62,-657.5 226.62,-764.5"/>
<text text-anchor="start" x="234.62" y="-747.2" font-family="Helvetica Neue" font-size="14.00">id : integer</text>
<text text-anchor="start" x="234.62" y="-730.7" font-family="Helvetica Neue" font-size="14.00">name : text</text>
<text text-anchor="start" x="234.62" y="-714.2" font-family="Helvetica Neue" font-size="14.00">model_id : integer</text>
<text text-anchor="start" x="234.62" y="-697.7" font-family="Helvetica Neue" font-size="14.00">traffic_percentage : integer</text>
<text text-anchor="start" x="234.62" y="-681.2" font-family="Helvetica Neue" font-size="14.00">is_active : boolean</text>
<text text-anchor="middle" x="353.12" y="-664.7" font-family="Helvetica Neue" font-size="14.00">created_at : timestamp with time zone</text>
</g>
<!-- analytics_recommendation_models -->
<g id="node8" class="node">
<title>analytics_recommendation_models</title>
<polygon fill="none" stroke="black" points="683.25,-705.75 683.25,-796.25 1110.5,-796.25 1110.5,-705.75 683.25,-705.75"/>
<text text-anchor="middle" x="770.38" y="-745.95" font-family="Helvetica Neue" font-size="14.00">recommendation_models</text>
<polyline fill="none" stroke="black" points="857.5,-705.75 857.5,-796.25"/>
<text text-anchor="start" x="865.5" y="-778.95" font-family="Helvetica Neue" font-size="14.00">id : integer</text>
<text text-anchor="start" x="865.5" y="-762.45" font-family="Helvetica Neue" font-size="14.00">name : text</text>
<text text-anchor="start" x="865.5" y="-745.95" font-family="Helvetica Neue" font-size="14.00">version : text</text>
<text text-anchor="start" x="865.5" y="-729.45" font-family="Helvetica Neue" font-size="14.00">is_active : boolean</text>
<text text-anchor="middle" x="984" y="-712.95" font-family="Helvetica Neue" font-size="14.00">created_at : timestamp with time zone</text>
</g>
<!-- analytics_recommendation_experiments&#45;&gt;analytics_recommendation_models -->
<g id="edge1" class="edge">
<title>analytics_recommendation_experiments&#45;&gt;analytics_recommendation_models</title>
<path fill="none" stroke="black" d="M480.12,-725.19C542.42,-729.05 609.82,-733.24 671.86,-737.09"/>
<polygon fill="black" stroke="black" points="671.27,-740.56 681.47,-737.69 671.71,-733.57 671.27,-740.56"/>
<text text-anchor="middle" x="584.25" y="-738.66" font-family="Helvetica Neue" font-size="8.00">recommendation_experiments_model_id_fkey</text>
</g>
<!-- analytics_recommendation_weights -->
<g id="node9" class="node">
<title>analytics_recommendation_weights</title>
<polygon fill="none" stroke="black" points="93.25,-783.5 93.25,-890.5 408,-890.5 408,-783.5 93.25,-783.5"/>
<text text-anchor="middle" x="181.5" y="-831.95" font-family="Helvetica Neue" font-size="14.00">recommendation_weights</text>
<polyline fill="none" stroke="black" points="269.75,-783.5 269.75,-890.5"/>
<text text-anchor="start" x="277.75" y="-873.2" font-family="Helvetica Neue" font-size="14.00">model_id : integer</text>
<text text-anchor="start" x="277.75" y="-856.7" font-family="Helvetica Neue" font-size="14.00">distance : numeric</text>
<text text-anchor="start" x="277.75" y="-840.2" font-family="Helvetica Neue" font-size="14.00">price : numeric</text>
<text text-anchor="start" x="277.75" y="-823.7" font-family="Helvetica Neue" font-size="14.00">popularity : numeric</text>
<text text-anchor="start" x="277.75" y="-807.2" font-family="Helvetica Neue" font-size="14.00">trust : numeric</text>
<text text-anchor="middle" x="338.88" y="-790.7" font-family="Helvetica Neue" font-size="14.00">recency : numeric</text>
</g>
<!-- analytics_recommendation_weights&#45;&gt;analytics_recommendation_models -->
<g id="edge2" class="edge">
<title>analytics_recommendation_weights&#45;&gt;analytics_recommendation_models</title>
<path fill="none" stroke="black" d="M408.4,-816.07C487.44,-805.52 584.69,-792.54 671.49,-780.95"/>
<polygon fill="black" stroke="black" points="671.89,-784.43 681.34,-779.64 670.97,-777.49 671.89,-784.43"/>
<text text-anchor="middle" x="584.25" y="-804.6" font-family="Helvetica Neue" font-size="8.00">recommendation_weights_model_id_fkey</text>
</g>
<!-- analytics_user_activity -->
<g id="node10" class="node">
<title>analytics_user_activity</title>
<polygon fill="none" stroke="black" points="75.62,-909.75 75.62,-1000.25 425.62,-1000.25 425.62,-909.75 75.62,-909.75"/>
<text text-anchor="middle" x="121.88" y="-949.95" font-family="Helvetica Neue" font-size="14.00">user_activity</text>
<polyline fill="none" stroke="black" points="168.12,-909.75 168.12,-1000.25"/>
<text text-anchor="start" x="176.12" y="-982.95" font-family="Helvetica Neue" font-size="14.00">user_id : uuid</text>
<text text-anchor="start" x="176.12" y="-966.45" font-family="Helvetica Neue" font-size="14.00">listings_created : integer</text>
<text text-anchor="start" x="176.12" y="-949.95" font-family="Helvetica Neue" font-size="14.00">bookings_made : integer</text>
<text text-anchor="start" x="176.12" y="-933.45" font-family="Helvetica Neue" font-size="14.00">messages_sent : integer</text>
<text text-anchor="middle" x="296.88" y="-916.95" font-family="Helvetica Neue" font-size="14.00">updated_at : timestamp with time zone</text>
</g>
<!-- analytics_user_listing_engagement -->
<g id="node11" class="node">
<title>analytics_user_listing_engagement</title>
<polygon fill="none" stroke="black" points="16,-1019.75 16,-1110.25 485.25,-1110.25 485.25,-1019.75 16,-1019.75"/>
<text text-anchor="middle" x="100.88" y="-1059.95" font-family="Helvetica Neue" font-size="14.00">user_listing_engagement</text>
<polyline fill="none" stroke="black" points="185.75,-1019.75 185.75,-1110.25"/>
<text text-anchor="start" x="193.75" y="-1092.95" font-family="Helvetica Neue" font-size="14.00">user_id : uuid</text>
<text text-anchor="start" x="193.75" y="-1076.45" font-family="Helvetica Neue" font-size="14.00">listing_id : uuid</text>
<text text-anchor="start" x="193.75" y="-1059.95" font-family="Helvetica Neue" font-size="14.00">messages_sent : integer</text>
<text text-anchor="start" x="193.75" y="-1043.45" font-family="Helvetica Neue" font-size="14.00">bookings : integer</text>
<text text-anchor="middle" x="335.5" y="-1026.95" font-family="Helvetica Neue" font-size="14.00">last_interaction_at : timestamp with time zone</text>
</g>
<!-- analytics_user_watchlist_daily -->
<g id="node12" class="node">
<title>analytics_user_watchlist_daily</title>
<polygon fill="none" stroke="black" points="52.38,-1129.75 52.38,-1220.25 448.88,-1220.25 448.88,-1129.75 52.38,-1129.75"/>
<text text-anchor="middle" x="121.88" y="-1169.95" font-family="Helvetica Neue" font-size="14.00">user_watchlist_daily</text>
<polyline fill="none" stroke="black" points="191.38,-1129.75 191.38,-1220.25"/>
<text text-anchor="start" x="199.38" y="-1202.95" font-family="Helvetica Neue" font-size="14.00">user_id : uuid</text>
<text text-anchor="start" x="199.38" y="-1186.45" font-family="Helvetica Neue" font-size="14.00">day : date</text>
<text text-anchor="start" x="199.38" y="-1169.95" font-family="Helvetica Neue" font-size="14.00">adds : integer</text>
<text text-anchor="start" x="199.38" y="-1153.45" font-family="Helvetica Neue" font-size="14.00">removes : integer</text>
<text text-anchor="middle" x="320.12" y="-1136.95" font-family="Helvetica Neue" font-size="14.00">updated_at : timestamp with time zone</text>
</g>
</g>
</svg>
