<?xml version="1.0" encoding="UTF-8" standalone="no"?>
<!DOCTYPE svg PUBLIC "-//W3C//DTD SVG 1.1//EN"
 "http://www.w3.org/Graphics/SVG/1.1/DTD/svg11.dtd">
<!-- Generated by graphviz version 12.2.1 (20241206.2353)
 -->
<!-- Title: physical Pages: 1 -->
<svg width="895pt" height="1146pt"
 viewBox="0.00 0.00 894.50 1145.50" xmlns="http://www.w3.org/2000/svg" xmlns:xlink="http://www.w3.org/1999/xlink">
<g id="graph0" class="graph" transform="scale(1 1) rotate(0) translate(4 1141.5)">
<title>physical</title>
<polygon fill="white" stroke="none" points="-4,4 -4,-1141.5 890.5,-1141.5 890.5,4 -4,4"/>
<text text-anchor="middle" x="443.25" y="-1123.05" font-family="Times,serif" font-size="11.00">Physical: auth (auth)</text>
<g id="clust1" class="cluster">
<title>cluster_auth</title>
<polygon fill="lightgrey" stroke="lightgrey" points="8,-8 8,-1108 878.5,-1108 878.5,-8 8,-8"/>
<text text-anchor="middle" x="443.25" y="-1093.55" font-family="Times,serif" font-size="11.00">Schema: auth</text>
</g>
<!-- auth_mfa_settings -->
<g id="node1" class="node">
<title>auth_mfa_settings</title>
<polygon fill="none" stroke="black" points="35.88,-16.25 35.88,-139.75 388.88,-139.75 388.88,-16.25 35.88,-16.25"/>
<text text-anchor="middle" x="83.62" y="-72.95" font-family="Helvetica Neue" font-size="14.00">mfa_settings</text>
<polyline fill="none" stroke="black" points="131.38,-16.25 131.38,-139.75"/>
<text text-anchor="start" x="139.38" y="-122.45" font-family="Helvetica Neue" font-size="14.00">id : uuid</text>
<text text-anchor="start" x="139.38" y="-105.95" font-family="Helvetica Neue" font-size="14.00">user_id : uuid</text>
<text text-anchor="start" x="139.38" y="-89.45" font-family="Helvetica Neue" font-size="14.00">totp_secret : text</text>
<text text-anchor="start" x="139.38" y="-72.95" font-family="Helvetica Neue" font-size="14.00">backup_codes : text[]</text>
<text text-anchor="start" x="139.38" y="-56.45" font-family="Helvetica Neue" font-size="14.00">enabled : boolean</text>
<text text-anchor="start" x="139.38" y="-39.95" font-family="Helvetica Neue" font-size="14.00">created_at : timestamp with time zone</text>
<text text-anchor="middle" x="260.12" y="-23.45" font-family="Helvetica Neue" font-size="14.00">updated_at : timestamp with time zone</text>
</g>
<!-- auth_users -->
<g id="node7" class="node">
<title>auth_users</title>
<polygon fill="none" stroke="black" points="564,-323.25 564,-512.75 870.5,-512.75 870.5,-323.25 564,-323.25"/>
<text text-anchor="middle" x="588.5" y="-412.95" font-family="Helvetica Neue" font-size="14.00">users</text>
<polyline fill="none" stroke="black" points="613,-323.25 613,-512.75"/>
<text text-anchor="start" x="621" y="-495.45" font-family="Helvetica Neue" font-size="14.00">id : uuid</text>
<text text-anchor="start" x="621" y="-478.95" font-family="Helvetica Neue" font-size="14.00">email : citext</text>
<text text-anchor="start" x="621" y="-462.45" font-family="Helvetica Neue" font-size="14.00">password_hash : text</text>
<text text-anchor="start" x="621" y="-445.95" font-family="Helvetica Neue" font-size="14.00">settings : jsonb</text>
<text text-anchor="start" x="621" y="-429.45" font-family="Helvetica Neue" font-size="14.00">created_at : timestamp with time zone</text>
<text text-anchor="start" x="621" y="-412.95" font-family="Helvetica Neue" font-size="14.00">phone : text</text>
<text text-anchor="start" x="621" y="-396.45" font-family="Helvetica Neue" font-size="14.00">email_verified : boolean</text>
<text text-anchor="start" x="621" y="-379.95" font-family="Helvetica Neue" font-size="14.00">phone_verified : boolean</text>
<text text-anchor="start" x="621" y="-363.45" font-family="Helvetica Neue" font-size="14.00">mfa_enabled : boolean</text>
<text text-anchor="start" x="621" y="-346.95" font-family="Helvetica Neue" font-size="14.00">updated_at : timestamp with time zone</text>
<text text-anchor="middle" x="741.75" y="-330.45" font-family="Helvetica Neue" font-size="14.00">default_address_id : uuid</text>
</g>
<!-- auth_mfa_settings&#45;&gt;auth_users -->
<g id="edge1" class="edge">
<title>auth_mfa_settings&#45;&gt;auth_users</title>
<path fill="none" stroke="black" d="M389.01,-139.1C395.77,-142.59 402.37,-146.22 408.75,-150 484.96,-195.16 560.12,-260.18 617.05,-314.87"/>
<polygon fill="black" stroke="black" points="614.61,-317.37 624.23,-321.81 619.47,-312.34 614.61,-317.37"/>
<text text-anchor="middle" x="486.38" y="-251.55" font-family="Helvetica Neue" font-size="8.00">mfa_settings_user_id_fkey</text>
</g>
<!-- auth_oauth_providers -->
<g id="node2" class="node">
<title>auth_oauth_providers</title>
<polygon fill="none" stroke="black" points="25.75,-159 25.75,-299 399,-299 399,-159 25.75,-159"/>
<text text-anchor="middle" x="83.62" y="-223.95" font-family="Helvetica Neue" font-size="14.00">oauth_providers</text>
<polyline fill="none" stroke="black" points="141.5,-159 141.5,-299"/>
<text text-anchor="start" x="149.5" y="-281.7" font-family="Helvetica Neue" font-size="14.00">id : uuid</text>
<text text-anchor="start" x="149.5" y="-265.2" font-family="Helvetica Neue" font-size="14.00">user_id : uuid</text>
<text text-anchor="start" x="149.5" y="-248.7" font-family="Helvetica Neue" font-size="14.00">provider : text</text>
<text text-anchor="start" x="149.5" y="-232.2" font-family="Helvetica Neue" font-size="14.00">provider_user_id : text</text>
<text text-anchor="start" x="149.5" y="-215.7" font-family="Helvetica Neue" font-size="14.00">email : text</text>
<text text-anchor="start" x="149.5" y="-199.2" font-family="Helvetica Neue" font-size="14.00">profile_data : jsonb</text>
<text text-anchor="start" x="149.5" y="-182.7" font-family="Helvetica Neue" font-size="14.00">created_at : timestamp with time zone</text>
<text text-anchor="middle" x="270.25" y="-166.2" font-family="Helvetica Neue" font-size="14.00">updated_at : timestamp with time zone</text>
</g>
<!-- auth_oauth_providers&#45;&gt;auth_users -->
<g id="edge2" class="edge">
<title>auth_oauth_providers&#45;&gt;auth_users</title>
<path fill="none" stroke="black" d="M399.2,-298.84C449.64,-317.8 503.86,-338.18 552.95,-356.63"/>
<polygon fill="black" stroke="black" points="551.67,-359.88 562.26,-360.12 554.13,-353.33 551.67,-359.88"/>
<text text-anchor="middle" x="486.38" y="-354.37" font-family="Helvetica Neue" font-size="8.00">oauth_providers_user_id_fkey</text>
</g>
<!-- auth_passkey_challenges -->
<g id="node3" class="node">
<title>auth_passkey_challenges</title>
<polygon fill="none" stroke="black" points="16,-318.5 16,-425.5 408.75,-425.5 408.75,-318.5 16,-318.5"/>
<text text-anchor="middle" x="85.88" y="-366.95" font-family="Helvetica Neue" font-size="14.00">passkey_challenges</text>
<polyline fill="none" stroke="black" points="155.75,-318.5 155.75,-425.5"/>
<text text-anchor="start" x="163.75" y="-408.2" font-family="Helvetica Neue" font-size="14.00">id : uuid</text>
<text text-anchor="start" x="163.75" y="-391.7" font-family="Helvetica Neue" font-size="14.00">user_id : uuid</text>
<text text-anchor="start" x="163.75" y="-375.2" font-family="Helvetica Neue" font-size="14.00">challenge : text</text>
<text text-anchor="start" x="163.75" y="-358.7" font-family="Helvetica Neue" font-size="14.00">type : text</text>
<text text-anchor="start" x="163.75" y="-342.2" font-family="Helvetica Neue" font-size="14.00">expires_at : timestamp with time zone</text>
<text text-anchor="middle" x="282.25" y="-325.7" font-family="Helvetica Neue" font-size="14.00">created_at : timestamp with time zone</text>
</g>
<!-- auth_passkey_challenges&#45;&gt;auth_users -->
<g id="edge3" class="edge">
<title>auth_passkey_challenges&#45;&gt;auth_users</title>
<path fill="none" stroke="black" d="M409.24,-389.92C456.63,-394.25 506.79,-398.84 552.52,-403.02"/>
<polygon fill="black" stroke="black" points="551.95,-406.49 562.23,-403.91 552.59,-399.51 551.95,-406.49"/>
<text text-anchor="middle" x="486.38" y="-404.71" font-family="Helvetica Neue" font-size="8.00">passkey_challenges_user_id_fkey</text>
</g>
<!-- auth_passkeys -->
<g id="node4" class="node">
<title>auth_passkeys</title>
<polygon fill="none" stroke="black" points="43.38,-444.75 43.38,-601.25 381.38,-601.25 381.38,-444.75 43.38,-444.75"/>
<text text-anchor="middle" x="80.25" y="-517.95" font-family="Helvetica Neue" font-size="14.00">passkeys</text>
<polyline fill="none" stroke="black" points="117.12,-444.75 117.12,-601.25"/>
<text text-anchor="start" x="125.12" y="-583.95" font-family="Helvetica Neue" font-size="14.00">id : uuid</text>
<text text-anchor="start" x="125.12" y="-567.45" font-family="Helvetica Neue" font-size="14.00">user_id : uuid</text>
<text text-anchor="start" x="125.12" y="-550.95" font-family="Helvetica Neue" font-size="14.00">credential_id : text</text>
<text text-anchor="start" x="125.12" y="-534.45" font-family="Helvetica Neue" font-size="14.00">public_key : text</text>
<text text-anchor="start" x="125.12" y="-517.95" font-family="Helvetica Neue" font-size="14.00">counter : bigint</text>
<text text-anchor="start" x="125.12" y="-501.45" font-family="Helvetica Neue" font-size="14.00">device_name : text</text>
<text text-anchor="start" x="125.12" y="-484.95" font-family="Helvetica Neue" font-size="14.00">device_type : text</text>
<text text-anchor="start" x="125.12" y="-468.45" font-family="Helvetica Neue" font-size="14.00">last_used_at : timestamp with time zone</text>
<text text-anchor="middle" x="249.25" y="-451.95" font-family="Helvetica Neue" font-size="14.00">created_at : timestamp with time zone</text>
</g>
<!-- auth_passkeys&#45;&gt;auth_users -->
<g id="edge4" class="edge">
<title>auth_passkeys&#45;&gt;auth_users</title>
<path fill="none" stroke="black" d="M381.87,-487.82C436.88,-476.33 497.86,-463.6 552.51,-452.19"/>
<polygon fill="black" stroke="black" points="553.16,-455.63 562.23,-450.16 551.73,-448.78 553.16,-455.63"/>
<text text-anchor="middle" x="486.38" y="-479.69" font-family="Helvetica Neue" font-size="8.00">passkeys_user_id_fkey</text>
</g>
<!-- auth_sessions -->
<g id="node5" class="node">
<title>auth_sessions</title>
<polygon fill="none" stroke="black" points="51.25,-620 51.25,-694 373.5,-694 373.5,-620 51.25,-620"/>
<text text-anchor="middle" x="85.88" y="-651.95" font-family="Helvetica Neue" font-size="14.00">sessions</text>
<polyline fill="none" stroke="black" points="120.5,-620 120.5,-694"/>
<text text-anchor="start" x="128.5" y="-676.7" font-family="Helvetica Neue" font-size="14.00">id : uuid</text>
<text text-anchor="start" x="128.5" y="-660.2" font-family="Helvetica Neue" font-size="14.00">user_id : uuid</text>
<text text-anchor="start" x="128.5" y="-643.7" font-family="Helvetica Neue" font-size="14.00">expires_at : timestamp with time zone</text>
<text text-anchor="middle" x="247" y="-627.2" font-family="Helvetica Neue" font-size="14.00">created_at : timestamp with time zone</text>
</g>
<!-- auth_sessions&#45;&gt;auth_users -->
<g id="edge5" class="edge">
<title>auth_sessions&#45;&gt;auth_users</title>
<path fill="none" stroke="black" d="M373.89,-623.78C385.84,-619.92 397.58,-615.67 408.75,-611 466.51,-586.86 525.73,-552.4 576.59,-519.27"/>
<polygon fill="black" stroke="black" points="578.29,-522.34 584.73,-513.93 574.45,-516.49 578.29,-522.34"/>
<text text-anchor="middle" x="486.38" y="-602" font-family="Helvetica Neue" font-size="8.00">sessions_user_id_fkey</text>
</g>
<!-- auth_user_addresses -->
<g id="node6" class="node">
<title>auth_user_addresses</title>
<polygon fill="none" stroke="black" points="27.25,-713 27.25,-919 397.5,-919 397.5,-713 27.25,-713"/>
<text text-anchor="middle" x="83.62" y="-810.95" font-family="Helvetica Neue" font-size="14.00">user_addresses</text>
<polyline fill="none" stroke="black" points="140,-713 140,-919"/>
<text text-anchor="start" x="148" y="-901.7" font-family="Helvetica Neue" font-size="14.00">id : uuid</text>
<text text-anchor="start" x="148" y="-885.2" font-family="Helvetica Neue" font-size="14.00">user_id : uuid</text>
<text text-anchor="start" x="148" y="-868.7" font-family="Helvetica Neue" font-size="14.00">label : character varying(64)</text>
<text text-anchor="start" x="148" y="-852.2" font-family="Helvetica Neue" font-size="14.00">country_code : character(2)</text>
<text text-anchor="start" x="148" y="-835.7" font-family="Helvetica Neue" font-size="14.00">region : character varying(128)</text>
<text text-anchor="start" x="148" y="-819.2" font-family="Helvetica Neue" font-size="14.00">postal_code : character varying(32)</text>
<text text-anchor="start" x="148" y="-802.7" font-family="Helvetica Neue" font-size="14.00">address_line1 : character varying(256)</text>
<text text-anchor="start" x="148" y="-786.2" font-family="Helvetica Neue" font-size="14.00">address_line2 : character varying(256)</text>
<text text-anchor="start" x="148" y="-769.7" font-family="Helvetica Neue" font-size="14.00">city : character varying(128)</text>
<text text-anchor="start" x="148" y="-753.2" font-family="Helvetica Neue" font-size="14.00">is_default : boolean</text>
<text text-anchor="start" x="148" y="-736.7" font-family="Helvetica Neue" font-size="14.00">created_at : timestamp with time zone</text>
<text text-anchor="middle" x="268.75" y="-720.2" font-family="Helvetica Neue" font-size="14.00">updated_at : timestamp with time zone</text>
</g>
<!-- auth_verification_codes -->
<g id="node8" class="node">
<title>auth_verification_codes</title>
<polygon fill="none" stroke="black" points="21.62,-938 21.62,-1078 403.12,-1078 403.12,-938 21.62,-938"/>
<text text-anchor="middle" x="85.88" y="-1002.95" font-family="Helvetica Neue" font-size="14.00">verification_codes</text>
<polyline fill="none" stroke="black" points="150.12,-938 150.12,-1078"/>
<text text-anchor="start" x="158.12" y="-1060.7" font-family="Helvetica Neue" font-size="14.00">id : uuid</text>
<text text-anchor="start" x="158.12" y="-1044.2" font-family="Helvetica Neue" font-size="14.00">user_id : uuid</text>
<text text-anchor="start" x="158.12" y="-1027.7" font-family="Helvetica Neue" font-size="14.00">type : text</text>
<text text-anchor="start" x="158.12" y="-1011.2" font-family="Helvetica Neue" font-size="14.00">target : text</text>
<text text-anchor="start" x="158.12" y="-994.7" font-family="Helvetica Neue" font-size="14.00">code : text</text>
<text text-anchor="start" x="158.12" y="-978.2" font-family="Helvetica Neue" font-size="14.00">expires_at : timestamp with time zone</text>
<text text-anchor="start" x="158.12" y="-961.7" font-family="Helvetica Neue" font-size="14.00">used : boolean</text>
<text text-anchor="middle" x="276.62" y="-945.2" font-family="Helvetica Neue" font-size="14.00">created_at : timestamp with time zone</text>
</g>
<!-- auth_verification_codes&#45;&gt;auth_users -->
<g id="edge6" class="edge">
<title>auth_verification_codes&#45;&gt;auth_users</title>
<path fill="none" stroke="black" d="M397.96,-937.61C401.67,-934.84 405.27,-931.97 408.75,-929 538.75,-818.01 628.97,-637.65 676.64,-523.55"/>
<polygon fill="black" stroke="black" points="679.82,-525.04 680.41,-514.46 673.35,-522.37 679.82,-525.04"/>
<text text-anchor="middle" x="486.38" y="-910.48" font-family="Helvetica Neue" font-size="8.00">verification_codes_user_id_fkey</text>
</g>
</g>
</svg>
