<?xml version="1.0" encoding="UTF-8" standalone="no"?>
<!DOCTYPE svg PUBLIC "-//W3C//DTD SVG 1.1//EN"
 "http://www.w3.org/Graphics/SVG/1.1/DTD/svg11.dtd">
<!-- Generated by graphviz version 12.2.1 (20241206.2353)
 -->
<!-- Title: physical Pages: 1 -->
<svg width="832pt" height="394pt"
 viewBox="0.00 0.00 831.50 393.50" xmlns="http://www.w3.org/2000/svg" xmlns:xlink="http://www.w3.org/1999/xlink">
<g id="graph0" class="graph" transform="scale(1 1) rotate(0) translate(4 389.5)">
<title>physical</title>
<polygon fill="white" stroke="none" points="-4,4 -4,-389.5 827.5,-389.5 827.5,4 -4,4"/>
<text text-anchor="middle" x="411.75" y="-371.05" font-family="Times,serif" font-size="11.00">Physical: listings (listings)</text>
<g id="clust1" class="cluster">
<title>cluster_listings</title>
<polygon fill="lightgrey" stroke="lightgrey" points="8,-8 8,-356 815.5,-356 815.5,-8 8,-8"/>
<text text-anchor="middle" x="411.75" y="-341.55" font-family="Times,serif" font-size="11.00">Schema: listings</text>
</g>
<!-- listings_listing_media -->
<g id="node1" class="node">
<title>listings_listing_media</title>
<polygon fill="none" stroke="black" points="40.75,-16.5 40.75,-123.5 390.75,-123.5 390.75,-16.5 40.75,-16.5"/>
<text text-anchor="middle" x="89.25" y="-64.95" font-family="Helvetica Neue" font-size="14.00">listing_media</text>
<polyline fill="none" stroke="black" points="137.75,-16.5 137.75,-123.5"/>
<text text-anchor="start" x="145.75" y="-106.2" font-family="Helvetica Neue" font-size="14.00">id : uuid</text>
<text text-anchor="start" x="145.75" y="-89.7" font-family="Helvetica Neue" font-size="14.00">listing_id : uuid</text>
<text text-anchor="start" x="145.75" y="-73.2" font-family="Helvetica Neue" font-size="14.00">media_type : text</text>
<text text-anchor="start" x="145.75" y="-56.7" font-family="Helvetica Neue" font-size="14.00">url_or_path : text</text>
<text text-anchor="start" x="145.75" y="-40.2" font-family="Helvetica Neue" font-size="14.00">sort_order : integer</text>
<text text-anchor="middle" x="264.25" y="-23.7" font-family="Helvetica Neue" font-size="14.00">created_at : timestamp with time zone</text>
</g>
<!-- listings_listings -->
<g id="node2" class="node">
<title>listings_listings</title>
<polygon fill="none" stroke="black" points="548.25,-17 548.25,-289 807.5,-289 807.5,-17 548.25,-17"/>
<text text-anchor="middle" x="577.62" y="-147.95" font-family="Helvetica Neue" font-size="14.00">listings</text>
<polyline fill="none" stroke="black" points="607,-17 607,-289"/>
<text text-anchor="start" x="615" y="-271.7" font-family="Helvetica Neue" font-size="14.00">id : uuid</text>
<text text-anchor="start" x="615" y="-255.2" font-family="Helvetica Neue" font-size="14.00">user_id : uuid</text>
<text text-anchor="start" x="615" y="-238.7" font-family="Helvetica Neue" font-size="14.00">username_display : text</text>
<text text-anchor="start" x="615" y="-222.2" font-family="Helvetica Neue" font-size="14.00">title : text</text>
<text text-anchor="start" x="615" y="-205.7" font-family="Helvetica Neue" font-size="14.00">listed_at : date</text>
<text text-anchor="start" x="615" y="-189.2" font-family="Helvetica Neue" font-size="14.00">price_cents : integer</text>
<text text-anchor="start" x="615" y="-172.7" font-family="Helvetica Neue" font-size="14.00">lease_length_months : integer</text>
<text text-anchor="start" x="615" y="-156.2" font-family="Helvetica Neue" font-size="14.00">size_sqft : integer</text>
<text text-anchor="start" x="615" y="-139.7" font-family="Helvetica Neue" font-size="14.00">description : text</text>
<text text-anchor="start" x="615" y="-123.2" font-family="Helvetica Neue" font-size="14.00">amenities : jsonb</text>
<text text-anchor="start" x="615" y="-106.7" font-family="Helvetica Neue" font-size="14.00">smoke_free : boolean</text>
<text text-anchor="start" x="615" y="-90.2" font-family="Helvetica Neue" font-size="14.00">pet_friendly : boolean</text>
<text text-anchor="start" x="615" y="-73.7" font-family="Helvetica Neue" font-size="14.00">furnished : boolean</text>
<text text-anchor="start" x="615" y="-57.2" font-family="Helvetica Neue" font-size="14.00">effective_from : date</text>
<text text-anchor="start" x="615" y="-40.7" font-family="Helvetica Neue" font-size="14.00">effective_until : date</text>
<text text-anchor="middle" x="707.25" y="-24.2" font-family="Helvetica Neue" font-size="14.00">status : listings.listing_status</text>
</g>
<!-- listings_listing_media&#45;&gt;listings_listings -->
<g id="edge1" class="edge">
<title>listings_listing_media&#45;&gt;listings_listings</title>
<path fill="none" stroke="black" d="M391.03,-101.44C439.2,-110.13 490.85,-119.44 536.8,-127.73"/>
<polygon fill="black" stroke="black" points="536.1,-131.16 546.56,-129.49 537.34,-124.27 536.1,-131.16"/>
<text text-anchor="middle" x="481.88" y="-129.05" font-family="Helvetica Neue" font-size="8.00">listing_media_listing_id_fkey</text>
</g>
<!-- listings_outbox_events -->
<g id="node3" class="node">
<title>listings_outbox_events</title>
<polygon fill="none" stroke="black" points="35.5,-142.25 35.5,-265.75 396,-265.75 396,-142.25 35.5,-142.25"/>
<text text-anchor="middle" x="89.25" y="-198.95" font-family="Helvetica Neue" font-size="14.00">outbox_events</text>
<polyline fill="none" stroke="black" points="143,-142.25 143,-265.75"/>
<text text-anchor="start" x="151" y="-248.45" font-family="Helvetica Neue" font-size="14.00">id : uuid</text>
<text text-anchor="start" x="151" y="-231.95" font-family="Helvetica Neue" font-size="14.00">aggregate_id : text</text>
<text text-anchor="start" x="151" y="-215.45" font-family="Helvetica Neue" font-size="14.00">type : text</text>
<text text-anchor="start" x="151" y="-198.95" font-family="Helvetica Neue" font-size="14.00">version : integer</text>
<text text-anchor="start" x="151" y="-182.45" font-family="Helvetica Neue" font-size="14.00">payload : bytea</text>
<text text-anchor="start" x="151" y="-165.95" font-family="Helvetica Neue" font-size="14.00">created_at : timestamp with time zone</text>
<text text-anchor="middle" x="269.5" y="-149.45" font-family="Helvetica Neue" font-size="14.00">published : boolean</text>
</g>
<!-- listings_processed_events -->
<g id="node4" class="node">
<title>listings_processed_events</title>
<polygon fill="none" stroke="black" points="16,-284.5 16,-325.5 415.5,-325.5 415.5,-284.5 16,-284.5"/>
<text text-anchor="middle" x="80.25" y="-299.95" font-family="Helvetica Neue" font-size="14.00">processed_events</text>
<polyline fill="none" stroke="black" points="144.5,-284.5 144.5,-325.5"/>
<text text-anchor="start" x="152.5" y="-308.2" font-family="Helvetica Neue" font-size="14.00">event_id : uuid</text>
<text text-anchor="middle" x="280" y="-291.7" font-family="Helvetica Neue" font-size="14.00">processed_at : timestamp with time zone</text>
</g>
</g>
</svg>
