<?xml version="1.0" encoding="UTF-8" standalone="no"?>
<!DOCTYPE svg PUBLIC "-//W3C//DTD SVG 1.1//EN"
 "http://www.w3.org/Graphics/SVG/1.1/DTD/svg11.dtd">
<!-- Generated by graphviz version 12.2.1 (20241206.2353)
 -->
<!-- Title: physical Pages: 1 -->
<svg width="401pt" height="384pt"
 viewBox="0.00 0.00 400.50 383.50" xmlns="http://www.w3.org/2000/svg" xmlns:xlink="http://www.w3.org/1999/xlink">
<g id="graph0" class="graph" transform="scale(1 1) rotate(0) translate(4 379.5)">
<title>physical</title>
<polygon fill="white" stroke="none" points="-4,4 -4,-379.5 396.5,-379.5 396.5,4 -4,4"/>
<text text-anchor="middle" x="196.25" y="-361.05" font-family="Times,serif" font-size="11.00">Physical: media (media)</text>
<g id="clust1" class="cluster">
<title>cluster_media</title>
<polygon fill="lightgrey" stroke="lightgrey" points="8,-8 8,-346 384.5,-346 384.5,-8 8,-8"/>
<text text-anchor="middle" x="196.25" y="-331.55" font-family="Times,serif" font-size="11.00">Schema: media</text>
</g>
<!-- media_media_files -->
<g id="node1" class="node">
<title>media_media_files</title>
<polygon fill="none" stroke="black" points="24.62,-16.75 24.62,-173.25 367.88,-173.25 367.88,-16.75 24.62,-16.75"/>
<text text-anchor="middle" x="67.5" y="-89.95" font-family="Helvetica Neue" font-size="14.00">media_files</text>
<polyline fill="none" stroke="black" points="110.38,-16.75 110.38,-173.25"/>
<text text-anchor="start" x="118.38" y="-155.95" font-family="Helvetica Neue" font-size="14.00">id : uuid</text>
<text text-anchor="start" x="118.38" y="-139.45" font-family="Helvetica Neue" font-size="14.00">user_id : uuid</text>
<text text-anchor="start" x="118.38" y="-122.95" font-family="Helvetica Neue" font-size="14.00">object_key : text</text>
<text text-anchor="start" x="118.38" y="-106.45" font-family="Helvetica Neue" font-size="14.00">filename : text</text>
<text text-anchor="start" x="118.38" y="-89.95" font-family="Helvetica Neue" font-size="14.00">content_type : text</text>
<text text-anchor="start" x="118.38" y="-73.45" font-family="Helvetica Neue" font-size="14.00">size_bytes : bigint</text>
<text text-anchor="start" x="118.38" y="-56.95" font-family="Helvetica Neue" font-size="14.00">status : text</text>
<text text-anchor="start" x="118.38" y="-40.45" font-family="Helvetica Neue" font-size="14.00">created_at : timestamp with time zone</text>
<text text-anchor="middle" x="239.12" y="-23.95" font-family="Helvetica Neue" font-size="14.00">updated_at : timestamp with time zone</text>
</g>
<!-- media_outbox_events -->
<g id="node2" class="node">
<title>media_outbox_events</title>
<polygon fill="none" stroke="black" points="16,-192.25 16,-315.75 376.5,-315.75 376.5,-192.25 16,-192.25"/>
<text text-anchor="middle" x="69.75" y="-248.95" font-family="Helvetica Neue" font-size="14.00">outbox_events</text>
<polyline fill="none" stroke="black" points="123.5,-192.25 123.5,-315.75"/>
<text text-anchor="start" x="131.5" y="-298.45" font-family="Helvetica Neue" font-size="14.00">id : uuid</text>
<text text-anchor="start" x="131.5" y="-281.95" font-family="Helvetica Neue" font-size="14.00">aggregate_id : text</text>
<text text-anchor="start" x="131.5" y="-265.45" font-family="Helvetica Neue" font-size="14.00">type : text</text>
<text text-anchor="start" x="131.5" y="-248.95" font-family="Helvetica Neue" font-size="14.00">version : integer</text>
<text text-anchor="start" x="131.5" y="-232.45" font-family="Helvetica Neue" font-size="14.00">payload : bytea</text>
<text text-anchor="start" x="131.5" y="-215.95" font-family="Helvetica Neue" font-size="14.00">created_at : timestamp with time zone</text>
<text text-anchor="middle" x="250" y="-199.45" font-family="Helvetica Neue" font-size="14.00">published : boolean</text>
</g>
</g>
</svg>
