<?xml version="1.0" encoding="UTF-8" standalone="no"?>
<!DOCTYPE svg PUBLIC "-//W3C//DTD SVG 1.1//EN"
 "http://www.w3.org/Graphics/SVG/1.1/DTD/svg11.dtd">
<!-- Generated by graphviz version 12.2.1 (20241206.2353)
 -->
<!-- Title: physical Pages: 1 -->
<svg width="1526pt" height="1752pt"
 viewBox="0.00 0.00 1525.75 1751.50" xmlns="http://www.w3.org/2000/svg" xmlns:xlink="http://www.w3.org/1999/xlink">
<g id="graph0" class="graph" transform="scale(1 1) rotate(0) translate(4 1747.5)">
<title>physical</title>
<polygon fill="white" stroke="none" points="-4,4 -4,-1747.5 1521.75,-1747.5 1521.75,4 -4,4"/>
<text text-anchor="middle" x="758.88" y="-1729.05" font-family="Times,serif" font-size="11.00">Physical: messaging (messaging)</text>
<g id="clust1" class="cluster">
<title>cluster_forum</title>
<polygon fill="lightgrey" stroke="lightgrey" points="20.38,-8 20.38,-599 1505.25,-599 1505.25,-8 20.38,-8"/>
<text text-anchor="middle" x="762.81" y="-584.55" font-family="Times,serif" font-size="11.00">Schema: forum</text>
</g>
<g id="clust2" class="cluster">
<title>cluster_messages</title>
<polygon fill="lightgrey" stroke="lightgrey" points="20,-607 20,-1226 1509.75,-1226 1509.75,-607 20,-607"/>
<text text-anchor="middle" x="764.88" y="-1211.55" font-family="Times,serif" font-size="11.00">Schema: messages</text>
</g>
<g id="clust3" class="cluster">
<title>cluster_messaging</title>
<polygon fill="lightgrey" stroke="lightgrey" points="8,-1234 8,-1714 1036,-1714 1036,-1234 8,-1234"/>
<text text-anchor="middle" x="522" y="-1699.55" font-family="Times,serif" font-size="11.00">Schema: messaging</text>
</g>
<!-- forum_comment_attachments -->
<g id="node1" class="node">
<title>forum_comment_attachments</title>
<polygon fill="none" stroke="black" points="28.38,-16.5 28.38,-255.5 440.62,-255.5 440.62,-16.5 28.38,-16.5"/>
<text text-anchor="middle" x="108" y="-130.95" font-family="Helvetica Neue" font-size="14.00">comment_attachments</text>
<polyline fill="none" stroke="black" points="187.62,-16.5 187.62,-255.5"/>
<text text-anchor="start" x="195.62" y="-238.2" font-family="Helvetica Neue" font-size="14.00">id : uuid</text>
<text text-anchor="start" x="195.62" y="-221.7" font-family="Helvetica Neue" font-size="14.00">comment_id : uuid</text>
<text text-anchor="start" x="195.62" y="-205.2" font-family="Helvetica Neue" font-size="14.00">file_url : text</text>
<text text-anchor="start" x="195.62" y="-188.7" font-family="Helvetica Neue" font-size="14.00">file_path : text</text>
<text text-anchor="start" x="195.62" y="-172.2" font-family="Helvetica Neue" font-size="14.00">thumbnail_url : text</text>
<text text-anchor="start" x="195.62" y="-155.7" font-family="Helvetica Neue" font-size="14.00">file_name : character varying(512)</text>
<text text-anchor="start" x="195.62" y="-139.2" font-family="Helvetica Neue" font-size="14.00">file_size : bigint</text>
<text text-anchor="start" x="195.62" y="-122.7" font-family="Helvetica Neue" font-size="14.00">mime_type : character varying(128)</text>
<text text-anchor="start" x="195.62" y="-106.2" font-family="Helvetica Neue" font-size="14.00">file_type : character varying(32)</text>
<text text-anchor="start" x="195.62" y="-89.7" font-family="Helvetica Neue" font-size="14.00">width : integer</text>
<text text-anchor="start" x="195.62" y="-73.2" font-family="Helvetica Neue" font-size="14.00">height : integer</text>
<text text-anchor="start" x="195.62" y="-56.7" font-family="Helvetica Neue" font-size="14.00">duration : integer</text>
<text text-anchor="start" x="195.62" y="-40.2" font-family="Helvetica Neue" font-size="14.00">display_order : integer</text>
<text text-anchor="middle" x="314.12" y="-23.7" font-family="Helvetica Neue" font-size="14.00">created_at : timestamp with time zone</text>
</g>
<!-- forum_comments -->
<g id="node3" class="node">
<title>forum_comments</title>
<polygon fill="none" stroke="black" points="678.38,-16.75 678.38,-173.25 1017.88,-173.25 1017.88,-16.75 678.38,-16.75"/>
<text text-anchor="middle" x="719.38" y="-89.95" font-family="Helvetica Neue" font-size="14.00">comments</text>
<polyline fill="none" stroke="black" points="760.38,-16.75 760.38,-173.25"/>
<text text-anchor="start" x="768.38" y="-155.95" font-family="Helvetica Neue" font-size="14.00">id : uuid</text>
<text text-anchor="start" x="768.38" y="-139.45" font-family="Helvetica Neue" font-size="14.00">post_id : uuid</text>
<text text-anchor="start" x="768.38" y="-122.95" font-family="Helvetica Neue" font-size="14.00">user_id : uuid</text>
<text text-anchor="start" x="768.38" y="-106.45" font-family="Helvetica Neue" font-size="14.00">parent_id : uuid</text>
<text text-anchor="start" x="768.38" y="-89.95" font-family="Helvetica Neue" font-size="14.00">content : text</text>
<text text-anchor="start" x="768.38" y="-73.45" font-family="Helvetica Neue" font-size="14.00">upvotes : integer</text>
<text text-anchor="start" x="768.38" y="-56.95" font-family="Helvetica Neue" font-size="14.00">downvotes : integer</text>
<text text-anchor="start" x="768.38" y="-40.45" font-family="Helvetica Neue" font-size="14.00">created_at : timestamp with time zone</text>
<text text-anchor="middle" x="889.12" y="-23.95" font-family="Helvetica Neue" font-size="14.00">updated_at : timestamp with time zone</text>
</g>
<!-- forum_comment_attachments&#45;&gt;forum_comments -->
<g id="edge1" class="edge">
<title>forum_comment_attachments&#45;&gt;forum_comments</title>
<path fill="none" stroke="black" d="M440.86,-122.23C513.99,-117.33 595.75,-111.85 666.63,-107.1"/>
<polygon fill="black" stroke="black" points="666.66,-110.61 676.4,-106.44 666.19,-103.62 666.66,-110.61"/>
<text text-anchor="middle" x="555.38" y="-122.07" font-family="Helvetica Neue" font-size="8.00">comment_attachments_comment_id_fkey</text>
</g>
<!-- forum_comment_votes -->
<g id="node2" class="node">
<title>forum_comment_votes</title>
<polygon fill="none" stroke="black" points="50.12,-274.75 50.12,-365.25 418.88,-365.25 418.88,-274.75 50.12,-274.75"/>
<text text-anchor="middle" x="108" y="-314.95" font-family="Helvetica Neue" font-size="14.00">comment_votes</text>
<polyline fill="none" stroke="black" points="165.88,-274.75 165.88,-365.25"/>
<text text-anchor="start" x="173.88" y="-347.95" font-family="Helvetica Neue" font-size="14.00">id : uuid</text>
<text text-anchor="start" x="173.88" y="-331.45" font-family="Helvetica Neue" font-size="14.00">comment_id : uuid</text>
<text text-anchor="start" x="173.88" y="-314.95" font-family="Helvetica Neue" font-size="14.00">user_id : uuid</text>
<text text-anchor="start" x="173.88" y="-298.45" font-family="Helvetica Neue" font-size="14.00">vote_type : character varying(8)</text>
<text text-anchor="middle" x="292.38" y="-281.95" font-family="Helvetica Neue" font-size="14.00">created_at : timestamp with time zone</text>
</g>
<!-- forum_comment_votes&#45;&gt;forum_comments -->
<g id="edge2" class="edge">
<title>forum_comment_votes&#45;&gt;forum_comments</title>
<path fill="none" stroke="black" d="M419.16,-275.79C430.67,-272.33 442.03,-268.73 453,-265 525.65,-240.32 603.62,-207.99 670.87,-178.16"/>
<polygon fill="black" stroke="black" points="672.05,-181.47 679.76,-174.21 669.2,-175.08 672.05,-181.47"/>
<text text-anchor="middle" x="555.38" y="-260.32" font-family="Helvetica Neue" font-size="8.00">comment_votes_comment_id_fkey</text>
</g>
<!-- forum_comments&#45;&gt;forum_comments -->
<g id="edge3" class="edge">
<title>forum_comments&#45;&gt;forum_comments</title>
<path fill="none" stroke="black" d="M804.04,-173.58C811.3,-184.47 826,-191.75 848.12,-191.75 864.03,-191.75 876.1,-187.99 884.32,-181.83"/>
<polygon fill="black" stroke="black" points="886.78,-184.32 891.17,-174.67 881.72,-179.48 886.78,-184.32"/>
<text text-anchor="middle" x="848.12" y="-194.65" font-family="Helvetica Neue" font-size="8.00">comments_parent_id_fkey</text>
</g>
<!-- forum_posts -->
<g id="node6" class="node">
<title>forum_posts</title>
<polygon fill="none" stroke="black" points="1189.25,-228.75 1189.25,-451.25 1497.25,-451.25 1497.25,-228.75 1189.25,-228.75"/>
<text text-anchor="middle" x="1214.5" y="-334.95" font-family="Helvetica Neue" font-size="14.00">posts</text>
<polyline fill="none" stroke="black" points="1239.75,-228.75 1239.75,-451.25"/>
<text text-anchor="start" x="1247.75" y="-433.95" font-family="Helvetica Neue" font-size="14.00">id : uuid</text>
<text text-anchor="start" x="1247.75" y="-417.45" font-family="Helvetica Neue" font-size="14.00">user_id : uuid</text>
<text text-anchor="start" x="1247.75" y="-400.95" font-family="Helvetica Neue" font-size="14.00">title : character varying(512)</text>
<text text-anchor="start" x="1247.75" y="-384.45" font-family="Helvetica Neue" font-size="14.00">content : text</text>
<text text-anchor="start" x="1247.75" y="-367.95" font-family="Helvetica Neue" font-size="14.00">flair : character varying(64)</text>
<text text-anchor="start" x="1247.75" y="-351.45" font-family="Helvetica Neue" font-size="14.00">upload_type : character varying(32)</text>
<text text-anchor="start" x="1247.75" y="-334.95" font-family="Helvetica Neue" font-size="14.00">upvotes : integer</text>
<text text-anchor="start" x="1247.75" y="-318.45" font-family="Helvetica Neue" font-size="14.00">downvotes : integer</text>
<text text-anchor="start" x="1247.75" y="-301.95" font-family="Helvetica Neue" font-size="14.00">comment_count : integer</text>
<text text-anchor="start" x="1247.75" y="-285.45" font-family="Helvetica Neue" font-size="14.00">is_pinned : boolean</text>
<text text-anchor="start" x="1247.75" y="-268.95" font-family="Helvetica Neue" font-size="14.00">is_locked : boolean</text>
<text text-anchor="start" x="1247.75" y="-252.45" font-family="Helvetica Neue" font-size="14.00">created_at : timestamp with time zone</text>
<text text-anchor="middle" x="1368.5" y="-235.95" font-family="Helvetica Neue" font-size="14.00">updated_at : timestamp with time zone</text>
</g>
<!-- forum_comments&#45;&gt;forum_posts -->
<g id="edge4" class="edge">
<title>forum_comments&#45;&gt;forum_posts</title>
<path fill="none" stroke="black" d="M1007.53,-173.7C1062.28,-200.9 1123.71,-231.42 1178.85,-258.82"/>
<polygon fill="black" stroke="black" points="1177.2,-261.91 1187.71,-263.22 1180.32,-255.64 1177.2,-261.91"/>
<text text-anchor="middle" x="1111.62" y="-249.55" font-family="Helvetica Neue" font-size="8.00">comments_post_id_fkey</text>
</g>
<!-- forum_post_attachments -->
<g id="node4" class="node">
<title>forum_post_attachments</title>
<polygon fill="none" stroke="black" points="657.75,-220.5 657.75,-459.5 1038.5,-459.5 1038.5,-220.5 657.75,-220.5"/>
<text text-anchor="middle" x="721.62" y="-334.95" font-family="Helvetica Neue" font-size="14.00">post_attachments</text>
<polyline fill="none" stroke="black" points="785.5,-220.5 785.5,-459.5"/>
<text text-anchor="start" x="793.5" y="-442.2" font-family="Helvetica Neue" font-size="14.00">id : uuid</text>
<text text-anchor="start" x="793.5" y="-425.7" font-family="Helvetica Neue" font-size="14.00">post_id : uuid</text>
<text text-anchor="start" x="793.5" y="-409.2" font-family="Helvetica Neue" font-size="14.00">file_url : text</text>
<text text-anchor="start" x="793.5" y="-392.7" font-family="Helvetica Neue" font-size="14.00">file_path : text</text>
<text text-anchor="start" x="793.5" y="-376.2" font-family="Helvetica Neue" font-size="14.00">thumbnail_url : text</text>
<text text-anchor="start" x="793.5" y="-359.7" font-family="Helvetica Neue" font-size="14.00">file_name : character varying(512)</text>
<text text-anchor="start" x="793.5" y="-343.2" font-family="Helvetica Neue" font-size="14.00">file_size : bigint</text>
<text text-anchor="start" x="793.5" y="-326.7" font-family="Helvetica Neue" font-size="14.00">mime_type : character varying(128)</text>
<text text-anchor="start" x="793.5" y="-310.2" font-family="Helvetica Neue" font-size="14.00">file_type : character varying(32)</text>
<text text-anchor="start" x="793.5" y="-293.7" font-family="Helvetica Neue" font-size="14.00">width : integer</text>
<text text-anchor="start" x="793.5" y="-277.2" font-family="Helvetica Neue" font-size="14.00">height : integer</text>
<text text-anchor="start" x="793.5" y="-260.7" font-family="Helvetica Neue" font-size="14.00">duration : integer</text>
<text text-anchor="start" x="793.5" y="-244.2" font-family="Helvetica Neue" font-size="14.00">display_order : integer</text>
<text text-anchor="middle" x="912" y="-227.7" font-family="Helvetica Neue" font-size="14.00">created_at : timestamp with time zone</text>
</g>
<!-- forum_post_attachments&#45;&gt;forum_posts -->
<g id="edge5" class="edge">
<title>forum_post_attachments&#45;&gt;forum_posts</title>
<path fill="none" stroke="black" d="M1038.72,-340C1084.52,-340 1133.09,-340 1177.63,-340"/>
<polygon fill="black" stroke="black" points="1177.35,-343.5 1187.35,-340 1177.35,-336.5 1177.35,-343.5"/>
<text text-anchor="middle" x="1111.62" y="-342.9" font-family="Helvetica Neue" font-size="8.00">post_attachments_post_id_fkey</text>
</g>
<!-- forum_post_votes -->
<g id="node5" class="node">
<title>forum_post_votes</title>
<polygon fill="none" stroke="black" points="679.5,-478.75 679.5,-569.25 1016.75,-569.25 1016.75,-478.75 679.5,-478.75"/>
<text text-anchor="middle" x="721.62" y="-518.95" font-family="Helvetica Neue" font-size="14.00">post_votes</text>
<polyline fill="none" stroke="black" points="763.75,-478.75 763.75,-569.25"/>
<text text-anchor="start" x="771.75" y="-551.95" font-family="Helvetica Neue" font-size="14.00">id : uuid</text>
<text text-anchor="start" x="771.75" y="-535.45" font-family="Helvetica Neue" font-size="14.00">post_id : uuid</text>
<text text-anchor="start" x="771.75" y="-518.95" font-family="Helvetica Neue" font-size="14.00">user_id : uuid</text>
<text text-anchor="start" x="771.75" y="-502.45" font-family="Helvetica Neue" font-size="14.00">vote_type : character varying(8)</text>
<text text-anchor="middle" x="890.25" y="-485.95" font-family="Helvetica Neue" font-size="14.00">created_at : timestamp with time zone</text>
</g>
<!-- forum_post_votes&#45;&gt;forum_posts -->
<g id="edge6" class="edge">
<title>forum_post_votes&#45;&gt;forum_posts</title>
<path fill="none" stroke="black" d="M1011.22,-478.32C1020.48,-475.27 1029.63,-472.16 1038.5,-469 1084.57,-452.59 1133.68,-432.79 1178.69,-413.67"/>
<polygon fill="black" stroke="black" points="1179.91,-416.96 1187.73,-409.81 1177.16,-410.52 1179.91,-416.96"/>
<text text-anchor="middle" x="1111.62" y="-462.74" font-family="Helvetica Neue" font-size="8.00">post_votes_post_id_fkey</text>
</g>
<!-- messages_group_bans -->
<g id="node7" class="node">
<title>messages_group_bans</title>
<polygon fill="none" stroke="black" points="676.88,-615.25 676.88,-738.75 1019.38,-738.75 1019.38,-615.25 676.88,-615.25"/>
<text text-anchor="middle" x="721.62" y="-671.95" font-family="Helvetica Neue" font-size="14.00">group_bans</text>
<polyline fill="none" stroke="black" points="766.38,-615.25 766.38,-738.75"/>
<text text-anchor="start" x="774.38" y="-721.45" font-family="Helvetica Neue" font-size="14.00">id : uuid</text>
<text text-anchor="start" x="774.38" y="-704.95" font-family="Helvetica Neue" font-size="14.00">group_id : uuid</text>
<text text-anchor="start" x="774.38" y="-688.45" font-family="Helvetica Neue" font-size="14.00">user_id : uuid</text>
<text text-anchor="start" x="774.38" y="-671.95" font-family="Helvetica Neue" font-size="14.00">banned_by : uuid</text>
<text text-anchor="start" x="774.38" y="-655.45" font-family="Helvetica Neue" font-size="14.00">reason : text</text>
<text text-anchor="start" x="774.38" y="-638.95" font-family="Helvetica Neue" font-size="14.00">expires_at : timestamp with time zone</text>
<text text-anchor="middle" x="892.88" y="-622.45" font-family="Helvetica Neue" font-size="14.00">created_at : timestamp with time zone</text>
</g>
<!-- messages_groups -->
<g id="node9" class="node">
<title>messages_groups</title>
<polygon fill="none" stroke="black" points="1184.75,-749.25 1184.75,-872.75 1501.75,-872.75 1501.75,-749.25 1184.75,-749.25"/>
<text text-anchor="middle" x="1214.5" y="-805.95" font-family="Helvetica Neue" font-size="14.00">groups</text>
<polyline fill="none" stroke="black" points="1244.25,-749.25 1244.25,-872.75"/>
<text text-anchor="start" x="1252.25" y="-855.45" font-family="Helvetica Neue" font-size="14.00">id : uuid</text>
<text text-anchor="start" x="1252.25" y="-838.95" font-family="Helvetica Neue" font-size="14.00">name : character varying(256)</text>
<text text-anchor="start" x="1252.25" y="-822.45" font-family="Helvetica Neue" font-size="14.00">description : text</text>
<text text-anchor="start" x="1252.25" y="-805.95" font-family="Helvetica Neue" font-size="14.00">created_by : uuid</text>
<text text-anchor="start" x="1252.25" y="-789.45" font-family="Helvetica Neue" font-size="14.00">created_at : timestamp with time zone</text>
<text text-anchor="start" x="1252.25" y="-772.95" font-family="Helvetica Neue" font-size="14.00">updated_at : timestamp with time zone</text>
<text text-anchor="middle" x="1373" y="-756.45" font-family="Helvetica Neue" font-size="14.00">archived : boolean</text>
</g>
<!-- messages_group_bans&#45;&gt;messages_groups -->
<g id="edge7" class="edge">
<title>messages_group_bans&#45;&gt;messages_groups</title>
<path fill="none" stroke="black" d="M1019.87,-723.4C1069.64,-736.92 1123.99,-751.69 1173.64,-765.18"/>
<polygon fill="black" stroke="black" points="1172.46,-768.49 1183.02,-767.73 1174.29,-761.73 1172.46,-768.49"/>
<text text-anchor="middle" x="1111.62" y="-762.84" font-family="Helvetica Neue" font-size="8.00">group_bans_group_id_fkey</text>
</g>
<!-- messages_group_members -->
<g id="node8" class="node">
<title>messages_group_members</title>
<polygon fill="none" stroke="black" points="667.5,-757.5 667.5,-864.5 1028.75,-864.5 1028.75,-757.5 667.5,-757.5"/>
<text text-anchor="middle" x="726.5" y="-805.95" font-family="Helvetica Neue" font-size="14.00">group_members</text>
<polyline fill="none" stroke="black" points="785.5,-757.5 785.5,-864.5"/>
<text text-anchor="start" x="793.5" y="-847.2" font-family="Helvetica Neue" font-size="14.00">id : uuid</text>
<text text-anchor="start" x="793.5" y="-830.7" font-family="Helvetica Neue" font-size="14.00">group_id : uuid</text>
<text text-anchor="start" x="793.5" y="-814.2" font-family="Helvetica Neue" font-size="14.00">user_id : uuid</text>
<text text-anchor="start" x="793.5" y="-797.7" font-family="Helvetica Neue" font-size="14.00">role : character varying(16)</text>
<text text-anchor="start" x="793.5" y="-781.2" font-family="Helvetica Neue" font-size="14.00">joined_at : timestamp with time zone</text>
<text text-anchor="middle" x="907.12" y="-764.7" font-family="Helvetica Neue" font-size="14.00">left_at : timestamp with time zone</text>
</g>
<!-- messages_group_members&#45;&gt;messages_groups -->
<g id="edge8" class="edge">
<title>messages_group_members&#45;&gt;messages_groups</title>
<path fill="none" stroke="black" d="M1029.25,-811C1076.27,-811 1126.78,-811 1173.2,-811"/>
<polygon fill="black" stroke="black" points="1173.08,-814.5 1183.08,-811 1173.08,-807.5 1173.08,-814.5"/>
<text text-anchor="middle" x="1111.62" y="-813.9" font-family="Helvetica Neue" font-size="8.00">group_members_group_id_fkey</text>
</g>
<!-- messages_message_attachments -->
<g id="node10" class="node">
<title>messages_message_attachments</title>
<polygon fill="none" stroke="black" points="29.88,-661.5 29.88,-900.5 439.12,-900.5 439.12,-661.5 29.88,-661.5"/>
<text text-anchor="middle" x="108" y="-775.95" font-family="Helvetica Neue" font-size="14.00">message_attachments</text>
<polyline fill="none" stroke="black" points="186.12,-661.5 186.12,-900.5"/>
<text text-anchor="start" x="194.12" y="-883.2" font-family="Helvetica Neue" font-size="14.00">id : uuid</text>
<text text-anchor="start" x="194.12" y="-866.7" font-family="Helvetica Neue" font-size="14.00">message_id : uuid</text>
<text text-anchor="start" x="194.12" y="-850.2" font-family="Helvetica Neue" font-size="14.00">file_url : text</text>
<text text-anchor="start" x="194.12" y="-833.7" font-family="Helvetica Neue" font-size="14.00">file_path : text</text>
<text text-anchor="start" x="194.12" y="-817.2" font-family="Helvetica Neue" font-size="14.00">thumbnail_url : text</text>
<text text-anchor="start" x="194.12" y="-800.7" font-family="Helvetica Neue" font-size="14.00">file_name : character varying(512)</text>
<text text-anchor="start" x="194.12" y="-784.2" font-family="Helvetica Neue" font-size="14.00">file_size : bigint</text>
<text text-anchor="start" x="194.12" y="-767.7" font-family="Helvetica Neue" font-size="14.00">mime_type : character varying(128)</text>
<text text-anchor="start" x="194.12" y="-751.2" font-family="Helvetica Neue" font-size="14.00">file_type : character varying(32)</text>
<text text-anchor="start" x="194.12" y="-734.7" font-family="Helvetica Neue" font-size="14.00">width : integer</text>
<text text-anchor="start" x="194.12" y="-718.2" font-family="Helvetica Neue" font-size="14.00">height : integer</text>
<text text-anchor="start" x="194.12" y="-701.7" font-family="Helvetica Neue" font-size="14.00">duration : integer</text>
<text text-anchor="start" x="194.12" y="-685.2" font-family="Helvetica Neue" font-size="14.00">display_order : integer</text>
<text text-anchor="middle" x="312.62" y="-668.7" font-family="Helvetica Neue" font-size="14.00">created_at : timestamp with time zone</text>
</g>
<!-- messages_messages -->
<g id="node12" class="node">
<title>messages_messages</title>
<polygon fill="none" stroke="black" points="660,-883.25 660,-1138.75 1036.25,-1138.75 1036.25,-883.25 660,-883.25"/>
<text text-anchor="middle" x="699.5" y="-1005.95" font-family="Helvetica Neue" font-size="14.00">messages</text>
<polyline fill="none" stroke="black" points="739,-883.25 739,-1138.75"/>
<text text-anchor="start" x="747" y="-1121.45" font-family="Helvetica Neue" font-size="14.00">id : uuid</text>
<text text-anchor="start" x="747" y="-1104.95" font-family="Helvetica Neue" font-size="14.00">sender_id : uuid</text>
<text text-anchor="start" x="747" y="-1088.45" font-family="Helvetica Neue" font-size="14.00">recipient_id : uuid</text>
<text text-anchor="start" x="747" y="-1071.95" font-family="Helvetica Neue" font-size="14.00">group_id : uuid</text>
<text text-anchor="start" x="747" y="-1055.45" font-family="Helvetica Neue" font-size="14.00">parent_message_id : uuid</text>
<text text-anchor="start" x="747" y="-1038.95" font-family="Helvetica Neue" font-size="14.00">thread_id : uuid</text>
<text text-anchor="start" x="747" y="-1022.45" font-family="Helvetica Neue" font-size="14.00">message_type : character varying(32)</text>
<text text-anchor="start" x="747" y="-1005.95" font-family="Helvetica Neue" font-size="14.00">subject : character varying(512)</text>
<text text-anchor="start" x="747" y="-989.45" font-family="Helvetica Neue" font-size="14.00">content : text</text>
<text text-anchor="start" x="747" y="-972.95" font-family="Helvetica Neue" font-size="14.00">is_read : boolean</text>
<text text-anchor="start" x="747" y="-956.45" font-family="Helvetica Neue" font-size="14.00">sender_display_name : character varying(128)</text>
<text text-anchor="start" x="747" y="-939.95" font-family="Helvetica Neue" font-size="14.00">created_at : timestamp with time zone</text>
<text text-anchor="start" x="747" y="-923.45" font-family="Helvetica Neue" font-size="14.00">updated_at : timestamp with time zone</text>
<text text-anchor="start" x="747" y="-906.95" font-family="Helvetica Neue" font-size="14.00">recalled_at : timestamp with time zone</text>
<text text-anchor="middle" x="887.62" y="-890.45" font-family="Helvetica Neue" font-size="14.00">archived : boolean</text>
</g>
<!-- messages_message_attachments&#45;&gt;messages_messages -->
<g id="edge9" class="edge">
<title>messages_message_attachments&#45;&gt;messages_messages</title>
<path fill="none" stroke="black" d="M439.59,-857.75C507.02,-883.1 581.9,-911.26 648.89,-936.45"/>
<polygon fill="black" stroke="black" points="647.56,-939.69 658.15,-939.94 650.03,-933.14 647.56,-939.69"/>
<text text-anchor="middle" x="555.38" y="-932.94" font-family="Helvetica Neue" font-size="8.00">message_attachments_message_id_fkey</text>
</g>
<!-- messages_message_reads -->
<g id="node11" class="node">
<title>messages_message_reads</title>
<polygon fill="none" stroke="black" points="61,-919.75 61,-1010.25 408,-1010.25 408,-919.75 61,-919.75"/>
<text text-anchor="middle" x="117.75" y="-959.95" font-family="Helvetica Neue" font-size="14.00">message_reads</text>
<polyline fill="none" stroke="black" points="174.5,-919.75 174.5,-1010.25"/>
<text text-anchor="start" x="182.5" y="-992.95" font-family="Helvetica Neue" font-size="14.00">id : uuid</text>
<text text-anchor="start" x="182.5" y="-976.45" font-family="Helvetica Neue" font-size="14.00">message_id : uuid</text>
<text text-anchor="start" x="182.5" y="-959.95" font-family="Helvetica Neue" font-size="14.00">user_id : uuid</text>
<text text-anchor="start" x="182.5" y="-943.45" font-family="Helvetica Neue" font-size="14.00">read_at : timestamp with time zone</text>
<text text-anchor="middle" x="291.25" y="-926.95" font-family="Helvetica Neue" font-size="14.00">read_by_sender : boolean</text>
</g>
<!-- messages_message_reads&#45;&gt;messages_messages -->
<g id="edge10" class="edge">
<title>messages_message_reads&#45;&gt;messages_messages</title>
<path fill="none" stroke="black" d="M408.31,-978C483.06,-983.62 570.97,-990.23 648.4,-996.05"/>
<polygon fill="black" stroke="black" points="648,-999.53 658.23,-996.79 648.53,-992.55 648,-999.53"/>
<text text-anchor="middle" x="555.38" y="-997.71" font-family="Helvetica Neue" font-size="8.00">message_reads_message_id_fkey</text>
</g>
<!-- messages_messages&#45;&gt;messages_groups -->
<g id="edge11" class="edge">
<title>messages_messages&#45;&gt;messages_groups</title>
<path fill="none" stroke="black" d="M1036.61,-934.96C1083.35,-916 1133.1,-895.83 1178.59,-877.38"/>
<polygon fill="black" stroke="black" points="1179.78,-880.67 1187.73,-873.67 1177.15,-874.18 1179.78,-880.67"/>
<text text-anchor="middle" x="1111.62" y="-925.87" font-family="Helvetica Neue" font-size="8.00">messages_group_id_fkey</text>
</g>
<!-- messages_messages&#45;&gt;messages_messages -->
<g id="edge12" class="edge">
<title>messages_messages&#45;&gt;messages_messages</title>
<path fill="none" stroke="black" d="M828.67,-1138.86C832.76,-1150.17 839.25,-1157.25 848.12,-1157.25 853.95,-1157.25 858.75,-1154.2 862.51,-1148.91"/>
<polygon fill="black" stroke="black" points="865.52,-1150.72 866.9,-1140.22 859.27,-1147.57 865.52,-1150.72"/>
<text text-anchor="middle" x="848.12" y="-1160.15" font-family="Helvetica Neue" font-size="8.00">messages_parent_message_id_fkey</text>
</g>
<!-- messages_messages&#45;&gt;messages_messages -->
<g id="edge13" class="edge">
<title>messages_messages&#45;&gt;messages_messages</title>
<path fill="none" stroke="black" d="M802.2,-1139.09C808.63,-1160.49 823.94,-1175.25 848.12,-1175.25 868.16,-1175.25 882.1,-1165.13 889.95,-1149.49"/>
<polygon fill="black" stroke="black" points="893.08,-1151.09 893.49,-1140.5 886.57,-1148.52 893.08,-1151.09"/>
<text text-anchor="middle" x="848.12" y="-1178.15" font-family="Helvetica Neue" font-size="8.00">messages_thread_id_fkey</text>
</g>
<!-- messages_user_archived_threads -->
<g id="node13" class="node">
<title>messages_user_archived_threads</title>
<polygon fill="none" stroke="black" points="28,-1029 28,-1103 441,-1103 441,-1029 28,-1029"/>
<text text-anchor="middle" x="105.38" y="-1060.95" font-family="Helvetica Neue" font-size="14.00">user_archived_threads</text>
<polyline fill="none" stroke="black" points="182.75,-1029 182.75,-1103"/>
<text text-anchor="start" x="190.75" y="-1085.7" font-family="Helvetica Neue" font-size="14.00">id : uuid</text>
<text text-anchor="start" x="190.75" y="-1069.2" font-family="Helvetica Neue" font-size="14.00">user_id : uuid</text>
<text text-anchor="start" x="190.75" y="-1052.7" font-family="Helvetica Neue" font-size="14.00">thread_id : uuid</text>
<text text-anchor="middle" x="311.88" y="-1036.2" font-family="Helvetica Neue" font-size="14.00">archived_at : timestamp with time zone</text>
</g>
<!-- messages_user_deleted_threads -->
<g id="node14" class="node">
<title>messages_user_deleted_threads</title>
<polygon fill="none" stroke="black" points="34,-1122 34,-1196 435,-1196 435,-1122 34,-1122"/>
<text text-anchor="middle" x="108.38" y="-1153.95" font-family="Helvetica Neue" font-size="14.00">user_deleted_threads</text>
<polyline fill="none" stroke="black" points="182.75,-1122 182.75,-1196"/>
<text text-anchor="start" x="190.75" y="-1178.7" font-family="Helvetica Neue" font-size="14.00">id : uuid</text>
<text text-anchor="start" x="190.75" y="-1162.2" font-family="Helvetica Neue" font-size="14.00">user_id : uuid</text>
<text text-anchor="start" x="190.75" y="-1145.7" font-family="Helvetica Neue" font-size="14.00">thread_id : uuid</text>
<text text-anchor="middle" x="308.88" y="-1129.2" font-family="Helvetica Neue" font-size="14.00">deleted_at : timestamp with time zone</text>
</g>
<!-- messaging_conversation_participants -->
<g id="node15" class="node">
<title>messaging_conversation_participants</title>
<polygon fill="none" stroke="black" points="16,-1242.5 16,-1349.5 453,-1349.5 453,-1242.5 16,-1242.5"/>
<text text-anchor="middle" x="103.5" y="-1290.95" font-family="Helvetica Neue" font-size="14.00">conversation_participants</text>
<polyline fill="none" stroke="black" points="191,-1242.5 191,-1349.5"/>
<text text-anchor="start" x="199" y="-1332.2" font-family="Helvetica Neue" font-size="14.00">conversation_id : uuid</text>
<text text-anchor="start" x="199" y="-1315.7" font-family="Helvetica Neue" font-size="14.00">user_id : uuid</text>
<text text-anchor="start" x="199" y="-1299.2" font-family="Helvetica Neue" font-size="14.00">joined_at : timestamp with time zone</text>
<text text-anchor="start" x="199" y="-1282.7" font-family="Helvetica Neue" font-size="14.00">archived : boolean</text>
<text text-anchor="start" x="199" y="-1266.2" font-family="Helvetica Neue" font-size="14.00">deleted : boolean</text>
<text text-anchor="middle" x="322" y="-1249.7" font-family="Helvetica Neue" font-size="14.00">last_read_at : timestamp with time zone</text>
</g>
<!-- messaging_conversations -->
<g id="node16" class="node">
<title>messaging_conversations</title>
<polygon fill="none" stroke="black" points="668.25,-1298.75 668.25,-1389.25 1028,-1389.25 1028,-1298.75 668.25,-1298.75"/>
<text text-anchor="middle" x="719.38" y="-1338.95" font-family="Helvetica Neue" font-size="14.00">conversations</text>
<polyline fill="none" stroke="black" points="770.5,-1298.75 770.5,-1389.25"/>
<text text-anchor="start" x="778.5" y="-1371.95" font-family="Helvetica Neue" font-size="14.00">id : uuid</text>
<text text-anchor="start" x="778.5" y="-1355.45" font-family="Helvetica Neue" font-size="14.00">listing_id : uuid</text>
<text text-anchor="start" x="778.5" y="-1338.95" font-family="Helvetica Neue" font-size="14.00">created_at : timestamp with time zone</text>
<text text-anchor="start" x="778.5" y="-1322.45" font-family="Helvetica Neue" font-size="14.00">updated_at : timestamp with time zone</text>
<text text-anchor="middle" x="899.25" y="-1305.95" font-family="Helvetica Neue" font-size="14.00">conversation_key : text</text>
</g>
<!-- messaging_conversation_participants&#45;&gt;messaging_conversations -->
<g id="edge14" class="edge">
<title>messaging_conversation_participants&#45;&gt;messaging_conversations</title>
<path fill="none" stroke="black" d="M453.29,-1313.09C519.8,-1318.31 592.38,-1324.01 656.91,-1329.07"/>
<polygon fill="black" stroke="black" points="656.28,-1332.53 666.52,-1329.83 656.82,-1325.55 656.28,-1332.53"/>
<text text-anchor="middle" x="555.38" y="-1330" font-family="Helvetica Neue" font-size="8.00">conversation_participants_conversation_id_fkey</text>
</g>
<!-- messaging_messages -->
<g id="node17" class="node">
<title>messaging_messages</title>
<polygon fill="none" stroke="black" points="68.5,-1368.5 68.5,-1541.5 400.5,-1541.5 400.5,-1368.5 68.5,-1368.5"/>
<text text-anchor="middle" x="108" y="-1449.95" font-family="Helvetica Neue" font-size="14.00">messages</text>
<polyline fill="none" stroke="black" points="147.5,-1368.5 147.5,-1541.5"/>
<text text-anchor="start" x="155.5" y="-1524.2" font-family="Helvetica Neue" font-size="14.00">id : uuid</text>
<text text-anchor="start" x="155.5" y="-1507.7" font-family="Helvetica Neue" font-size="14.00">conversation_id : uuid</text>
<text text-anchor="start" x="155.5" y="-1491.2" font-family="Helvetica Neue" font-size="14.00">sender_id : uuid</text>
<text text-anchor="start" x="155.5" y="-1474.7" font-family="Helvetica Neue" font-size="14.00">body : text</text>
<text text-anchor="start" x="155.5" y="-1458.2" font-family="Helvetica Neue" font-size="14.00">message_type : text</text>
<text text-anchor="start" x="155.5" y="-1441.7" font-family="Helvetica Neue" font-size="14.00">created_at : timestamp with time zone</text>
<text text-anchor="start" x="155.5" y="-1425.2" font-family="Helvetica Neue" font-size="14.00">edited_at : timestamp with time zone</text>
<text text-anchor="start" x="155.5" y="-1408.7" font-family="Helvetica Neue" font-size="14.00">deleted_at : timestamp with time zone</text>
<text text-anchor="start" x="155.5" y="-1392.2" font-family="Helvetica Neue" font-size="14.00">version : integer</text>
<text text-anchor="middle" x="274" y="-1375.7" font-family="Helvetica Neue" font-size="14.00">media_id : text</text>
</g>
<!-- messaging_messages&#45;&gt;messaging_conversations -->
<g id="edge15" class="edge">
<title>messaging_messages&#45;&gt;messaging_conversations</title>
<path fill="none" stroke="black" d="M400.61,-1425.03C479.59,-1410.7 574.59,-1393.46 656.61,-1378.57"/>
<polygon fill="black" stroke="black" points="657.14,-1382.04 666.35,-1376.81 655.89,-1375.15 657.14,-1382.04"/>
<text text-anchor="middle" x="555.38" y="-1412.34" font-family="Helvetica Neue" font-size="8.00">messages_conversation_id_fkey</text>
</g>
<!-- messaging_outbox_events -->
<g id="node18" class="node">
<title>messaging_outbox_events</title>
<polygon fill="none" stroke="black" points="54.25,-1560.25 54.25,-1683.75 414.75,-1683.75 414.75,-1560.25 54.25,-1560.25"/>
<text text-anchor="middle" x="108" y="-1616.95" font-family="Helvetica Neue" font-size="14.00">outbox_events</text>
<polyline fill="none" stroke="black" points="161.75,-1560.25 161.75,-1683.75"/>
<text text-anchor="start" x="169.75" y="-1666.45" font-family="Helvetica Neue" font-size="14.00">id : uuid</text>
<text text-anchor="start" x="169.75" y="-1649.95" font-family="Helvetica Neue" font-size="14.00">aggregate_id : text</text>
<text text-anchor="start" x="169.75" y="-1633.45" font-family="Helvetica Neue" font-size="14.00">type : text</text>
<text text-anchor="start" x="169.75" y="-1616.95" font-family="Helvetica Neue" font-size="14.00">version : integer</text>
<text text-anchor="start" x="169.75" y="-1600.45" font-family="Helvetica Neue" font-size="14.00">payload : bytea</text>
<text text-anchor="start" x="169.75" y="-1583.95" font-family="Helvetica Neue" font-size="14.00">created_at : timestamp with time zone</text>
<text text-anchor="middle" x="288.25" y="-1567.45" font-family="Helvetica Neue" font-size="14.00">published : boolean</text>
</g>
</g>
</svg>
