<svg xmlns="http://www.w3.org/2000/svg" width="624" height="360">
<style>text{font-family:Arial,sans-serif;font-size:11px}.label{font-size:10px}</style>
<text x="20" y="18" font-size="14">Per-service latency (avg ms): HTTP/2 vs HTTP/3</text>
<line x1="80" y1="30" x2="80" y2="290" stroke="#444"/>
<line x1="80" y1="290" x2="604" y2="290" stroke="#444"/>
<line x1="80" y1="290" x2="604" y2="290" stroke="#eee"/>
<text x="10" y="294" class="label">0ms</text>
<line x1="80" y1="229" x2="604" y2="229" stroke="#eee"/>
<text x="10" y="233" class="label">11ms</text>
<line x1="80" y1="168" x2="604" y2="168" stroke="#eee"/>
<text x="10" y="172" class="label">22ms</text>
<line x1="80" y1="107" x2="604" y2="107" stroke="#eee"/>
<text x="10" y="111" class="label">33ms</text>
<line x1="80" y1="40" x2="604" y2="40" stroke="#eee"/>
<text x="10" y="44" class="label">45ms</text>
<rect x="90" y="168" width="18" height="122" fill="#4e79a7"/>
<rect x="112" y="124" width="18" height="166" fill="#f28e2b"/>
<text x="90" y="304" class="label">analyti</text>
<rect x="146" y="40" width="18" height="250" fill="#4e79a7"/>
<rect x="168" y="129" width="18" height="161" fill="#f28e2b"/>
<text x="146" y="304" class="label">auth</text>
<rect x="202" y="152" width="18" height="138" fill="#4e79a7"/>
<rect x="224" y="124" width="18" height="166" fill="#f28e2b"/>
<text x="202" y="304" class="label">booking</text>
<rect x="258" y="252" width="18" height="38" fill="#4e79a7"/>
<rect x="280" y="229" width="18" height="61" fill="#f28e2b"/>
<text x="258" y="304" class="label">gateway</text>
<rect x="314" y="185" width="18" height="105" fill="#4e79a7"/>
<rect x="336" y="196" width="18" height="94" fill="#f28e2b"/>
<text x="314" y="304" class="label">listing</text>
<rect x="370" y="190" width="18" height="100" fill="#4e79a7"/>
<rect x="392" y="185" width="18" height="105" fill="#f28e2b"/>
<text x="370" y="304" class="label">media</text>
<rect x="426" y="185" width="18" height="105" fill="#4e79a7"/>
<rect x="448" y="179" width="18" height="111" fill="#f28e2b"/>
<text x="426" y="304" class="label">messagi</text>
<rect x="482" y="140" width="18" height="150" fill="#4e79a7"/>
<rect x="504" y="179" width="18" height="111" fill="#f28e2b"/>
<text x="482" y="304" class="label">notific</text>
<rect x="538" y="152" width="18" height="138" fill="#4e79a7"/>
<rect x="560" y="179" width="18" height="111" fill="#f28e2b"/>
<text x="538" y="304" class="label">trust</text>
<rect x="80" y="320" width="12" height="12" fill="#4e79a7"/><text x="98" y="330" class="label">HTTP/2</text>
<rect x="170" y="320" width="12" height="12" fill="#f28e2b"/><text x="188" y="330" class="label">HTTP/3</text>
</svg>